<?xml version="1.0" standalone="no"?>
<!DOCTYPE svg PUBLIC "-//W3C//DTD SVG 1.1//EN" "http://www.w3.org/Graphics/SVG/1.1/DTD/svg11.dtd" >
<svg xmlns="http://www.w3.org/2000/svg">
<metadata></metadata>
<defs>
<font id="1820_modernnormal" horiz-adv-x="1617" >
<font-face units-per-em="2048" ascent="1638" descent="-410" />
<missing-glyph horiz-adv-x="1083" />
<glyph unicode="&#x31;&#x2f;&#x34;" horiz-adv-x="2082" d="M35 1616q0 35 55 35q25 0 76 -6q47 16 119 18q74 2 102 12q35 -4 109 -10l36 -25q20 -18 21 -30q2 -162 -2 -170q0 -203 -2 -213q-10 -16 -10 -27q0 -2 6 -24.5t4 -35t-2 -40.5q0 -82 45 -82q18 0 41 12q20 -2 61 -10q45 -9 45 -29q0 -27 -22.5 -58.5t-44.5 -31.5 q-33 0 -146 -6q-113 -4 -147 -2q-211 8 -277 0q-25 29 -24 49q0 63 172 64q20 8 18 22l-4 29q10 14 35 112q4 25 -2 58q-10 51 -10 57q-2 88 14 207q6 41 -18 68q-8 8 -23 8q-18 0 -65.5 -18.5t-59.5 -18.5q-18 -2 -50 24.5t-42 28.5q-8 16 -8 33zM217 18q0 25 12 52 q10 20 52 67q49 51 65 74l772 1194q76 113 111 139q16 12 24 12t7 -38q-4 -52 2 -64q-8 -49 -72 -137l-397 -559q-197 -283 -297 -477q-45 -59 -99 -142q-4 -4 -6 -61q-4 -41 -40 -80t-77 -39q-57 0 -57 59zM659 311q0 27 17 47q31 59 82 140l252 315q199 252 213 301 q20 63 112 64q25 0 45 -11q6 -16 6 -32q0 -43 -81 -107q-80 -63 -74 -106q-41 -37 -90 -123q-16 -23 -54 -51q-27 -20 -53 -48q-55 -86 -190 -260q-2 -33 -33 -65q-31 -31 -31 -37q0 -10 23 -21q23 4 192 0q129 0 189 15q68 16 67 112q0 41 -8 104.5t-8 104.5q0 137 129 121 q33 -2 113 -22q18 -10 18 -62q0 -23 -10 -121t-10 -131q0 -59 16 -86q68 -20 104 -6q10 14 11 39q0 23 -9 64q-6 47 -6 67q0 68 60 68q14 0 24 -2q43 -37 45 -131q2 -47 2 -146q10 -16 11 -35q0 -53 -54 -53q-20 0 -69 22.5t-68 22.5q-49 0 -49 -76q0 -94 35 -123 q8 0 55 6.5t62 6.5q55 0 92 -37q-8 -46 -51 -64q-420 14 -582 -6q-61 -6 -100 15q-27 14 -27 34q0 23 35 45q92 4 198 23q-2 70 13 111q12 41 -123 49q-90 6 -260 0q-147 -6 -150 -4q-31 29 -31 69z" />
<glyph unicode="&#x31;&#x2f;&#x32;" horiz-adv-x="2004" d="M35 1616q0 35 55 35q25 0 76 -6q47 16 119 18q74 2 102 12q35 -4 109 -10l36 -25q20 -18 21 -30q2 -162 -2 -170q0 -203 -2 -213q-10 -16 -10 -27q0 -2 6 -24.5t4 -35t-2 -40.5q0 -82 45 -82q18 0 41 12q20 -2 61 -10q45 -9 45 -29q0 -27 -22.5 -58.5t-44.5 -31.5 q-33 0 -146 -6q-113 -4 -147 -2q-211 8 -277 0q-25 29 -24 49q0 63 172 64q20 8 18 22l-4 29q10 14 35 112q4 25 -2 58q-10 51 -10 57q-2 88 14 207q6 41 -18 68q-8 8 -23 8q-18 0 -65.5 -18.5t-59.5 -18.5q-18 -2 -50 24.5t-42 28.5q-8 16 -8 33zM217 18q0 25 12 52 q10 20 52 67q49 51 65 74l772 1194q76 113 111 139q16 12 24 12t7 -38q-4 -52 2 -64q-8 -49 -72 -137l-397 -559q-197 -283 -297 -477q-45 -59 -99 -142q-4 -4 -6 -61q-4 -41 -40 -80t-77 -39q-57 0 -57 59zM772 63q0 35 154 107q211 94 284 141q154 102 154 215q0 20 -2 31 q-55 72 -72 88q-45 47 -98 49q-57 6 -162 -18q-127 -31 -127 -78q0 -23 33 -47q8 2 27 2q41 0 69.5 -27.5t28.5 -64.5q0 -63 -76 -78q-37 -4 -53 -4q-68 0 -107 41t-39 104q0 258 402 258q139 0 244 -32q119 -37 161 -101q31 -45 31 -94q0 -121 -190 -242l-197 -106 q-4 -10 4 -16.5t27.5 -9.5t50.5 -3q66 0 117 15q63 14 71 38q20 68 54 91q88 -14 88 -66q0 -33 -39 -98l8 -41l-16 -90q-29 -18 -302 -17q-342 0 -337 0l-54 -6q-31 -4 -80 12q-57 18 -57 47z" />
<glyph unicode="&#x33;&#x2f;&#x34;" horiz-adv-x="2318" d="M33 1337q0 8 11 47t7 50q-12 41 -12 71q0 88 82 115q10 4 35 -6l24 -8q16 0 99 6q66 4 100 -2q37 10 127 6q37 0 72 2q37 2 81 2q111 0 154 -25q6 -27 -43 -61l-74 -45q-27 -18 -63 -64q-47 -53 -62 -65q-16 -14 -82 -45q-59 -29 -75 -53q23 -8 110 -11q115 -6 181 -39 q2 0 19 -6t22.5 -8t19.5 -8t19.5 -10t14.5 -10.5t14 -14.5t9 -16q4 -16 25 -60q30 -45 14 -121q-12 -59 -16 -88q-8 -100 -113 -184q-100 -80 -237 -92q-45 -18 -111 -19q-168 0 -276 74q-57 43 -58 105q0 70 74 96q14 6 47 2q88 -14 92 -94q2 -70 60 -92q31 -14 73 -15 q96 0 154 58q16 16 72 88q51 70 49 82q-6 109 -80 227q-14 25 -115 70q-39 4 -104 0q-14 -4 -123 -72q-96 -66 -125 -55q-39 12 -39 32q0 23 53 58l70 41q6 4 102 75q82 61 95 74q35 39 96 92q47 29 43 47l-17 9q-74 -4 -141 -15q-12 2 -39 4h-153q-37 -16 -37 -55 q-2 -47 -2 -72q-12 -45 -88 -57q-35 23 -35 55zM403 18q0 20 11 52q12 23 53 67q49 55 63 74q199 305 773 1194q76 113 110 139q18 12 25 12q10 0 8 -38q-2 -50 0 -64q-8 -47 -70 -137l-397 -559q-197 -279 -299 -477q-49 -68 -96 -142q-2 -2 -9 -61q-2 -41 -38.5 -80 t-77.5 -39q-55 0 -56 59zM829 340q0 27 15 47q23 43 84 139l250 314q197 250 215 301q23 66 110 65q27 0 45 -12q8 -14 8 -33q0 -43 -81 -106q-78 -63 -76 -107q-27 -23 -90 -121q-10 -16 -53.5 -53t-51.5 -47q-70 -106 -192 -260q0 -29 -31 -63.5t-31 -38.5q0 -8 23 -19 q23 4 192 0q121 0 189 12q68 14 67 113q0 27 -10 104q-8 63 -8 105q0 135 129 121q47 -4 115 -23q18 -8 18 -59q0 -35 -12 -123q-10 -98 -11 -131q0 -59 19 -86q63 -18 104 -6q10 14 11 39q0 23 -9 63q-6 47 -6 70q0 66 58 65q14 0 24 -2q43 -35 47 -129v-145q12 -14 13 -37 q0 -53 -54 -53q-20 0 -69 22q-47 25 -68 25q-51 0 -51 -78q0 -92 35 -121q14 0 59 5t57 5q54 1 93 -34q-6 -49 -52 -64q-420 12 -581 -6q-57 -8 -101 14q-25 14 -24 33q0 25 33 45q72 2 200 23q-2 70 11 112q12 37 -123 47q-90 6 -260 0q-147 -4 -150 -2q-29 29 -29 70z" />
<glyph unicode="AE" horiz-adv-x="2353" d="M-150 8q0 23 9 49q27 8 94 4t96 0q33 25 90 52q49 49 191 262q158 233 219 319q55 72 207 297q160 236 180 271q8 29 27 65l59 84q-10 72 -14 86q-16 43 -56 62q-2 2 -55 -5q-63 -6 -96 -6q-66 0 -66 21q0 18 33 45q33 6 98 2q84 -6 99 -6q33 2 331 -2q449 -6 590 6 q66 6 76 -47l8 -101q0 -2 29 -94q18 -57 18 -96q0 -35 -12 -62q-18 -4 -27 11q-6 29 -24 82q-12 25 -60 79q-41 51 -57 82q-29 53 -59 68q-20 8 -86 12q-289 14 -328 0q-18 -6 -18 -37q-2 -27 10 -43q-10 -106 -10 -542q0 -61 59 -58q33 -2 186 9q35 25 49 122q8 94 15 142 q16 18 24 18q31 0 31 -143q0 -61 -6 -162q-6 -94 -4 -100v-9q2 -8 5 -27.5t5 -39.5q10 -68 10 -98q0 -70 -26 -88l-29 10q-14 33 -18 106q-4 76 -15 101q-20 49 -92 77q-68 27 -115 27q-96 0 -96 -162q0 -6 4 -108q4 -111 4 -129q-2 -6 -12 -152q-6 -147 -4 -156l72 -28 l348 -4q102 0 166 106q20 33 86 195q41 102 82 98q16 -23 6 -102q-2 -33 -5 -68t-4 -49t-1 -18q0 -47 16 -70q-2 -27 -2 -84q-2 -41 -9.5 -59.5t-14.5 -20.5t-23 -4q-14 -2 -39 0q-18 2 -33 2q-164 6 -438 4q-49 0 -105 -2q-2 -2 -55 -2q-49 -4 -55 0q-49 12 -129 12 q-72 0 -242 -16l-221 -19q-55 -12 -55 43q0 37 73 41q10 12 189 17q10 -8 49 12q43 20 49 37q23 72 23 223q0 70 -9 86q10 31 11 51q0 109 -142 109q-16 0 -63 -9t-60 -9q-4 0 -54 8t-79 4q-6 6 -18 6q-61 0 -80 -53q-53 -35 -123 -144l-108 -163q-31 -45 -109 -148 q10 -23 41 -29q35 -4 70 -2q12 0 23 1t18.5 1t12.5 1t7 1h2q8 6 19 7q29 0 28 -41q0 -35 -35 -41q-18 -2 -63 6q-47 8 -70 8q-25 0 -39 -8q-20 4 -45 4q-43 0 -114.5 -8t-106.5 -8q-12 0 -43 -3.5t-35 -3.5q-35 0 -35 35zM647 653l170 -6q156 -6 180 6l29 15q19 20 21 118 l6 422q-4 25 -15 25q-4 -2 -8 -5t-6 -3q-2 8 -2 24l-90 -119q-57 -74 -47 -114q-23 -8 -72 -41q-35 -33 -92 -141q-72 -123 -74 -181z" />
<glyph unicode="ae" horiz-adv-x="1585" d="M-8 248q0 49 12 123q23 109 150 147q68 12 243 39q141 25 172 94l13 41q2 6 2 21v94q0 61 -9 80q-25 90 -122 90q-55 0 -90 -35t-41 -96l-13 -105q-25 -68 -90 -67q-57 0 -115 47q-53 49 -53 108q0 82 111 144q98 53 186 51q47 29 115 31q43 2 137 -37t137 -80 q45 18 117 55q63 49 160 49q104 0 215 -51q47 -23 104 -139q61 -119 62 -207q0 -63 -41 -86q-14 -6 -150 -10h-151q-168 0 -213 -12q-20 -6 -33 -31l-4 -135q18 -106 74 -189q57 -94 131 -100q49 -14 59 -16q45 -8 121 61q63 57 94 113l29 77q25 59 51 60q49 0 49 -78 q0 -57 -41 -143q-35 -74 -72 -107q-37 -6 -104 -51q-55 -39 -147 -35q-90 4 -164 33q-49 4 -66 0q-39 20 -88 74q-57 66 -80 116q-31 -16 -94 -77q-66 -64 -76 -66q-98 -47 -198 -47q-111 0 -193 51q-96 61 -96 201zM221 362q-4 -18 2 -38q10 -35 10 -37q2 -53 35 -105 q33 -57 82 -69q27 -8 76 0q53 10 68 26q51 53 63 123l8 133q-10 66 -10 117q-16 12 -31 8q-59 -20 -131 -41q-4 -2 -55 2q-39 2 -53 -6q-43 -37 -64 -113zM815 737q0 -8 3 -30.5t3 -26.5v-10q0 -61 27 -68q35 -8 117 -8q157 0 186 43q16 23 16 61q0 80 -51 156 q-53 84 -121 84q-66 0 -123 -68q-57 -63 -57 -133z" />
<glyph unicode="OE" horiz-adv-x="2197" d="M33 735q-2 0 0 27l4 98q16 289 299 606q29 2 100 52q70 47 111 59l98 35q98 23 191 -4h6q55 0 280 -4q238 -4 254 -5q178 0 328 15q66 6 76 -47l8 -101q0 -2 29 -94q18 -57 18 -96q0 -31 -10 -62q-20 -4 -29 11q-6 29 -24 82q-18 31 -58 79q-47 57 -59 82q-29 53 -58 68 q-20 8 -88 12q-233 12 -268 -2q-18 -6 -18 -37q0 -27 10 -43q-10 -106 -10 -542q0 -61 59 -58q8 0 127 11q37 25 49 122q6 47 15 142q14 18 24 18q33 0 33 -143q0 -72 -8 -162q0 -27 -1 -51.5t-2 -35.5t-1 -13l2 -9q0 -8 3 -27.5t5 -39.5q10 -68 10 -98q0 -70 -27 -88 l-28 10q-12 29 -17 106q-4 76 -16 103q-20 51 -90 75q-41 12 -68 13q-88 0 -88 -170q0 -8 10 -217q-2 -4 5 -142l10 -149l41 -45l289 -2q102 0 165 106q20 33 86 195q41 102 82 98q14 -20 9 -102q-12 -123 -13 -135q0 -47 17 -70q-2 -27 -2 -84q-2 -41 -9.5 -59.5 t-14.5 -20.5t-24 -4q-14 -2 -38 0q-18 2 -31 2q-168 6 -440 4q-211 -8 -312 -14q-29 -4 -162 -4q-120 -2 -163 2q-66 -2 -84 8q-49 -2 -119 17.5t-103 43.5q-6 4 -28 41q-20 29 -37 27q-12 18 -59 65q-49 43 -64 62l-2 4q-2 4 -7 11t-10.5 15.5t-14.5 24t-19 29.5 q-55 88 -60 98q-10 18 -39 166q-23 133 -30 135zM362 780q31 -338 52 -387q39 -78 78 -168q41 -104 174 -143q123 -23 180 -21q14 16 37 50q31 131 8 475q-6 76 8 190q14 127 14 191q0 31 -10 108q-10 82 -10 111q0 76 31 135q-16 29 -17 72q0 8 2 34.5t2 34.5q0 61 -43 86 q-49 6 -92 6q-113 0 -194 -41q-46 -20 -107 -73q-35 -70 -86 -273q4 -41 -4 -84q2 -70 -8 -278z" />
<glyph unicode="oe" horiz-adv-x="1787" d="M-2 563q0 90 47 144q-12 88 145.5 221t268.5 127q150 -8 231 -54q72 -35 131 -120q27 37 66 73q6 18 59 41q63 27 72 33q61 49 158 49q106 0 217 -51q47 -23 104 -139q59 -123 59 -207q0 -66 -38 -86q-20 -10 -152 -10h-149q-168 0 -213 -13q-31 -10 -39 -49l-7 -43 q-2 -104 60 -225q68 -127 153 -137q27 -8 60 -17q45 -8 121 62q63 57 94 112l29 76q25 61 51 62q49 0 49 -78q0 -59 -43 -144q-35 -73 -72 -106q-35 -6 -102 -51q-55 -39 -150 -35q-238 10 -374 192l-29 -47q-45 -41 -82 -63q-76 -45 -86 -53q-23 0 -82 -17q-55 -16 -82 -16 q-14 0 -57 9t-54 9q-18 10 -86 33q-61 20 -81 45q-82 98 -121 148q-49 61 -64 122q-14 66 -12 203zM221 524l12 -41l35 -211q27 -113 105 -178q8 -8 49 -24q37 -12 53 -9q119 33 168 115q21 31 78 197l8 90q18 45 19 80q0 14 -10.5 51t-10.5 49q0 6 4 27l-33 73q2 6 2 23 q0 41 -47 113q-39 59 -84 90q-16 12 -65 8l-68 -6q-84 -4 -139 -90q-53 -84 -53 -181q0 -14 4 -43q2 -14 -10 -45l-17 -45q-6 -18 0 -43zM977 772q0 -6 3 -28.5t3 -30.5v-11q0 -59 29 -65q20 -4 41 -4q86 0 170 20q105 21 123 54q12 18 12 47q0 72 -61.5 145.5t-133.5 73.5 q-70 0 -127 -68q-59 -66 -59 -133z" />
<glyph unicode="&#xfb01;" horiz-adv-x="1302" d="M-10 43q0 55 51 55q4 0 24.5 -2t26.5 -2q39 0 47 58q12 29 33 110q2 12 -6 60.5t-4 64.5q18 80 -4 281q4 45 4 108q0 6 -11.5 34t-11.5 38q0 12 6 24q16 39 17 58q0 29 -39 28q-12 0 -23 -2h-26q-66 0 -68 62q18 20 60 20q53 4 65 9q31 16 37 77l6 99q14 37 53 168 q23 92 127 174q111 84 199 75q45 16 98 17q172 0 312 -115l41 -74q25 -49 18 -82q-23 -117 -170 -100q-6 0 -47 41q-55 57 -55 82q0 18 8 51q6 33 4 49q-4 53 -92 72q-35 8 -68 8q-66 0 -104 -39q-31 -25 -72 -104q-4 -106 -10 -162q-12 -63 -13 -121q0 -92 35 -114 q14 -8 131 -2q39 -20 58 0q23 -10 356 -15q41 0 45 -2q14 -6 27 -41q2 -10 0 -43q-6 -39 -6 -59q0 -27 6 -47q23 -61 0 -178q-4 -25 6 -66q12 -49 12 -68q0 -16 -6 -32q-18 -47 -18 -66q0 -2 7 -20.5t7 -34.5v-170l10 -12q-4 -29 -4 -37q0 -63 45 -66q61 -6 68 -12 q14 -14 14 -29q0 -43 -88 -43q-15 0 -21 2q-33 -4 -53 -4q-18 0 -81.5 4t-80 4t-66.5 -7t-65 -7q-98 0 -98 55q0 16 8 33q57 0 137 20q25 20 27 60q6 106 4 235l-4 234q14 27 14 45q0 109 -4 145q-8 106 -47 127q-10 4 -71 9q-223 2 -261 -11q-31 -12 -32 -125 q0 -49 -8 -221q-8 -162 -9 -285q0 -160 17 -221q2 -12 35 -28q31 -12 40 -31q8 -16 -2 -39q-25 -8 -77 -2q-41 4 -64.5 3t-40 -1t-26.5 4q-37 14 -43 14q-20 4 -29 5q-25 0 -80 -16.5t-80 -16.5q-10 0 -31 4q-27 8 -26 49z" />
<glyph unicode="&#xfb02;" horiz-adv-x="1339" d="M-18 31q0 57 51 57q6 0 25.5 -2t25.5 -2q41 0 49 57l33 113q0 10 -7 60.5t-3 66.5q16 82 -6 283l6 110q0 8 -11.5 36t-11.5 36q0 12 6 24q16 43 17 60q0 29 -39 28h-25q-10 -2 -24 -2q-68 0 -70 64q18 18 63 18q53 4 64 11q31 12 37 79l6 99q6 18 51 170q23 96 127 176 q106 84 201 76q49 18 86 18q53 0 160 -57q16 0 116 14q33 4 62.5 8t42.5 6l12 2q6 -16 10 -208q2 -184 -8 -222q-2 -14 6 -108q4 -41 15 -113q2 -4 -2 -41q-4 -57 -5 -63q0 -25 7 -45q14 -43 8 -105q-12 -88 -13 -100q0 -2 4.5 -24.5t7.5 -55.5t3 -63q-41 -41 -41 -52 l10 -18q35 -94 37 -240q-10 -25 -10 -37q0 -31 49 -47q61 -20 72 -30q16 -16 16 -33q0 -20 -23 -25q-43 -2 -157 -10l-234 -8q-18 -6 -43 -6q-100 0 -100 57q0 12 10 33l109 4q35 18 44 32.5t9 55.5q0 18 6 170q8 129 8 217q0 68 -6 92q-6 178 -2 227q-14 63 -41 78 q-10 8 -72 9q-223 2 -260 -11q-33 -8 -32 -125q-2 -14 -9 -225q-8 -162 -8 -287q0 -164 17 -225q2 -12 34 -29q33 -12 41 -32q8 -14 -4 -37q-20 -8 -78 -4q-41 4 -84 3t-47 3q-39 14 -41 16q-10 2 -30 2q-31 0 -80 -14q-55 -16 -78 -16q-12 0 -33 4q-27 6 -26 47zM397 1167 q0 -94 35 -116q10 -8 129 -4q39 -18 57 2q27 -12 177 -15q20 49 20 70q0 2 -4 12t-9 29.5t-5 42.5q4 102 4 143q-14 14 -21 55q-6 43 -6 46q-25 63 -33 77q-27 51 -77 80q-35 8 -70 8q-63 0 -102 -38q-33 -27 -74 -107q-6 -111 -10 -164q-10 -72 -11 -121z" />
<glyph unicode="&#xfb03;" horiz-adv-x="2023" d="M0 1014q4 18 39 18q8 0 49 -4t53 -4q47 0 58 29q4 12 -2 96q-4 35 10 88l20 88l90 191q43 70 129 88q14 10 58 34q43 14 108 15q190 0 322 -90q4 -2 18 -33q12 -29 31 -29q29 0 104 84q49 55 87 64q98 29 167 28q51 0 111 -12l195 -51q14 -4 28 -23l25 -30 q76 -68 76 -154q0 -20 -7 -45q-6 -23 -65 -41q-61 -16 -115 -16q-51 0 -67 14q-29 23 -29 59l16 88q2 8 -24 31l-35 27q-55 57 -123 57q-41 0 -94 -18q-8 -2 -55 -62q-47 -59 -66 -135q-4 -6 -25 -149q-2 -12 3 -25l8 -25q2 -14 -6.5 -35.5t-8.5 -25.5q0 -12 2 -19 q35 -49 60 -53q16 -2 32.5 1t26.5 7.5t13 4.5q29 -12 45 -17q51 -12 337 4q2 0 8.5 1t18.5 2t23 1q45 4 53 4q76 0 96 -51q4 -10 -2 -37l-10 -39q-12 -82 -6 -229q2 -55 5 -118.5t4 -89t1 -34.5q0 -102 -14 -159q-4 -12 12 -54q14 -37 14 -59q-2 -72 19.5 -97.5t87.5 -17.5 q12 1 28 -22l21 -33q-20 -25 -70 -25q-16 0 -65 7q-41 4 -60 0q-33 -4 -147 -4q-127 -4 -137 6q-6 -8 -15 -9q-12 0 -21 21.5t-5 36.5l61 8q31 6 43 27q14 20 21 266l4 293q-10 63 -21 205q0 10 19.5 41.5t19.5 39.5q0 53 -221 54q-209 0 -293 -31q-4 -20 -4 -29 q0 -23 12 -63q4 -14 8.5 -29.5t6.5 -24t2 -10.5q4 -23 0 -108q-6 -88 -15 -107q10 -27 19 -69q-4 -358 22 -404q16 -12 72 -35q51 -20 51 -47q-16 -23 -209 -22q-205 0 -336 14l-2 16q-2 12 -2 19q-4 23 11 33q57 -4 100 8q63 14 63 63l4 324q-14 66 -20 197l18 88 q12 55 13 92q0 76 -36 99.5t-110 14.5q-145 -20 -270 -8q-35 2 -52.5 -18.5t-17.5 -63.5q0 -25 7 -82q6 -59 6 -90q0 -49 -21 -98l-18 -45q0 -6 9 -19.5t19 -23.5l9 -10q4 -8 14 -168q10 -184 14 -215q4 -20 60 -35q59 -16 59 -32.5t-29 -41.5q-193 -33 -508 -8 q-16 33 -16 47q0 29 72 35q74 10 76 49q4 4 41 16q14 6 21 12.5t5 12.5q-31 104 -31 248q0 59 7 178q8 106 8 180q0 61 -6 113q-2 49 -62 59q-31 2 -96 11q-49 6 -39 53zM381 1118q0 -61 41 -96q10 2 117 -2q74 -4 116 12h131q18 -8 39 -8q45 0 56 66l6 106q0 6 4 35 q2 14 -19 49q-6 10 -39.5 25.5t-35.5 17.5q-23 23 -72 107q-6 14 -20 73q-16 53 -37 53q-82 4 -93 0q-47 -8 -63 -55q-72 -66 -96 -115q-18 -39 -23 -139q0 -14 -6 -65.5t-6 -63.5z" />
<glyph unicode="&#xfb04;" horiz-adv-x="2078" d="M0 1014q4 18 39 18q8 0 49 -4t53 -4q47 0 58 29q2 4 -2 96q-6 74 30 176q39 113 78 170q55 84 141 109q14 10 58 34q37 14 102 15q92 0 185 -27q100 -29 143 -63q2 -2 17.5 -32t29.5 -30q35 0 106 84q45 51 87 64q90 29 167 28q51 0 111 -12q41 -14 121 -31l168 6 q20 8 63 0q10 -37 11 -86q0 -41 -17 -159q-14 -100 -14 -160q0 -39 6 -68q8 -33 -18 -141q18 -14 26 -35q4 -10 -12 -76q-4 -27 -8 -127q-4 -123 6 -348q6 -281 18 -319q16 -41 80 -66q37 4 47 -10l29 -43q-23 -23 -162 -22q-98 0 -215 8l-137 8q-6 0 -11.5 1t-8.5 3t-7 7 t-6 8t-5 10.5t-5 10.5t-5 11t-3 10q104 6 116 11q53 23 54 127q0 66 -23 190q6 12 16 238q8 211 5 243q0 31 6 76q-51 27 -209 27q-201 0 -287 -31q-4 -20 -4 -29q0 -23 12 -63q4 -12 17 -64q10 -49 -15 -215q-2 -8 8.5 -36.5t10.5 -32.5l4 -213q6 -174 16 -189 q10 -10 74 -35q51 -20 51 -49q-23 -23 -207 -22q-203 0 -338 14v4q-2 2 -3 8.5t-1 10.5q-4 14 0 24q0 10 11 21q164 -12 163 71l4 324q0 33 -14 98q-12 66 -6 99l18 90q12 55 13 92q0 39 -13 69q-18 41 -170 41q-14 0 -133 -4q-90 -4 -100 -2q-33 2 -50.5 -23.5t-17.5 -78.5 q0 -12 2.5 -60.5t2.5 -64.5q0 -102 -31 -164q-6 -10 10 -33q16 -16 23 -26q10 -14 16 -176q6 -182 14 -207q4 -20 61.5 -34.5t57.5 -33.5q0 -16 -29 -41q-193 -33 -508 -8q-16 33 -16 47q0 29 72 35q74 10 76 49l4 2q6 2 16 6t21 8q14 6 21 12.5t5 12.5q-14 70 -29 182 q-4 96 5 209q8 139 8 211q0 63 -6 119q-4 49 -62 57q-33 2 -98 11q-47 6 -37 53zM381 1118q0 -61 41 -96q10 2 117 -2q74 -4 116 12h131q18 -8 39 -8q45 0 56 66l6 106q0 6 4 35q2 14 -19 49q-6 10 -39.5 25.5t-35.5 17.5q-23 23 -72 107q-6 14 -20 73q-16 53 -37 53 q-82 4 -93 0q-47 -8 -63 -55q-72 -66 -96 -115q-18 -39 -23 -139q0 -14 -6 -65.5t-6 -63.5zM1083 1104q0 -10 2 -17q35 -49 60 -53q16 -2 31.5 1t26.5 7.5t14 4.5q29 -12 45 -17q24 -6 282 2l-6 10q27 59 27 82q0 2 -4.5 14.5t-9.5 32t-5 41.5q0 27 2 48v49q8 61 -3 108 t-36 49q2 6 -32 39l-47 37q-41 -2 -64 35q-25 6 -47 6q-106 0 -170 -125q-57 -102 -57 -233q0 -31 6 -58q2 -12 -6.5 -34.5t-8.5 -28.5z" />
<glyph horiz-adv-x="0" />
<glyph unicode="&#xd;" horiz-adv-x="681" />
<glyph horiz-adv-x="1193" d="M-33 1044q0 43 90 43q6 0 76 -4q12 0 29.5 -1t26 -2t14.5 -1q43 0 51 15l25 -11h118q4 0 25.5 4.5t30.5 4.5q35 0 34 -39q0 -20 -43 -37q-59 -23 -82 -60q-12 -106 -8 -315q6 -283 4 -319v-37l-2 -56q-2 6 -2 23q0 -37 21 -64q82 -100 217 -100q66 0 125 27 q150 63 147 180q-2 113 -2 340q-2 221 -22 330q0 4 -1 9t-2 8t-1 5q-6 14 -17 14q-20 -2 -74 0q-49 14 -49 52q0 47 62 47q258 0 293 -13q30 -47 26 -67q-16 -14 -67 -16q-49 -2 -66 -27q0 2 -1 -17.5t-4 -66.5t-5 -107q8 -41 10 -106q0 -74 2 -158q4 -156 2 -196 q-2 -98 -22 -148q-31 -37 -66 -92q-55 -43 -131 -66q-25 -8 -145 -28q-4 10 -47 10h-48q-23 -2 -51 -2q-102 0 -147 27q-63 37 -113 106q-57 76 -61 139q2 133 0 394q4 109 0 327l-21 17q-6 -8 -30 -9q-10 0 -31 1.5t-38 2.5t-20 1q-10 25 -10 38zM350 1591q0 6 6 15 q4 6 37 20t41 27q72 -25 176 -54q29 -20 39 -137l17 -192q10 -47 -37 -78q-23 16 -49 51q-61 84 -209 299q-20 29 -21 49z" />
<glyph unicode=" "  horiz-adv-x="1083" />
<glyph unicode="&#x09;" horiz-adv-x="1083" />
<glyph unicode="&#xa0;" horiz-adv-x="1083" />
<glyph unicode="!" horiz-adv-x="548" d="M88 106q0 98 100 99q23 0 60 -10q68 -18 67 -80q0 -45 -36.5 -81t-83.5 -36q-23 0 -54 10q-53 25 -53 98zM123 1364q0 37 4 106q4 33 25 80q31 57 100 58q117 0 117 -178q0 -37 -7 -99q0 -16 -1 -34.5t-2 -29t-1 -16.5q-4 -127 -26 -342q-29 -256 -53 -329 q-9 -29 -70 -33q-47 23 -47 57q0 4 2 28.5t2 35.5q2 119 -19 346q-25 244 -24 350z" />
<glyph unicode="&#x22;" horiz-adv-x="921" d="M27 1544q0 12 4 17q6 27 24 53q84 18 123 18q40 0 60 -14q37 4 60.5 -18.5t23.5 -55.5q0 -37 -27 -55q-6 -102 -10 -135q-12 -41 -45 -180q6 -31 -4 -80q-2 -12 -20.5 -12.5t-29.5 10.5q-31 41 -96 217q-63 172 -63 235zM440 1511q0 33 9 41q8 18 32 47q78 10 99 11 q62 -1 82 -21q74 4 73 -67q0 -47 -37 -66l-30 -133l-70 -174q0 -29 -16 -78q-4 -10 -23 -10q-18 2 -27 14q-25 47 -57 199q-35 164 -35 237z" />
<glyph unicode="#" horiz-adv-x="1650" d="M-25 776q0 61 97 80q23 4 84 -6q78 -12 92 -12q14 -2 92 0l72 307q-27 0 -78 -6q-49 -10 -170 6q-66 10 -66 61q0 57 97 80q23 4 84 -6l92 -14q33 0 69 2l43 178q55 213 113 213q16 0 68 -45q2 -18 -25 -119l-61 -223l296 12l39 160l25 88q39 123 88 123q18 0 66 -45 q2 -16 -25 -117l-55 -203q27 0 54.5 1t41.5 2t20 1q137 0 172 -14q25 -12 25 -31q0 -16 -68 -88q-18 -6 -118 -6l-164 -2l-78 -293q25 0 50.5 1t38.5 2t20 1q131 2 172 -14q25 -12 24.5 -30.5t-67.5 -86.5q-16 -8 -119 -8l-154 -2q-23 -115 -59 -203q-35 -84 -98 -84 q-49 0 -43 76q2 20 30 86q39 94 39 96q8 23 8 27l-307 -2q-18 -100 -55 -191q-37 -88 -101 -88q-49 0 -43 76q0 16 29 84l41 98l6 19q-35 0 -98 -6q-47 -12 -170 4q-66 10 -66 61zM463 842l309 14q35 133 72 295l-299 -2z" />
<glyph unicode="$" horiz-adv-x="1388" d="M-4 303q0 258 27 326q20 18 38 18q33 0 43 -84l7 -114q14 -121 114 -228q102 -102 224 -127q0 39 -1.5 123t-2.5 240.5t-1 296.5l-139 49q-63 27 -94 53l-27 8q-129 156 -129 334q0 166 109 287q113 123 272 131l17 35q20 57 57 57q23 0 43 -18q12 -35 6 -86 q43 -12 98 -33q29 -12 54 -12q10 0 61 10q37 6 57 -2q51 -18 52 -78q0 -10 -3.5 -44t-3.5 -42q0 -4 1.5 -18.5t2.5 -44t1 -58.5q4 -82 -2 -121q-31 -43 -60 -39q-27 49 -55.5 151.5t-52.5 141.5q-43 76 -129 121q-10 -20 -25 -35v-483q135 -37 180 -55q96 -39 156 -111 q6 -27 27 -55q25 -39 30 -52q37 -86 37 -184q0 -172 -100 -317q-98 -145 -246 -193l-66 -22q0 2 -2 -2q-2 -2 -2 -4q-4 -4 -22 -64q-29 -78 -72 -78q-37 0 -51 70l2 6q0 6 1 20.5t1 28.5t-92 29q-152 102 -213 102q-12 0 -19 -6q-10 6 -36 -18l-35 -31q-37 12 -37 221z M238 1292q0 -35 8 -61q4 -20 49 -72q49 -55 57 -76q39 -29 66 -28q16 0 26 10l-6 487q-82 -20 -141 -95t-59 -165zM553 127q6 2 26.5 -7t24.5 -9q6 0 10 4q102 49 140 110q35 53 34 144q0 51 -8 127q-2 23 -12 45t-17.5 32.5t-29 36t-25.5 29.5q-49 37 -141 74z" />
<glyph unicode="%" horiz-adv-x="1554" d="M-12 1257q0 47 12 109q8 39 49 86q57 63 66 76q23 6 75 41q72 45 146 45q53 0 158 -33q205 -63 202 -364q-4 -102 -155 -228q-20 -14 -66 -33q-44 -18 -67 -18q-31 -10 -60 -10q-41 0 -108 22q-33 -4 -70 29q-55 43 -68 47q-115 98 -114 231zM29 37q0 18 10 49 q10 25 53 68q49 55 64 73q35 51 772 1196q4 4 16 24.5t17.5 28t17.5 24t20.5 25.5t18.5 19.5t20 16.5q18 12 25 12q10 0 8 -39q-4 -47 0 -64q-8 -45 -70 -135l-397 -559q-199 -281 -299 -479q-39 -49 -98 -139q0 -2 -6 -62q-2 -41 -39 -80t-78 -39q-55 0 -55 60zM166 1268 q0 -39 10 -86q4 -45 10 -70q51 -106 174 -106q45 0 97 79q53 82 53 175q0 32 -10 73q6 72 -45 135q-49 66 -119 66q-49 0 -92 -28.5t-51 -69.5q-27 -121 -27 -168zM502 330q0 47 12 108q6 39 47 86q57 63 66 76q20 6 78 41q72 45 143 45q55 0 160 -33q207 -66 200 -364 q0 -102 -155 -226q-20 -16 -66 -34q-47 -19 -65 -17q-29 -12 -62 -12q-39 0 -106 23q-35 -4 -72 28q-57 43 -66 47q-115 98 -114 232zM678 340q0 -39 10 -86q2 -25 12 -70q51 -106 174 -106q43 0 95 80q53 82 53 174q0 33 -10 74q6 72 -45 135q-49 66 -119 65 q-47 0 -90 -28.5t-53 -69.5q-27 -121 -27 -168z" />
<glyph unicode="&#x26;" horiz-adv-x="2115" d="M14 502q47 150 76 221q31 70 98 139q29 27 105 68q68 33 100 57q-45 70 -96 121q-39 39 -51 78q-20 27 -27 88q-2 29 -5 52.5t-5 33.5v10q0 49 59 184q49 39 156 82q18 8 57 9q51 0 123 -15l66 -14q23 12 28 12q4 0 4 -6q0 -4 -2 -10v-15q0 -29 41 -34q70 -8 70 -33v-14 q0 -35 35 -76q12 -23 24 -78q0 -8 4 -49q8 -55 -63 -148q-70 -88 -123 -86q-12 -14 -12 -32q0 -47 51 -60q0 -27 158 -184q86 -78 219 -209l41 61q25 41 24 68q8 18 10.5 57t4.5 47q35 35 35 88q0 20 -3.5 31.5t-21.5 22t-53 10.5q-10 0 -55.5 -4t-55.5 -2q-18 20 -18 41 q0 35 55 35q213 -4 442 -21q31 -12 31 -34.5t-37 -32.5q-20 -12 -84 -5q-66 10 -88 -6q-35 -20 -45 -84l-12 -98q-27 -94 -103 -274q156 -172 371 -332q49 -37 86 -37q31 0 68 31q39 33 59 32q25 0 47 -20l-20 -53q-78 -70 -172 -99q-59 -8 -82 -14q-53 0 -122 32t-112 75 q-20 33 -80 69q-66 41 -67 41q-27 51 -55.5 51t-71.5 -53q-65 -82 -96 -123q-14 -14 -133 -57q-61 -43 -199 -31q-35 2 -121 8q-74 4 -180 43q-131 45 -199 131q-82 109 -78 314zM260 557q0 -78 6 -129q10 -88 23 -133q20 -92 117 -152q94 -57 215 -57q127 0 227 64 q113 74 168 210q-72 81 -172 183q-25 -8 -41 -8q-29 0 -29 26q0 6 2 16.5t4 18.5l2 8q-20 8 -51 25q-10 18 -45 53q-23 41 -86 84l-113 131l-8 2q-6 2 -15 4t-15 2q-23 4 -44.5 -12t-45 -43t-35.5 -35q-63 -37 -64 -258zM410 1401q0 -29 12 -55q29 -59 37 -89q23 -10 65 -77 q37 -61 58 -62q16 0 32 29q74 12 111 29q60 29 72 90q8 41 8 73q0 35 -31 115q-127 113 -223 113q-98 0 -139 -115q-2 -23 -2 -51z" />
<glyph unicode="'" horiz-adv-x="555" d="M12 1442q0 70 51 129q53 61 115 67q84 10 156 -88q57 -76 84 -172q4 -16 4 -28q0 -94 -80 -242q-25 -37 -70 -86q-59 -63 -73 -84q-20 -33 -62 -33q-61 0 -61 51q0 25 20 48q66 25 115 119t49 175q0 90 -53 91q-20 0 -66 -27q-47 -25 -59 -25q-6 0 -14 4q-55 33 -56 101z " />
<glyph unicode="(" horiz-adv-x="868" d="M14 416q-2 14 6.5 53t8.5 49q-2 131 26 328q6 51 51 131q66 121 68 129q33 74 119 190q90 123 123 189q18 14 73 82q47 55 86 61q45 6 46 -20q0 -35 -89 -142q-53 -66 -126 -198q-2 -33 -27 -94q-14 -31 -39 -93q-16 -18 -45 -73q-25 -72 -35 -174q-8 -111 -14 -166 l-19 -111q-12 -61 -12 -104q0 -33 6 -66q-2 -6 10 -98q4 -25 8.5 -49.5t6.5 -37t2 -14.5l141 -391q90 -221 229 -342q35 -29 35 -53q0 -31 -41 -31q-25 0 -43 13q-145 102 -264 358q-14 8 -43 55q-23 43 -39 60q-72 74 -100 174q-8 35 -55 123q-39 74 -45 129q0 53 -9 133z " />
<glyph unicode=")" horiz-adv-x="868" d="M-20 1575q0 33 45 33q25 0 38 -15q54 -57 199 -233q14 -8 74 -119q57 -106 74 -123q72 -76 100 -174q10 -35 55 -123q39 -74 45 -129q8 -115 11 -135q6 -59 10 -172q4 -66 -19 -127q-20 -63 -34 -127q-6 -51 -52 -131q-63 -119 -67 -129q-31 -74 -119 -193 q-94 -129 -123 -188q-12 -8 -74 -82q-47 -53 -86 -59q-45 -8 -45 20q0 33 88 139q61 74 129 201q4 39 27 94l39 91q18 31 43 75q25 72 35 174q8 104 14 164l19 111q12 66 12 106q0 29 -6 64q2 8 -11 100q-12 88 -16 100l-141 392q-88 217 -230 340q-35 31 -34 55z" />
<glyph unicode="*" horiz-adv-x="1251" d="M68 967q0 20 34 39l68 34l164 21q49 8 70.5 22.5t17.5 34.5l-193 49q-106 33 -147 113q-2 12 -2 35q0 106 104 139q20 39 62 39q31 0 52 -20.5t21 -51.5q43 -53 121 -121l66 -55q14 2 14 18.5t-41 121t-41 159.5q0 43 19 70q47 35 131 35q61 0 84 -21q74 6 73 -67 q0 -41 -34 -64q-16 -84 -29 -133l-29 -117l27 -26l8 -7q4 0 14 35q8 39 27 68q6 6 80 127l43 33q29 23 51 22q18 0 35 -10q47 -13 121 -148q-23 -84 -109 -129q-31 -16 -157 -53q-88 -23 -97 -49q18 -4 103 -37q59 -20 127 -20q39 0 61 2q12 6 23 6q27 0 44 -24.5t17 -57.5 t-18 -59q2 -12 2 -33q0 -88 -117 -129q-66 2 -156 119q-88 117 -106 116q-8 0 -19 -10q10 -35 19 -94q12 -74 16 -88q31 -18 31 -64q0 -39 -23.5 -68.5t-58.5 -27.5q-33 -23 -80 -23q-70 0 -98 50q-14 23 -14 61q0 43 28 129q29 90 29 109q0 29 -23 34l-129 -159 q-84 -90 -168 -92q-53 -12 -84 65q-27 63 -20 119q-14 16 -14 33z" />
<glyph unicode="+" horiz-adv-x="1574" d="M4 526q0 45 72 58q25 4 78 -4l90 -15q29 -4 250 6l-11 316v80q4 113 52 112q14 0 73 -43q6 -14 6 -106v-355l320 9h82q112 -4 112 -49q0 -14 -43 -72q-16 -6 -108 -6h-363v-164q0 -31 7 -90q10 -45 -9 -156q-10 -78 -69 -78q-45 0 -60 70q-2 20 6 78l15 88q4 29 -6 252 h-166q-33 0 -92 -6q-43 -8 -156 6q-80 12 -80 69z" />
<glyph unicode="," horiz-adv-x="663" d="M66 113q0 68 44 127t109 71q59 10 119 -47l90 -100l10 -39q23 -57 23 -123q0 -88 -35 -174q-12 -31 -139 -197q-98 -127 -174 -127q-14 0 -25 7q-18 12 -16 45q2 37 84 104q12 14 34.5 43t44 55.5t41.5 51.5q6 6 7 53q0 74 -28 109.5t-81 33.5q-109 -4 -108 107z" />
<glyph unicode="-" horiz-adv-x="901" d="M27 512q0 74 77 90q23 4 86 -6q78 -14 97 -14q37 -4 94 8q61 12 90 12h88q61 -6 92 -20.5t31 -53.5q0 -55 -45 -118q-31 -8 -117 -7h-137q-35 0 -98 -6q-49 -10 -172 9q-37 4 -61.5 36.5t-24.5 69.5z" />
<glyph unicode="." horiz-adv-x="665" d="M53 152q0 80 109 170l166 16q25 2 80 -49t55 -82q2 -113 -16.5 -152t-69.5 -45q-78 -8 -117 -10q-33 -4 -94 23t-80 49q-33 33 -33 80z" />
<glyph unicode="/" horiz-adv-x="1470" d="M152 -371q0 43 47 113l55 80l752 1640q53 121 90 154q14 14 22 14t12 -37q0 -45 11 -61q-2 -45 -51 -146q-578 -1120 -699 -1472q-47 -90 -78 -154l2 -67q0 -37 -26 -78q-33 -51 -82 -51q-55 0 -55 65z" />
<glyph unicode="0" horiz-adv-x="1435" d="M6 516q0 76 19 174q12 68 75 139q92 111 101 125q35 10 118 66q115 74 226 74q74 0 246 -54q319 -102 313 -591q-4 -88 -88 -203q-68 -94 -154 -166q-31 -25 -98 -55q-76 -31 -107 -29q-45 -16 -94 -16q-68 0 -168 34q-47 -4 -108 47q-76 66 -103 76q-178 160 -178 379z M244 518q0 -80 20 -156q4 -51 19 -126q92 -195 309 -195q39 0 96 57q43 41 76 92q92 143 92 312q0 71 -18 137q12 123 -78 244t-213 121q-86 0 -162 -52q-80 -53 -94 -129q-47 -229 -47 -305z" />
<glyph unicode="1" horiz-adv-x="1107" d="M2 979q0 51 55 51q18 0 76 -10q47 23 119 24q74 2 102 19q76 -10 109 -14q16 -18 35 -35q23 -27 22 -45q4 -229 -4 -242v-303q-12 -23 -12 -39q0 -4 7 -35t5 -49q-4 -37 -4 -57q0 -119 47 -119q18 0 41 18q4 0 14.5 -3t15.5 -4t14 -3t14.5 -4t13.5 -5t12 -6t10 -8.5 t8.5 -10.5t4.5 -11t2 -14q0 -66 -39 -66q-43 0 -160 -8q-90 -6 -160 -2q-33 0 -106 8q-59 8 -109 8q-37 0 -72 -6q-25 37 -24 62q0 41 84 41q12 0 49 -2.5t45 -2.5q20 12 19 33l-5 41q10 23 35 162q4 37 -4 82q-8 57 -8 82q-2 127 14 295q6 55 -18 96q-14 25 -43 29 q-10 0 -55 -6q-41 -4 -144 12q-6 27 -6 47z" />
<glyph unicode="2" horiz-adv-x="1249" d="M-12 74q2 12 39 39l49 34q23 25 86 82l157 78q27 14 97 84q68 70 78 101q10 23 28.5 64.5t24.5 55.5q29 76 28 129q0 23 -2 33q-51 96 -71 123q-51 76 -109 82q-102 12 -200.5 -37t-98.5 -121q0 -43 39 -82q20 4 29 4q37 0 62.5 -34.5t25.5 -77.5q0 -76 -68 -94 q-23 -8 -47 -9q-66 0 -102 60q-33 51 -33 137q0 162 94 255t279 93q41 0 84 -6q27 -6 51 -16q33 -10 57 -9q55 2 125 -49t94 -104q29 -68 29 -109q0 -6 -18 -106q-94 -203 -230 -305q-6 -6 -78 -37q-49 -23 -61 -60q-2 -6 -2 -20q0 -43 70 -43q10 0 55 4l43 6q82 6 108 39 q18 20 27 72q8 53 35 82q76 -14 76 -78q0 -23 -37 -131l6 -64q-6 -25 -16 -121q-8 -4 -62 -8q-55 0 -72 -8h-311q-2 0 -80 4q-49 4 -78 0q-41 -2 -82 -12q-37 -8 -84 16.5t-34 63.5z" />
<glyph unicode="3" horiz-adv-x="1325" d="M-14 1214q0 23 12 68q10 51 10 70q0 10 -7 62t-7 71q0 131 88 170q8 4 33.5 -10.5t32 -14.5t118.5 10q68 6 117 -4q49 12 154 11l86 4q86 4 102 4q127 0 168 -33q2 -27 -55 -78l-82 -67q-27 -27 -76 -103q-55 -86 -74 -108q-20 -23 -112 -86q-72 -51 -88 -99 q25 -20 153 -30q135 -10 209 -60q41 -16 106 -57q18 -18 27 -51q2 -6 47 -140q8 -25 8 -63q0 -41 -12 -115q-10 -51 -16 -112q-8 -154 -131 -285q-121 -127 -277 -145q-47 -33 -129 -33q-86 0 -178 34.5t-141 84.5q-66 66 -66 153q0 96 82 139q14 8 45 2q80 -23 94 -79 q2 -39 11 -117q12 -74 75 -107q43 -25 93 -24q119 0 194 100q25 33 86 148q66 125 64 143q-10 184 -97 379q-8 16 -19 30.5t-29.5 29t-29 21.5t-38 22.5t-33.5 19.5q-47 6 -131 0q-20 -8 -150 -121q-111 -96 -139 -86q-31 12 -31 37q0 29 60 82q72 55 77 59l123 125 q104 109 113 121q29 47 82 117q88 78 88 118q0 14 -2 21l-29 16q-90 -4 -172 -22l-43 6q-6 2 -188 2q-55 -31 -56 -111v-37q2 -16 3 -34q0 -98 -93 -119q-31 29 -30 71z" />
<glyph unicode="4" horiz-adv-x="1454" d="M4 416q0 27 12 49q23 37 45 100q29 82 39 101q23 23 52 65q2 23 24 70q33 35 160 280q123 236 147 305q39 57 84 164q6 29 39 54.5t64 25.5q18 0 35 -10q4 -25 4 -35q0 -55 -82 -145q-80 -90 -76 -154q-16 -20 -30.5 -44.5t-21.5 -39t-19.5 -45.5t-16.5 -41 q-6 -20 -51 -72q-43 -51 -54 -71l-92 -189q-51 -113 -102 -184q0 -55 -12 -72q-51 -59 -52 -82q0 -25 31 -43q10 -4 23 3l22 8q41 4 66 4q10 0 88 -4t88 -4q55 0 102 10q76 20 76 115q0 18 -6 79q-2 51 0 76q2 10 2 39q0 25 -6 86q-4 82 -4 92q0 109 51 148q6 6 61 -4 q68 -4 111 -31q20 -8 8 -158q-18 -219 -18 -268q0 -100 22 -141q76 -37 121 -9l12 25q6 10 0 31q-8 20 -10 30q-4 16 3 61.5t7 49.5q0 8 -7 40t-7 42q0 57 45 57q14 0 23 -2q35 -45 38 -184q0 -133 2 -201q10 -16 11 -41q0 -63 -39 -63q-16 0 -70 35q-51 35 -76 34 q-35 0 -55 -51q-2 -4 14 -121q0 -8 -6 -35.5t-6 -33.5q0 -47 41 -78q14 0 61.5 8t59.5 8q47 0 78 -41q-6 -47 -43 -67q-297 16 -314 18q-10 2 -34 2q-90 0 -232 -30q-37 -6 -74.5 10t-37.5 45q0 20 26 45q152 10 174 16q35 10 35 43q0 12 -2 27v33q0 41 12 84q4 25 4 32 q0 61 -86 62q-35 0 -98 -12q-72 -10 -78 -11q-23 -4 -78 6q-47 8 -77 9q-23 0 -39 -7l-49 -16q-14 0 -35 21q-27 47 -27 92z" />
<glyph unicode="5" horiz-adv-x="1306" d="M8 229q0 119 82 146q10 4 43 -8q10 -2 76 -21q45 -20 59 -76l17 -100q16 -90 141 -90q66 0 125 24q186 80 186 408q0 84 -14 151.5t-31 71.5q-39 143 -119 197q-45 29 -137 29q-39 0 -54 -9.5t-34 -38.5q-18 -31 -24 -36q-61 -70 -74 -166q-12 -113 -37 -156 q-14 -27 -47 -27q-18 0 -29 9q-43 31 -43 100q0 33 8 80l11 69q-2 98 18 295q41 160 41 195q0 2 -1 11t-2 26.5t-1 36.5q-4 86 -4 108q0 166 53 189q47 18 121 18q113 0 166 -35t106 -35q41 0 170 41q4 0 42 21.5t52 21.5q20 0 40 -16t20 -35q0 -41 -119 -139l-156 -47 q-25 -6 -165 -12q-117 -6 -150 -35q-57 -51 -57 -308q0 -45 2 -59q4 -20 25.5 -41.5t39.5 -21.5q10 0 31 27.5t31 31.5q109 41 110 37q39 -6 113 -37q72 -29 113 -39q156 -119 178 -235q-2 -51 12 -152q12 -53 12 -104q1 -255 -249 -443q-37 -2 -111 -35q-76 -29 -105 -34 q-29 -4 -77 2q-57 6 -76 4q-82 -8 -172 41q-90 53 -137 127q-18 29 -19 73z" />
<glyph unicode="6" horiz-adv-x="1343" d="M2 795q0 119 25 227q20 92 77 309q8 23 47 76t48 76q213 211 376 211q96 0 201 -62q82 -10 170 -88q94 -86 94 -172q0 -37 -20 -69q-35 -53 -123 -54q-39 0 -68 17q-51 27 -51 96q0 12 4 47t4 43q2 20 -57 86q-70 80 -166 80q-131 0 -211 -129q-84 -139 -102 -309 l-21 -322q18 -23 33 -22q25 0 45 45q27 53 33 59q18 2 55 18q27 20 78 48l70 10q31 8 67 8q158 0 285 -152q119 -143 119 -315q0 -43 -10 -90q12 -18 12 -35q0 -10 -16.5 -38.5t-16.5 -37.5q0 -14 8 -24q-6 -98 -231 -281q-88 -74 -176 -74q-29 0 -146 19q-43 0 -116 14 q-160 55 -240 240q-16 45 -14 82q0 14 -13.5 52t-13.5 42q-2 59 -18 180q-20 82 -21 189zM246 346q0 -96 16 -141q23 -59 96 -107q78 -47 142 -47q53 0 153 41l21 8q135 180 135 426q0 119 -41 224q-4 31 -29 94l-84 82q-27 8 -75 8q-111 0 -168 -37q-12 -6 -35 -47 q-14 -27 -58 -43q-74 -147 -73 -371v-90z" />
<glyph unicode="7" horiz-adv-x="1140" d="M-12 506q0 27 10 98q8 57 8 78q0 90 12 195q18 150 52 161q31 -2 92 6q129 41 162 41q2 0 21.5 -5t56 -10t77.5 -5h211q16 8 49 8q45 0 81 -21.5t36 -56.5q0 -29 -31 -71q-37 -53 -39 -74l-43 -201q-25 -121 -55 -196q-12 -33 -65.5 -178.5t-83.5 -229.5q-14 -23 -21 -68 q-10 -55 -18 -69q-20 -43 -29 -55l-22 -105q-43 -43 -54 -143q-10 -92 -33 -107q-43 -31 -94 -30q-63 0 -63 59q0 39 43 102l59 86q8 23 19 74q10 55 16 70q25 33 39 65q0 35 12 103q29 16 99 194q59 158 79 223q82 303 113 428q-10 16 -22 17q-18 0 -52 -33 q-252 -33 -440 -14q-55 -29 -72 -144l-12 -194q-6 -96 -39 -96q-14 0 -24 8q-35 18 -35 90z" />
<glyph unicode="8" horiz-adv-x="1380" d="M0 406q0 67 35 126q8 184 256 318q63 33 63 61q0 27 -57 54l-90 43q-23 33 -62 86q-74 86 -73 186q0 172 176 301q10 8 39.5 13t32 7.5t20.5 12.5t32.5 17t37 16.5t50 13.5t58.5 4q201 0 305 -100q43 -43 111 -138q43 -160 43 -266q0 -68 -96 -192q-100 -131 -164 -119 q-31 -14 -31 -35q0 -25 74 -78q100 -70 141 -106q76 -70 76 -144q0 -229 -31 -282q-27 -49 -213 -168q-18 -23 -49 -47q-66 -43 -205 -27h-90q-51 2 -203 109q-76 51 -129 143q-57 96 -57 191zM213 297q0 -113 78 -182.5t192 -69.5q123 0 213 86q98 98 99 272q-1 50 -9 97 q-6 10 -32 71q-72 207 -170 207q-16 0 -41 -10q-57 -18 -150 -70q-29 -23 -106 -141q-74 -115 -74 -147v-2v-2v-3v-2v-2v-2v-2v-2v-2v-2v-2v-2v-2v-2v-2v-2v-2v-2v-2v-2v-2v-2v-3v-2v-2v-2v-2v-2v-2v-2v-2v-2v-2v-2v-2v-2v-2v-2v-2v-2v-2v-2v-2v-3v-2v-20zM276 1274 q0 -127 86 -238q25 -37 39 -55q29 -37 50 -35q25 2 98 35q74 31 96 47q51 37 80 102q41 96 51 113q16 29 17 57q0 33 -29 95q-35 72 -41 92q-74 96 -178 96q-137 0 -246 -139q-23 -106 -23 -170z" />
<glyph unicode="9" horiz-adv-x="1361" d="M6 559q0 106 45 240q2 31 25 86q90 106 145 149q33 25 101 45l108 37q141 -4 172 -10q51 -12 156 -72q88 -51 139 -174q31 -70 68 -217l57 -168q4 -12 -4 -47q-8 -41 -8 -70q0 -10 8 -59t8 -68q0 -47 -18 -118q-23 -86 -27 -127q-6 -76 -10 -105l-37 -67 q-96 -184 -156 -252q-100 -115 -248 -158l-6 -2q-8 -2 -24.5 -8t-34.5 -12q-33 -12 -59 -13q-29 0 -60 13l-176 53q-92 37 -121 127q-31 25 -31 59q0 55 58 100q59 47 119 48q45 0 71 -31q20 -23 21 -49q0 -14 -14.5 -56.5t-14.5 -54.5q0 -53 94 -98h150q35 0 131 98 q100 98 108 139q0 12 4 103q14 20 48 90q0 14 4 104q0 10 8 70q6 59 6 94q0 78 -29 90q-25 8 -47 -41q-55 -78 -162 -135q-51 -29 -114 -29q-160 0 -309 125q-6 4 -48 68q-96 152 -96 303zM242 741q-8 -297 18 -432q31 -154 178 -153q102 0 197 75q96 78 115 185l24 104 q17 66 17 109q0 92 -66 264q-53 129 -219 129q-104 0 -180 -51q-84 -59 -84 -137q4 -61 0 -93z" />
<glyph unicode=":" horiz-adv-x="790" d="M180 152q0 80 109 170q4 0 22.5 2t60.5 6t83 8q25 2 80 -49t55 -82q2 -113 -16.5 -152t-69.5 -45q-78 -8 -117 -10q-37 -4 -94 23q-59 27 -82 49q-31 35 -31 80zM188 805q1 82 107 170l166 18q25 2 82 -51q55 -53 55 -82q0 -113 -17.5 -151.5t-68.5 -44.5 q-76 -8 -119 -11q-33 -4 -94 23q-61 29 -80 49q-31 33 -31 80z" />
<glyph unicode=";" horiz-adv-x="790" d="M178 141q0 109 58 164q35 31 129 31q150 0 190 -66q96 -156 96 -221q0 -82 -80 -233q-45 -86 -51 -97q-51 -88 -82 -114q-31 -31 -102 -68q-84 -47 -107 -37q-20 43 -20 82q0 16 7 32.5t23.5 36t28 31t38 35t34.5 31.5q49 55 82 141q29 82 22 101q-10 29 -69 28 q-14 0 -53 -3t-43 -3q-51 -2 -76 31t-25 98zM188 805q1 82 107 170l166 18q25 2 82 -51q55 -53 55 -82q0 -113 -17.5 -151.5t-68.5 -44.5q-76 -8 -119 -11q-33 -4 -94 23q-61 29 -80 49q-31 33 -31 80z" />
<glyph unicode="=" horiz-adv-x="1712" d="M6 336q0 47 78 63q23 2 86 -6l96 -14q31 0 310.5 8t441.5 12h88q123 -4 123 -55q0 -14 -47 -78q-25 -12 -117 -8h-703q-35 0 -100 -6q-49 -10 -170 8q-86 12 -86 76zM14 766q0 51 76 65q25 4 86 -8l96 -14q424 14 752 22h88q123 -10 123 -55q0 -16 -45 -80 q-31 -12 -119 -6h-702q-41 0 -99 -8q-49 -10 -172 8q-84 12 -84 76z" />
<glyph unicode="?" horiz-adv-x="1128" d="M119 1305q0 104 117 198q119 96 270 96q117 0 225 -65q92 -51 135 -104q41 -52 76 -150q-2 -4 2 -106q2 -74 -6 -93q-8 -16 -30.5 -62t-35.5 -71q-45 -80 -100 -106q-57 -27 -96 -72l-74 -86q-51 -45 -51 -111q0 -10 4 -40.5t4 -38.5q0 -39 -47 -56q-16 -6 -31 -6 q-45 0 -45 68q0 23 6 71q6 53 7 72q0 25 -7 41q6 6 83 91t118 128q111 137 111 264q0 41 -9 76q-27 113 -53 174q-51 106 -133 107q-29 23 -82 22q-55 0 -74 -26q-70 -8 -69 -136q0 -16 2 -59t2 -47q0 -16 -2 -21q-8 -29 -36 -55t-52 -26q-12 0 -25 6h-26q-78 43 -78 123z M342 129q0 45 20 66q29 33 130 45q55 6 99 -40t44 -106q0 -61 -47 -92q-57 -35 -105 -35q-61 0 -101 49.5t-40 112.5z" />
<glyph unicode="@" horiz-adv-x="1665" d="M8 748q0 8 2 24l4 96q18 336 250 590q33 6 107 62q76 57 118 65l125 35q82 45 181 45q188 0 379 -141q184 -135 253 -310q51 -129 52 -274q0 -256 -150 -455q-67 -72 -280 -84q-43 10 -121 43q-10 6 -30.5 39t-35.5 33q-14 0 -49 -37q-37 -37 -43 -39q-78 -39 -164 -39 q-92 0 -160 43q-80 49 -79 166q0 35 10 101q18 96 143 127q147 25 221 34q115 29 115 121v78q0 47 -6 66q-23 74 -102 73q-96 0 -107 -108l-12 -84q-18 -55 -74 -55q-51 0 -95 38.5t-44 88.5q0 70 92 118q82 43 154 41q35 23 94 27q43 2 137 -41q90 -43 106 -78 q43 -88 43 -258q0 -14 -4 -125q-2 -53 -2 -115q0 -121 25 -170q6 -12 29 -12q8 0 46 7.5t50 7.5q23 20 74 34q2 2 59 66q12 14 45 84q-4 29 31 84q33 53 32 84q0 129 -34 264q-33 131 -168 281q-188 209 -426 208q-188 0 -393 -131q-80 -47 -113 -73q-63 -53 -78 -117 q-4 -18 -37 -82q-39 -74 -45 -82q0 -39 -16 -108q-14 -70 -19 -111l-14 -201q6 -63 106 -317q35 -84 129 -172q139 -131 445 -131q238 0 350 96q8 8 23.5 21.5t24.5 22.5t21.5 18.5t21.5 14.5t18 5q29 0 43 -51q-39 -39 -62 -52l-45 -26q-53 -27 -147 -92q-82 -14 -131 -37 q-170 -4 -242 22q-6 -2 -27 -2q-47 0 -127 29q-74 31 -104 53q-82 55 -96 53q-23 37 -95 134q2 2 -51 81q-55 86 -59 95q-10 18 -39 159q-25 129 -33 132zM557 705q-4 -8 10 -64q2 -41 27 -86q29 -47 70 -57q20 -6 61 0q45 10 55 22q12 12 21.5 25.5t15.5 24t10 31t6.5 26.5 t4.5 30.5t2 28.5v33l2 29q6 61 0 73q-14 16 -35 15q-18 -8 -109 -35q-43 4 -88 -4q-39 -33 -53 -92z" />
<glyph unicode="A" d="M-119 61q18 6 60 6q16 0 34 -1q34 -2 58.5 -2t38.5 2q27 27 71 53q31 43 99 258q90 274 108 319q31 78 103 297q82 248 86 269q-1 5 -1 12q0 20 5 55l108 289l11 45q4 23 22 39q8 8 53 8l62 -158q37 -94 41 -157q35 -63 200 -615q20 -27 50 -84q14 -35 22 -100 q8 -61 27 -107q49 -102 65 -157q35 -123 39 -131q29 -70 82 -103q14 -8 76 -18q53 -4 69 -27q8 -8 8 -20q0 -4 -1 -8q-6 -23 -21 -25q-63 -23 -164 -23q-47 0 -186 10.5t-186 10.5q-86 0 -148 -16q-31 -6 -47 10q-25 29 -25 43q0 33 82 33q55 0 97 -9q11 -2 21 -2 q32 0 46 25q2 -2 10 -2q35 0 35 26q0 41 -43 175q-41 133 -67 163v8q0 146 -138 146q-31 0 -67 -10q-41 -10 -105 -15q-76 -2 -100 -6q-20 10 -33 11q-29 0 -30 -31q-37 -31 -72 -146l-49 -161q-10 -10 -29 -68q-20 -61 -29 -80q14 -18 52 -29q23 -3 46 -3q11 0 23 1 q12 0 23.5 1t17.5 1t11.5 1.5t7.5 1.5h2q10 6 16 6q16 0 30.5 -18.5t14.5 -37.5q0 -20 -22 -24q-7 -1 -16 -1q-19 0 -48 5q-49 8 -76 8q-25 0 -35 -8q-18 6 -47 6q-45 0 -112 -8q-86 -10 -103 -10q-12 0 -41.5 -3.5t-33.5 -3.5q-47 0 -58 84zM436 666q0 -18 4 -39 q63 0 185 8q161 8 188 20q2 3 2 11q0 47 -65 260l-93 311l-28 18q-4 -23 -37 -96q-31 -66 -31 -100q0 -25 12 -43q-20 -8 -57 -39q-20 -35 -47 -129q-33 -111 -33 -182z" />
<glyph unicode="B" horiz-adv-x="1619" d="M-12 27q0 44 24 51l33 -4q23 10 60 10q23 0 51 -4q11 -2 21 -2q37 0 50 31q10 25 11 51q0 16 -6.5 63t-6.5 56q0 25 8 34q-8 592 -10 899q7 29 7 64q0 14 -1 29q-6 31 -14 92v6q0 18 8 59q10 51 10 62q0 49 -53 67q-10 4 -45 -6q-41 -12 -57 -12q-33 0 -41 33 q-4 12 -4 18q0 33 51 33l94 -12q12 -2 46 4t42 6q14 0 129 -4q59 -2 133 -2q29 0 127.5 4t102.5 4q129 0 272 -78q41 -6 64 -18q61 -43 94 -144q31 -90 33 -172q1 -13 1 -26q0 -97 -42 -144q-31 -35 -117 -67q-90 -37 -137 -80l6 -27q74 -41 184 -82q86 -14 152 -127 q66 -109 65 -243q0 -141 -78 -250q-94 -125 -272 -170q-115 -31 -532 -31q-72 0 -172.5 -8t-169.5 -8q-55 0 -105 6q-16 4 -16 39zM506 1475v-27q0 -50 6 -78q-4 -20 -4 -375q0 -29 29 -61q36 -2 65 -2q66 0 100 12q29 -4 39 -4q106 0 172 96q59 90 60 205q-1 23 -11 74 q-9 43 -8 60v5q-33 106 -94 155.5t-225 49.5q-72 0 -98 -14q-29 -16 -31 -96zM516 510v-77q0 -178 8 -206q-1 -26 -1 -47q1 -50 7 -66q10 -24 48 -24q4 0 36.5 2t47.5 2h104q127 0 197 111q63 100 63 252q0 211 -100 336q-6 12 -125 59h-121q-117 0 -125 2l-33 -35 q-6 -84 -6 -309z" />
<glyph unicode="C" horiz-adv-x="1656" d="M0 780l25 158q20 129 20 172q0 12 -2 14q-4 68 127 234q137 176 236 205h-1q0 3 119 47q131 49 224 51h3q50 0 228 -53q148 -46 176 -46q4 0 6 1q84 47 103 47q16 0 30 -8q25 -8 25 -41q0 -16 -8 -41l-11 -39l-30 -121q-2 -8 8 -92q14 -84 14 -127q0 -84 -45 -84 q-29 0 -65 61q2 20 2 39q0 216 -236 361q-88 53 -160 53q-33 0 -83 -10l-76 -13q-53 -16 -137 -143q-78 -115 -97 -182l6 -66q-2 -31 -22 -96q-18 -76 -21 -90q-4 -28 -4 -100q0 -48 2 -115q6 -147 17 -221q10 -35 39 -170q20 -137 247 -285q20 4 46 4q4 0 69 -4 q35 -2 76 -2q63 0 92 16l152 88q82 57 100 137q25 33 25 54v6q31 25 30 92v41q0 74 49 90q31 -72 31 -137q0 -104 -90 -219q-25 -29 -53.5 -59.5t-62 -68.5t-52.5 -59q-35 -43 -76 -53l-174 -33q-53 16 -174 31q-115 8 -172 37q-133 57 -260 184q-145 145 -152 269 q-37 49 -36 94q0 86 -2 92q0 10 -15 53q-10 45 -10 47z" />
<glyph unicode="D" horiz-adv-x="1875" d="M-2 1556q0 23 24.5 40.5t49.5 15.5q22 -3 94 -3t196 3q326 8 369 8q211 0 311 -23h6q30 0 93 -32l98 -54q170 -84 287 -282q119 -199 119 -410q0 -109 -35 -203q-20 -82 -45 -163q-6 -8 -49 -62.5t-66 -83.5q-92 -113 -125 -125q-23 -27 -76 -65q-66 -47 -92 -47 q-8 0 -10 2q-170 -59 -551 -72l-563 -6q-16 39 -17 49q0 18 21 37q39 -2 119 -2q86 4 98 37q29 25 31 75q-2 -41 -4 3v86l4 796v-155q-4 553 -37 604q-25 7 -62 7q-15 0 -32 -1l-93 -4q-8 -8 -22 -8q-41 0 -41 38zM625 641q0 -414 14 -502q8 -67 133 -67h4q119 0 244 59 q135 63 182 168q104 238 105 401q0 39 -7 76q-8 57 -12 201q-2 129 -18 203q-6 27 -47 116q-39 86 -62 109q-51 45 -94 104q-35 14 -123 31q-104 16 -174 16q-114 0 -114 -40q0 -3 1 -7q-32 -116 -32 -824v-44z" />
<glyph unicode="E" horiz-adv-x="1683" d="M-18 18q-1 7 -1 13q0 50 87 53q16 -27 104 -27q21 0 47 2q23 23 39 52q18 75 18 221q0 108 -10 254q-2 23 -2 49q0 61 10 141q14 127 15 191q0 31 -10 108q-10 82 -11 111q0 76 31 135q-12 20 -29 131q-12 80 -65 104q-2 2 -55 -4q-63 -6 -97 -6q-65 0 -65 22q0 17 32 44 q20 4 51 4q21 0 48 -2q82 -6 98 -6h21q20 0 62 -1t98.5 -1t141.5 -1t177 -1h57q253 0 440 16q7 1 13 1q54 0 63 -48l8 -100q2 -2 31 -95q18 -59 19 -96q0 -33 -13 -61q-20 -4 -28 10q-6 29 -25 82q-18 31 -57 80q-47 57 -60 84q-29 51 -57 65q-27 12 -86 14q-26 1 -79 1 t-134 -1q-172 -2 -195 -10q-16 -6 -16 -37q0 -27 10 -43q-10 -106 -10 -542q0 -58 54 -58h5q162 4 263 17q35 25 51 123l12 141q14 18 27 18q30 0 30 -134v-9q0 -59 -6 -162q-6 -92 -6 -98q2 -2 12 -78q8 -55 9 -98q0 -68 -27 -88l-27 10q-16 33 -18 110q0 78 -12 107 q-20 51 -95 68q-86 16 -135 16q-92 0 -125 -49q-28 -40 -28 -129v-6q0 -6 4 -100.5t4 -112.5v-10q0 -28 4 -132q2 -35 4 -73.5t4 -55t2 -20.5l41 -45l426 4q100 4 166 108q20 33 86 195q38 96 77 96h3q10 -14 10 -57q0 -19 -2 -43q-2 -35 -5 -69t-4 -49t-1 -17q0 -52 14 -72 q0 -55 -2 -84q0 -39 -7 -58.5t-13.5 -21.5t-24.5 -4h-39q-18 2 -33 2q-123 4 -309 4h-131q-193 -12 -760 -22q-30 -2 -46.5 -2t-18.5 2q-43 4 -49 30z" />
<glyph unicode="F" horiz-adv-x="1546" d="M-25 20q45 27 105 27q12 0 46 -2t42 -2q72 0 88 90q16 125 16 377q0 47 -4 334q0 55 -1 122.5t-2 104.5t-1 57q0 162 8 258l-12 115q-4 41 -17.5 58.5t-33.5 13.5l-25 10q-38 -5 -110 -5q-36 0 -80 1q-6 6 -6 16q0 20 26 41q20 4 51 4q21 0 48 -2q84 -6 98 -6 q39 0 321 -4q221 -6 324 -6q199 0 352 12q7 1 13 1q54 0 65 -48l6 -104q12 -86 39 -256q-16 -6 -24 -6q-35 0 -47 63q-16 88 -25 96q-27 31 -76 107q-23 49 -55 65q-25 12 -86 17q-78 4 -217 4q-178 -4 -193 -8q-16 -6 -16 -37q-2 -25 10 -45q-10 -106 -10 -555 q0 -66 125 -66q31 0 196 21q37 25 52 125l12 145q16 16 24 16q33 0 33 -145q0 -61 -6 -166q-6 -96 -6 -102q0 -2 12 -80q8 -55 8 -98q0 -72 -26 -93l-27 13q-14 37 -18 114q0 78 -13 109q-20 51 -94 70q-84 18 -139 18q-90 0 -123 -51q-27 -39 -27 -137q0 -6 4.5 -104.5 t4.5 -115.5v-10q0 -28 4 -133q2 -37 4 -77t4 -56t2 -23l41 -45l113 6q21 1 38 1q58 0 64 -11q12 -12 12 -26q0 -23 -43 -33q-31 -10 -59 -6q-82 4 -129 4q-78 0 -273 -12q-181 -9 -258 -9h-14l-74 4q-43 10 -41 45z" />
<glyph unicode="G" horiz-adv-x="1755" d="M-2 870v24q0 246 154 452q41 55 116 114l129 103q72 20 156 59q51 8 139 27q72 12 127 12h15q31 -16 96 -35q61 -14 96 -29q6 -6 35 -24q25 -16 41 -14q16 -10 31 -11q23 0 65 21q47 22 66 22h2q14 0 28 -8q0 -76 -8 -182.5t-8 -177.5q0 -80 8 -136q-23 -23 -35 -22 q-29 0 -71 129q-61 172 -115 244q-102 135 -264 137q-57 2 -94 2q-74 0 -115 -23q-49 -29 -100 -108q-70 -106 -117 -324q-45 -207 -45 -430q0 -412 153 -547q125 -106 275 -106q49 0 102 16q102 35 161.5 124t59.5 200q0 33 -6 63q-5 26 -5 51q0 19 3 37q2 12 2 33 q0 70 -71 70q-8 0 -47 -3t-51.5 -3t-33.5 4q-31 -10 -57 -10q-55 0 -55 34q0 12 6 27q25 12 78 16q57 0 80 7q71 -13 114 -13h6l33 15q41 -4 154 -9q84 8 121 15q109 12 170 12q76 0 84 -18q4 -12 4 -21q0 -29 -33 -45q-26 -13 -53 -13l-13 1q-23 20 -51 20q-66 0 -94 -78 q-4 -11 -4 -53q0 -27 2 -69q0 -37 1 -70t2 -49.5t1 -18.5l-6 -129q-4 -102 -41 -102q-18 0 -53 14.5t-45 14.5q-12 2 -24 2q-60 0 -138 -41q-92 -49 -94 -50q-71 -65 -184 -65h-3q-98 0 -362 96q-61 20 -166 131q-94 98 -129 174q-47 41 -74 164q-35 166 -43 189l4 36v9 q0 20 -6 55q-6 47 -6 61z" />
<glyph unicode="H" horiz-adv-x="1902" d="M6 1591q0 16 39 49q20 4 41 4q14 0 29 -2q45 -6 67 -6h59q80 0 103 -4l18 -6h-2q27 0 162 14q34 3 68 3q45 0 90 -5q37 -2 50 -10t20 -39q-12 -35 -54 -35q-25 0 -41 31q-45 -4 -69 -10q-35 -16 -35 -66q0 -14 6 -22q-12 -94 -12 -553q0 -57 80 -57q27 0 63 -1 q106 0 283 5q16 10 28 10q4 0 21.5 -3t26.5 -3q35 0 75 26q0 27 5.5 52.5t9.5 41t4 17.5q0 16 -10.5 69.5t-10.5 67.5q0 8 5 41t5 41q0 25 -6 74t-6 69q0 14 7.5 58.5t7.5 56.5q0 41 -33 66h-2h-3t-8.5 -1t-12.5 -1h-15t-18.5 -1t-22.5 -1h-10q-42 0 -68 16q-12 10 -12 20 q0 18 32 36q28 16 48 16h4l458 -9q10 -4 39 0q37 4 43 5q70 0 70 -43q0 -16 -8 -33q-39 -4 -81 -8.5t-58.5 -6.5t-18.5 -2q-55 -18 -55 -94q0 -37 12 -100q-4 -16 -4 -50q0 -23 2 -53q6 -98 6 -110q0 -43 -8 -58q0 -6 1 -23t2 -50t1 -64q3 -83 3 -124q0 -21 -1 -31 q-4 -88 -14 -119q-12 -41 12 -55q3 -14 3 -75.5t-3 -168.5q-3 -95 -3 -156q0 -82 5 -106q8 -45 68 -45q8 0 39.5 2t40.5 2q55 0 59 -49l-35 -35l-649 -13q-16 24 -16 45.5t16 40.5l106 7q47 2 69 13t25 22.5t3 37.5q0 16 -7.5 64.5t-7.5 58.5q0 25 11 35q1 20 1 38 q0 54 -5 85q-5 18 -5 103t5 235q0 74 -183 74q-57 0 -116 -7h-47q-159 -1 -207 -25q-54 -28 -54 -147q0 -51 2 -108q4 -111 4 -148q-3 -7 -3 -70q0 -32 1 -77q4 -152 5 -156l79 -28q1 8 30 8q25 0 69 -6q12 2 22 2q49 0 49 -40q0 -42 -73 -42q-98 0 -291 -4q-207 -6 -291 -6 q-43 -2 -66 -2q-43 6 -49 32q-1 7 -1 14q0 53 87 54q15 -28 65 -28q9 0 19 1q18 14 39 51l25 117q0 133 2 391q0 39 4 166q4 111 4 207q0 -6 -6 154q-2 52 -2 98q0 70 4 129l-12 145q-8 43 -72 74q-2 0 -45 -6q-49 -6 -76 -6q-43 0 -43 18z" />
<glyph unicode="I" horiz-adv-x="1034" d="M41 1608q0 16 31.5 34.5t52.5 16.5q254 0 459 -2q6 0 39.5 2t46.5 2q65 0 65 -40q0 -17 -8 -34q-147 -14 -158 -18q-55 -18 -55 -94q0 -39 12 -101q-4 -16 -4 -50q0 -22 2 -52q6 -98 6 -113q0 -43 -8 -57q0 -6 1 -22.5t2 -49.5t1 -63q2 -68 2 -156q-4 -88 -14 -121 q-12 -39 12 -53q3 -14 3 -75.5t-3 -168.5q-3 -95 -3 -156q0 -82 5 -106q8 -45 66 -45q8 0 41 3t43 3q55 0 57 -49l-35 -35l-649 -22q-18 24 -17.5 46t17.5 42l107 6q47 4 68.5 15t24.5 22.5t3 38.5q0 16 -7 64t-7 59q0 25 10 34v38q0 54 -4 85q-3 16 -3 89.5t3 205.5l6 303 q0 16 -9.5 69.5t-9.5 67.5q0 8 5.5 40t5.5 44q0 23 -6.5 72t-6.5 70q0 14 7.5 58t7.5 56q0 41 -33 66h-2q-2 0 -9 -1t-16.5 -1t-24 -1t-30.5 -1q-9 -1 -18 -1q-38 0 -60 15q-12 10 -12 21z" />
<glyph unicode="J" horiz-adv-x="1206" d="M4 303q0 43 19 74q36 69 108 69h2q49 0 88 -32.5t39 -75.5t-39 -84q-4 -20 -4 -35q0 -61 39 -109.5t94 -48.5q18 0 27 2q103 25 103 190q0 14 -1 28q-4 102 -4 172q0 129 8.5 323.5t8.5 325.5q0 242 -31 424q-39 22 -62 22h-2q-8 0 -39.5 -9t-44.5 -11q-29 -2 -54.5 20.5 t-25.5 46.5q0 35 46 35h10q6 0 27.5 1t66.5 2t94 1q250 4 295 4q240 0 258 -20q4 -20 4 -29q0 -43 -55 -43q-53 0 -98 27q-10 -2 -19.5 -4t-15.5 -3t-10.5 -2t-8.5 -1h-2q-29 -8 -45 -31l-6 -1120q-2 -356 -264 -404q-117 -20 -186 -20q-70 0 -123 18q-74 27 -135 117 q-61 92 -62 180z" />
<glyph unicode="K" horiz-adv-x="1830" d="M-49 16q6 4 43 -39q-25 27 -25 52q0 33 35 54t84 21q35 0 62 -12q6 14 38.5 47.5t32.5 53.5v1320q-16 23 -45 39q-61 37 -168 41q-20 0 -20 33q0 51 35 51q10 0 22 -6h24q52 0 132 -6q100 -8 155 -8q100 0 180 2t179 2q2 2 8 2q14 0 30.5 -16.5t14.5 -28.5 q-4 -16 -94 -31q-86 -10 -109 -10q-26 -19 -26 -150v-10q0 -29 4 -155q6 -94 6 -109q0 -16 -6 -66q-4 -61 -4 -71q0 -111 86 -117q23 14 94 86q14 16 29.5 32.5t35 37t29.5 30.5q-2 8 186 207q215 221 228 238l-17 37l-120 6q-86 8 -86 41q0 14 14 35l141 -13l15 11 q47 0 90 -2q39 -3 90 -3h7q47 0 81 7q6 0 35.5 11t38.5 11q45 0 45 -51q0 -35 -25 -49q-66 14 -88 14q-25 0 -45 -10q-96 -57 -236 -221q-141 -168 -225 -232q-12 -27 -31 -45q-8 -18 -8 -41q0 -57 53 -133q113 -158 404 -567q76 -119 158 -240l26 -10l70 -16q37 -13 37 -36 q0 -5 -2 -11q-8 -33 -56 -33l-69 4q-25 0 -164 -8q-143 -6 -227 -6q-135 0 -156 14v7q0 41 43 50l78 12q35 35 35 50q0 63 -154 260q-184 236 -193 252l-110 178q-20 37 -47 37q-29 0 -53.5 -37t-24.5 -76l6 -317q1 -56 1 -105q0 -124 -7 -211q24 -28 76 -28h4q4 0 61 4 q49 4 53 4q16 -10 17 -29q0 -20 -17.5 -40.5t-37.5 -20.5q-10 0 -19 6q-29 4 -47 4t-75.5 -6t-76.5 -6q-27 0 -55 6q-6 -1 -26 -1q-39 0 -132 5q-47 2 -86.5 4t-54.5 4h-16q-37 -41 -80 -41q-37 0 -64 27q-25 20 -25 27q0 2 1 3z" />
<glyph unicode="L" horiz-adv-x="1710" d="M2 18q-2 8 -2 15q0 12 6 22q23 37 62 37q25 0 77 -20q55 -18 80 -19q41 0 62 31q78 37 78 428q0 137 -13 410q-10 307 -10 376q0 152 14 203q-33 61 -129 62q-33 0 -98 -11l-88 -16q-23 23 -23 57q0 29 15 49q26 -1 55 -1q95 0 227 10q66 -12 179 -13q20 0 176 4 q102 5 140 5h11q16 12 58 0q6 0 33.5 11t37.5 11q37 0 37 -35q0 -27 -47 -67q-37 0 -100.5 7t-65.5 7q-57 0 -90 -94q-22 -58 -22 -178v-11q0 -57 6 -163q6 -109 6 -150q0 -51 -6 -78q-7 -29 -7 -91q0 -25 1 -54l16 -19l2 -59l-21 -49q0 -49 7 -154q8 -90 8 -155 q0 -27 -6 -78q-4 -66 -4 -72q0 -27 8 -51l18 -55q59 -16 211 -17l21 10q36 -1 69 -1q138 0 230 20q16 2 39 31l30 43q70 78 105 196q47 172 61 209q7 2 13 2q33 0 38 -57q0 -61 -2 -92l4 -357q0 -57 -79 -57q-87 1 -217.5 1t-303.5 -1q-406 0 -522 2q-108 -10 -362 -14 q-20 10 -23 30z" />
<glyph unicode="M" horiz-adv-x="2207" d="M-6 2q10 72 92 72h59q68 0 111 14q18 18 27 150q12 123 12 247q0 123 -12 150q-17 37 -17 70v10q6 27 17 147v53q0 209 -13 551q-2 18 -2 54q-6 39 -24 39l-129 2q-20 -27 -56 -27q-65 0 -65 57q0 8 4 25q10 31 74 31q35 0 112 -13q80 -12 107 -12q8 0 41 6t43 6 q12 0 54 -15t54 -15q6 0 47 11t52 7q33 -6 47 -39q25 -47 49 -139q33 -119 45 -148q180 -471 272 -755q16 -16 56 -35l159 604q133 461 211 545q35 -6 148 -10q33 -1 77.5 -1t100.5 1q31 0 64.5 1t51 2t23.5 1q25 10 35 10q31 0 31 -33q0 -23 -14.5 -41t-36.5 -18 q-14 0 -25 8q-10 -4 -66.5 -4t-74.5 -8q-25 -59 -25 -148q0 -39 10 -158q12 -106 13 -155q0 -37 -2 -55q-14 -113 -15 -472q0 -367 15 -475q23 -31 47 -30q8 0 32.5 6t30.5 6q43 0 43 -33q0 -20 -55 -49q-157 -4 -345 -4q-125 0 -263 2q-6 14 -7 29q0 53 72 53q33 0 55 -17 q86 2 93 109v170q14 57 18 342q1 94 1 166q0 142 -5 192q0 10 -8 45q-4 35 -2 48q20 172 20 239q-4 41 -31 41q-25 0 -55 -37q-20 -104 -98 -377q-82 -287 -115 -342q2 -74 -94 -350q-102 -281 -156 -280q-35 63 -92 213q-51 135 -98 211q-14 23 -19 67q-2 43 -8 72 q-86 285 -129 340q-16 61 -90 242q-82 193 -111 210q-26 -148 -26 -292v-11q0 -80 10 -178q4 -49 4 -170v-319q2 -303 19 -326q20 -12 110 -16q70 -2 70 -27q0 -14 -21 -41q-6 0 -27.5 -1t-63.5 -2t-87 -1q-162 -6 -239 -6q-102 0 -117 8z" />
<glyph unicode="N" horiz-adv-x="1812" d="M-57 10q0 18 22 58q25 12 80 12h37q57 0 86 24q27 23 27 68v6l8 15q6 87 6 159q0 132 -19 217q23 31 25 86q-2 2 -6 734q-8 12 -29 73q-20 55 -35 58q-57 4 -157 30q-8 16 -8 31q0 43 101 43q20 0 44 -2q30 -2 63 -2q50 0 107 4q115 8 170 8q59 0 108 -6q18 -2 54 -47 q35 -41 41 -66q37 -43 75 -129q45 -100 58 -118q39 -57 190 -295q115 -188 197 -289q18 -23 33 -23q45 0 45 242q0 176 -21 402q-14 174 -26 258q-41 0 -72 2q-2 0 -29 10q-14 8 -28 2l-3 -2q-2 0 -6 -3t-9 -6t-13 -8.5t-17 -9.5q-33 -20 -53 -20t-38.5 21.5t-18.5 41.5 q0 57 182 58q53 0 125 -7q23 0 41 -1t27 -1l10 -2q14 0 78 6q63 6 98 7q51 -1 74 -13q1 -8 1 -15q0 -57 -69 -60q-115 -8 -151 -33q-10 -70 -10 -187q0 -29 1 -61q2 -35 3 -66.5t1 -56t1.5 -46t2.5 -35t1 -24v-14.5v-4q0 -59 -9 -389q-1 -62 -1 -118q0 -154 8 -267 q-4 -11 -4 -45q0 -23 2 -57q1 -31 1 -54q0 -41 -4 -59q-14 -57 -65 -57q-12 0 -21 2q-86 135 -397 676q-33 55 -151 231q-98 147 -136 238q-72 47 -129 174q-55 125 -100 145h-23q-22 -22 -22 -75q0 -18 3 -58q3 -39 3 -45q1 -39 1 -112q0 -145 -3 -425q0 -100 -1 -229 t-2 -198.5t-1 -108.5q0 -104 109 -127l192 -17q8 -25 8 -63q-28 -14 -112 -14q-34 0 -76 2l-27 12q-74 -10 -213 -14q-61 0 -114.5 -1t-75.5 -1l-25 -3q-20 8 -20 33z" />
<glyph unicode="O" horiz-adv-x="1728" d="M-33 725q-2 0 -2 6.5t2 18.5l4 100q16 287 299 604q33 6 111 72q80 68 123 76l31 22q84 47 192 47q190 0 401 -133q199 -125 277 -278q94 -180 94 -445q0 -256 -94 -424q-33 -61 -131 -164q-102 -113 -156 -151q-47 -24 -147 -96q-86 -18 -133 -37q-28 -1 -54 -1 q-120 0 -186 23q-16 -4 -29 -4q-49 0 -125 31q-66 27 -106 55l-29 41q-16 29 -35 27q-14 23 -61 65q-49 43 -63 62l-3 4q-2 4 -7 11t-10 15.5t-14.5 23.5t-19.5 30l-59 96q-12 25 -37 168q-25 133 -33 135zM299 770q31 -336 49 -387q33 -68 80 -168q31 -90 123 -144.5 t201 -54.5q139 0 235 84q78 72 109 168q14 41 32 178q15 113 48 185q-4 45 -17 88q-14 55 -14 90q0 8 1 23.5t2 44t1 51.5q1 38 1 69t-1 54q-2 68 -12 116q4 12 4 23q0 100 -99 233q-123 164 -290 164q-160 0 -342 -157q-33 -66 -86 -275q2 -15 2 -31q0 -25 -4 -53v-24 q0 -86 -11 -254z" />
<glyph unicode="P" d="M-20 18q0 43 61 50q88 8 127 10q70 12 82 61q14 45 14 301q0 690 -35 842q27 33 27 135q0 123 -70 123q-18 0 -36 -8q-59 6 -117 18q-6 10 -6 19q0 18 27.5 34.5t58.5 16.5q14 0 18 -2q41 10 205 10q170 -4 205 -10q8 -2 26 -2q10 0 52.5 4t54.5 4q20 0 31 -2l208 -25 q129 -16 197 -67q2 -6 39 -41q80 -49 128 -134t48 -177q0 -16 -4 -54q-23 -117 -37 -153q-18 -45 -92 -127l-107 -39l-30 -25q-45 -14 -264 -26q-176 -10 -238 -49q0 -4 -1 -18.5t-2 -44.5t-1 -60q-2 -72 -2 -179q0 -319 53 -331q25 -8 100 -9h107l27 -32q4 -37 -29 -41 l-57 2q-59 0 -365 6q-112 3 -204 3t-163 -3l-32 -2q-4 16 -4 22zM555 1104q-1 -40 -1 -77q0 -111 5 -189q29 -31 66 -31q8 0 44 6t48 6q205 4 272 72q57 55 58 190q0 6 -5 113q0 23 -1 67t-3 60q0 100 -114 174q-100 68 -217 68q-41 0 -72 -13q-55 -23 -62 -75l-6 -107 q-10 -82 -12 -264z" />
<glyph unicode="Q" horiz-adv-x="1867" d="M16 762l2 221q23 33 48 100q31 76 28 101q16 29 41 86q18 45 49 78l62 47q43 33 45 53q43 20 102 80q51 25 197 82q59 4 168 32q41 -4 71 -4h74q76 0 125 -16q238 -74 354.5 -196.5t227.5 -401.5q10 -29 12 -133v-38q0 -219 -43 -343q-61 -178 -236 -299l-126 -94 q-94 -66 -134 -70q-39 -8 -114 -47q0 -31 110 -68q125 -43 160 -86q127 -170 231 -170q18 0 69.5 16.5t66.5 16.5q23 0 39 -8q2 -6 2 -16q0 -98 -277 -99q-113 0 -164 15q-137 35 -248 120q-70 57 -147 146q-66 72 -82 72q-10 1 -19 1q-81 0 -132 -46q-27 -23 -76 -97 q-33 -51 -60 -51q-23 0 -51 25q-10 31 -10 51q0 66 98 115q100 49 105 90q-63 45 -84 45q-33 33 -129 82q-78 45 -113 104q-27 45 -100 111q-25 23 -84 186q-59 170 -58 207zM369 698q0 -88 16 -94q14 -113 61 -248q57 -170 125 -211q94 -57 273 -57q264 0 350 121 q123 172 125 608q0 39 -12 170l-15 164q0 29 -55 143q-51 106 -82 140q-47 53 -135 84q-117 41 -160 41q-47 0 -158 -37q-207 -72 -280 -224q-53 -113 -53 -327v-17v-33.5t1 -50t1 -67.5q-2 -35 -2 -105z" />
<glyph unicode="R" horiz-adv-x="1669" d="M-31 37q0 20 25 35l88 4q51 6 80 35q4 45 10 65q10 41 10 299q0 117 -14 928l-2 80q-2 57 -27 63q-6 2 -33 2h-14q-80 0 -80 37q0 14 8 31q127 7 247.5 7t234.5 -7q21 -1 41 -1q50 0 98 7q76 12 104 12q57 0 148 -24q240 -70 293 -250q11 -41 11 -109q0 -46 -5 -104 q-8 -82 -102 -146q-59 -39 -170 -83q-90 -37 -91 -54q0 -23 111 -47q139 -33 186 -76q89 -87 89 -308q0 -18 -1 -38v-12q0 -71 43 -170q47 -125 105 -145q11 -5 36 -5q18 0 44 3q25 10 37 10q39 0 39 -37q-1 -19 -13 -37q-57 -8 -82 -8q-147 0 -221 2q-121 8 -207 70 q-98 70 -98 245q0 41 6 125q8 76 8 125q0 125 -57 176q-14 33 -92 68q-74 37 -125 37q-20 0 -33 -6h-98q-59 0 -60 -310q0 -309 31 -387q14 -33 47 -41l62 -16q92 0 104 4q27 -27 27 -47q0 -29 -45 -29h-310q-10 0 -45.5 -8t-44.5 -8q-41 6 -213 16q-18 -12 -39 -12 q-51 0 -51 39zM449 1325v-139q0 -248 6 -264q10 -6 26 -31h24q427 0 431 278q0 136 -10 156q6 27 6 51q0 182 -316 183q-117 0 -147 -64q-20 -39 -20 -170z" />
<glyph unicode="S" horiz-adv-x="1406" d="M8 256q0 272 33 344q23 20 43 21q39 0 51 -91l6 -120q20 -143 162 -265q138 -116 290 -116h3q72 0 127 26q117 51 164 117q39 57 39 154q0 55 -8 135q-2 23 -14.5 46t-22 34.5t-33 38t-29.5 32.5q-76 53 -305 125q-215 70 -256 107l-29 8q-151 163 -151 352 q0 184 133 314q133 131 334 131q111 0 227 -47q35 -12 66 -13q20 0 69 8q16 4 30 4q18 0 36 -6q59 -18 59 -82q0 -8 -4 -43.5t-4 -48t6 -127.5q2 -34 2 -62q0 -41 -4 -65q-33 -42 -62 -42q-4 0 -8 1q-29 49 -63 160q-33 104 -61 150q-53 78 -150 129q-47 24 -100 24h-4 q-113 0 -201 -86q-90 -84 -90 -196q0 -31 10 -68q2 -14 57 -76q53 -57 66 -78q82 -61 174 -61q16 0 22 2q186 -49 228 -63q131 -47 198 -125q4 -20 29 -58l37 -55q43 -90 43 -197q0 -180 -117 -335q-115 -156 -282 -203q-14 -2 -70 -31q-43 -16 -82 -16l-20 4q-20 2 -71 9 t-108 15q-176 109 -245 109q-14 0 -25 -6q-10 6 -41 -19q-25 -25 -39 -35q-45 14 -45 236z" />
<glyph unicode="T" horiz-adv-x="1708" d="M-6 1118q0 111 8 260q8 166 8 260q42 20 158 19h43q3 1 9 1q22 0 89 -11q39 -8 94 -9q59 0 183 13q109 12 167 12h15q116 2 289 2t403 -2l33 -31v-108q0 -53 12 -158q12 -80 17 -154q1 -13 1 -25q0 -65 -20 -65l-8 4q-27 66 -92 168q-68 111 -90 164q-23 14 -51 60 q-29 47 -45 55q-23 14 -113 14q-150 0 -160 -78q-14 -10 -37 -43v-184v-92q0 -191 6 -436q4 -150 8.5 -284t6.5 -189.5t2 -57.5q4 -96 65 -143q39 -2 107 -10q78 -10 78 -50q0 -12 -11 -32q-8 -16 -34 -16q-20 0 -52 10q-27 -2 -48 -2q-58 0 -79 12q-167 -1 -334.5 -1 t-336.5 1v5q0 93 67 93q12 0 67.5 -8t72.5 -8q120 0 120 202q0 70 6 789v31q0 82 -8 215q-12 184 -37 205q-8 55 -94 55q-35 0 -90 -8q-51 -6 -72 -7h-3q-43 0 -124 -129q-82 -129 -77 -153q-31 -31 -47 -84q-23 -76 -31 -88z" />
<glyph unicode="U" horiz-adv-x="1806" d="M-25 1575q0 43 27 51q31 14 168 16q40 1 73 1q83 0 122 -7q76 -14 128 -14q17 0 31 2q4 0 15.5 -1t33 -2t39.5 -1q13 -1 25 -1q36 0 63 9q18 6 39 6q29 0 50.5 -17.5t21.5 -37.5q0 -45 -70 -45q-12 0 -100 12q-24 3 -42 3q-28 0 -46 -7q-33 -18 -33 -74v-12q4 -90 6 -366 v-128q0 -170 -4 -210q-10 -76 -10 -142q0 -213 74 -350q92 -172 278 -172h115l12 10q4 -2 17 -2q10 0 120 39q18 2 70 23q57 39 94 123q39 84 39 165q0 29 -6 58l14 74q6 236 15 684v4q0 2 1 13t1 24q2 31 2 81q0 182 -45 185q-10 0 -78 -6q-74 -6 -115 -7q-68 0 -78 17 q-12 25 -12 41q0 33 47 33q23 0 99 -17q46 -9 68 -9q8 0 13 1q77 17 232 17q31 0 65 -1q43 -2 70 -2q25 -4 34 -12q7 -7 7 -17q0 -60 -68 -61q-40 0 -73 27q-25 0 -68 -8q-12 -20 -12 -58q0 -10 2 -43.5t2 -42.5q0 -39 -12 -57q6 -90 6 -281q0 -748 -86 -872 q-16 -23 -129 -129q-37 -16 -84 -55q-168 -29 -283 -29q-63 0 -235 12q-39 33 -88 43q-49 12 -80 29q-47 31 -127 121q-79 90 -79 127q0 4 1 8q-72 72 -72 614q0 326 19 564l-43 32q-8 -2 -170 -2q-10 10 -11 29z" />
<glyph unicode="V" horiz-adv-x="1574" d="M-4 1606q4 18 18 24q55 20 117 21q37 0 106.5 -12.5t114.5 -12.5q55 0 111 14q16 4 143 5q131 0 142 -7q25 -29 24 -43q0 -32 -79 -32h-5q-55 0 -96 8q-10 2 -20 2q-32 0 -46 -27q-2 -2 -4 -6q0 -20 8.5 -61t8.5 -52q0 -41 16 -106q18 -63 43 -90q-1 -2 -1 -7 q0 -44 93 -333l125 -383l80 -45q23 39 92 266q78 256 78 334q0 14 -2 20q41 35 74 144l49 164q10 6 28 65q20 68 29 80q-20 33 -53 37q-2 2 -68 2q-6 -6 -16 -6q-16 0 -30.5 18.5t-14.5 36.5q0 20 22 25q14 2 49 -10.5t42 -12.5q10 0 20 6q25 -4 47 -4q43 0 111 8 q78 9 102 9h4l137 4l-6 -82q-15 -5 -51 -5q-18 0 -41 1q-35 3 -59 3t-37 -3q-29 -29 -72 -52q-29 -41 -100 -260q-84 -264 -107 -317q-18 -45 -73 -223q-49 -172 -54 -191l-104 -252q-37 -143 -70 -258q-6 -16 -10 -43q-4 -25 -25 -39q-10 -10 -53 -10q-25 68 -59 158 q-39 104 -43 157q-39 72 -199 617q-23 29 -51 84q-12 43 -21 100q-8 68 -28 105q-43 92 -64 159q-25 98 -35 148q-29 88 -79 121q-12 6 -29 6q-10 0 -45 -5t-43 -5q-43 0 -43 30q0 6 2 13z" />
<glyph unicode="W" horiz-adv-x="1894" d="M2 1606q4 20 14 22q41 20 88 21q27 0 80 -13q61 -10 86 -10q43 0 84 14q2 0 109 5q104 0 106 -9q27 -33 27 -53t-33 -20q-23 0 -53 8q-14 4 -28.5 -10.5t-28.5 -47.5q37 -33 36 -51q0 -174 39 -231q-1 -2 -1 -9q0 -46 61 -292l82 -342l51 86q18 41 88 422q27 27 43 147 q23 156 29 176q-8 47 -21 94q-12 37 -49 68q-14 12 -41 4q-35 -8 -47 -8q-33 0 -33 28q0 7 2 15q4 18 15 22q43 20 88 21q29 0 82 -12q57 -10 86 -11q45 0 81 15q2 0 109 4q102 0 109 -8q18 -25 18 -41q0 -33 -59 -33h-13v-8q-20 -6 -28 -4q-14 6 -33 6q16 -29 22 -43 l-4 -53l4 -78q0 -111 52 -187q-2 -4 -2 -12q0 -46 47 -235l69 -289l51 -43l29 43q18 31 19 65q0 10 -4 35q29 33 88 307q63 303 71 324q6 6 2 59q-1 13 -1 24q0 33 5 48q-23 43 -122 43q-2 -6 -11 -6q-12 0 -23.5 17.5t-11.5 35.5q0 20 17 25q12 4 59 -6q47 -6 66 -7 q23 0 30 9q20 -4 35 -5q33 0 84 8.5t82 8.5q70 0 105 2l-7 -78q-11 -5 -38 -5q-14 0 -31 1q-26 1 -44.5 1t-29.5 -1q-20 -29 -53 -51q-27 -51 -76 -254q-66 -262 -82 -311q-18 -61 -53 -215q-39 -164 -41 -187q-35 -100 -80 -248q-39 -186 -53 -250q0 -27 -25 -81 q-8 -8 -41 -9l-45 154q-29 96 -32 154q-31 78 -152 602q-16 31 -37 82q-10 80 -39 200l-20 58q-72 -270 -72 -273q-16 -57 -55 -217q-39 -164 -41 -186l-80 -248q-23 -127 -51 -250q0 -29 -27 -82q-6 -8 -39 -8q-33 102 -47 154q-27 100 -31 153q-33 76 -151 602 q-12 23 -39 82q-6 70 -37 201q-31 90 -49 156q-18 104 -27 143q-23 86 -59 117q-14 12 -43 6l-45 -10q-33 0 -33 28q0 7 2 15z" />
<glyph unicode="X" horiz-adv-x="1867" d="M-84 -2q2 88 64 88q6 0 43.5 -3t52.5 -3q43 -18 76 -19q41 0 75 37l56 84l43 49q35 37 30 50q123 184 174 280q18 35 74 103q45 55 76 100q-12 66 -78 123l-8 33q-33 47 -221 344q-164 262 -213 303q-2 2 -13 2q-4 0 -42.5 -4t-53.5 -4q-71 0 -71 44q0 17 8 33 q12 2 379 7h144q224 0 247 -5q14 -2 14 -28q0 -39 -16 -62q-8 0 -74 10.5t-88 10.5q-61 0 -82 -27q-2 -12 152 -244q156 -233 178 -256l18 -4q72 92 164 234q150 231 156 239v19q-37 18 -93 18h-34q-14 -2 -31 -2q-60 0 -60 59q0 8 1 17q31 14 272 14q231 0 283 -8 q16 -10 16 -28q0 -20 -18.5 -39t-40.5 -19q-20 0 -35 15h-11q-39 0 -116 -11q-25 -25 -129 -176q-109 -154 -111 -168q-104 -133 -141 -223q-2 -6 -2 -20q0 -51 39 -111l237 -381q156 -246 254 -360q2 0 8.5 1t15.5 2t17 1h41q92 0 121 -72l-80 -41q-146 4 -277 4h-85 q-8 0 -29 -5t-25 -5q-12 -2 -42.5 6t-39.5 8q-104 -20 -224 -20h-32q-53 4 -53 49q0 16 17 33q5 0 11 1q29 0 89 -8q66 -8 106 -8q96 0 97 56q0 37 -54 108l-69 90q-131 272 -254 373l-135 -199q-78 -113 -125 -207q-68 -61 -68 -131q0 -31 19 -59q84 -8 217 -33l-13 -51 q-356 -11 -532 -11q-141 0 -166 7z" />
<glyph unicode="Y" d="M-166 1585q0 45 86 45q10 0 52 -2t55 -2q47 0 65 12q12 -8 514 -12l10 12q10 -8 82 -10q59 -4 60 -26q0 -20 -33 -54q-41 0 -72 -2q-15 15 -57 15h-14q-28 -3 -47 -3q-26 0 -35 5l-39 -29q25 -86 149 -324q123 -240 181 -297l26 13q129 227 213 334q23 29 72 133 q55 115 55 145q0 6 -2 8q-14 10 -74 15q-57 2 -86 28q6 20 20.5 41t31.5 21q6 0 16 -11q83 1 172 1t184 -1q43 -12 43 -38.5t-36 -45.5q-29 -15 -68 -15q-8 0 -17 1q-20 0 -47 -14l-41 -25q-20 -8 -67 -98q-129 -215 -242 -412q-80 -147 -80 -422q0 -14 1 -37.5t2 -68.5 t1 -80q1 -57 1 -101t-1 -75q0 -20 15 -62q11 -30 11 -51q0 -6 -1 -12q2 0 108 -4q10 -4 95 -17q50 -5 50 -54q0 -5 -1 -11q-23 -6 -45 -6l-62 8q-27 4 -43 6q-51 8 -104 8q-27 0 -225 -24q-6 -2 -58 6q-39 6 -92 6q-57 0 -158 -8q-80 -6 -131 -6h-24q-10 10 -10 26 q0 31 9 43.5t27 8.5q59 -14 150 -15q152 0 164 65.5t12 192.5q0 57 -16 422q-53 76 -160 273q-98 182 -146 290l-26 15q-74 117 -125 172q-86 86 -180 86q-35 0 -62 -8q-6 14 -6 26z" />
<glyph unicode="Z" horiz-adv-x="1656" d="M2 25q0 33 41 86q57 70 57 73q39 18 45 47q8 45 19 58q35 23 41 26l2 27l336 580q315 555 315 598q-27 29 -43 24q-41 35 -168 35q-115 0 -176 -25q-4 1 -9 1q-33 0 -95 -35q-61 -39 -93 -70q-72 -78 -108 -193q-53 -154 -68 -188q-39 -8 -45 29q-4 27 2 63q6 41 15 252 q6 203 22 215q14 12 49 8l54 -4q2 0 39.5 1t117.5 2t170 1q254 4 398 4h84q246 0 266 -10q6 6 14 6q35 0 35 -47q0 -16 -12 -26q-41 -33 -129 -125q-98 -106 -97 -133l-247 -447q-207 -371 -234 -385q-6 -29 -90 -174q-76 -131 -76 -182q0 -47 68 -56q25 -4 100 -4 q199 0 279 21q12 -2 37 -2q154 0 272 149q76 98 151 283q66 160 82 162q16 4 25.5 -9.5t9.5 -42.5q0 -6 -8 -55t-17.5 -130t-9.5 -163q-6 -233 -6 -235q0 -27 -51 -35q-31 -6 -68 -6q-25 0 -110 6q-38 4 -71 4q-22 0 -40 -2q-25 4 -61 4q-31 0 -199 -10q-164 -10 -213 -10 q-92 0 -119 16l-22 -8q-332 0 -336 2q-47 -33 -66 -33q-23 0 -41 20.5t-18 41.5z" />
<glyph unicode="[" horiz-adv-x="669" d="M14 -573q-2 20 6 86q12 84 13 96q-8 1139 -10 1804v88q4 57 14 88q18 47 188 47q147 0 183 -24q0 -100 -115 -101q-31 0 -76 7q-41 8 -55.5 8t-16.5 -8l-4 -1813q2 -2 -2 -76q-4 -72 0 -108q4 -55 17 -56q86 6 153 21q72 12 80 12q23 0 25 -20q2 -12 -6 -70 q-2 -27 -84 -33q-131 0 -197 -2q-27 -18 -53 -18q-47 0 -60 72z" />
<glyph unicode="]" horiz-adv-x="632" d="M-20 -604q0 59 256 63q27 0 26 496q0 393 -14 981q-12 565 -12 567q2 16 -7.5 24.5t-29.5 8.5q-8 0 -54.5 -6t-60.5 -6q-76 -1 -80 73q-2 33 5 42.5t42 9.5q2 0 14.5 -1t37 -2t51.5 -1q127 -4 188 -5q16 -51 8 -184l-8 -1757q0 -35 6 -98q10 -53 -10 -205 q-10 -55 -123 -55q-35 0 -108.5 6t-102.5 6q-25 29 -24 43z" />
<glyph unicode="_" horiz-adv-x="1556" d="M-4 -424q0 51 76 66q25 4 86 -9l96 -14q666 16 1124 23q57 0 88 -2q123 -5 123 -54q0 -20 -45 -80q-31 -12 -119 -6h-1075q-41 0 -98 -8q-49 -10 -172 8q-84 12 -84 76z" />
<glyph unicode="`" horiz-adv-x="1075" d="M350 1591q0 6 6 15q4 6 37 20t41 27q72 -25 176 -54q29 -20 39 -137l17 -192q10 -47 -37 -78q-23 16 -49 51q-61 84 -209 299q-20 29 -21 49z" />
<glyph unicode="a" horiz-adv-x="1058" d="M-8 248q0 49 12 123q20 117 172 153l268 43q139 35 140 146v94q0 61 -9 80q-25 90 -122 90q-55 0 -90 -35t-41 -96l-13 -105q-25 -67 -88 -67h-2q-57 0 -115 47q-53 49 -53 108q0 82 111 144q94 51 180 51h6q47 29 115 31h8q53 0 156 -49q113 -51 131 -95 q51 -104 51 -313q0 -18 -4 -149.5t-4 -141.5q0 -147 30 -205q18 -33 50 -36l57 -11q5 -11 5 -22q0 -23 -25 -39q-23 2 -101 2q-41 6 -145 51q-16 16 -39 51q-27 37 -41 37q-20 0 -57 -41q-45 -49 -56 -51q-98 -47 -198 -47q-111 0 -193 51q-96 61 -96 201zM221 362 q-2 -7 -2 -15q0 -11 4 -23q10 -35 10 -37q2 -53 35 -105q33 -57 82 -69q14 -4 33 -4t43 4q53 10 68 26q57 59 65 131l8 146l8 45v6q0 23 -13 40q-11 14 -27 14q-5 0 -11 -1q-59 -20 -131 -41q-4 -2 -55 2q-39 2 -53 -6q-43 -37 -64 -113z" />
<glyph unicode="b" horiz-adv-x="1325" d="M-35 1604q0 39 27 57q162 0 244 -2q186 -2 192 -49v-9q0 -35 -8 -184q-12 -190 -12 -274q0 -127 22 -144q150 82 281 82q201 0 321 -182q111 -162 111 -391q0 -145 -49 -262q-53 -127 -154 -185q-33 -12 -121 -63l-160 -16q-59 0 -108 22q-14 8 -62 55q-39 39 -65 39 q-10 0 -23 -6q-12 -2 -24 -47q-8 -41 -37 -61q-51 -33 -201 -33q-131 0 -131 49q0 20 29 53q6 -1 19 -1q27 0 83 3q25 2 25 60q8 330 8 599q0 359 -14 609l4 123q0 82 -23 131q-4 6 -12 6q-88 0 -131 -16q-31 -14 -31 37zM377 393q0 -137 90 -223q82 -76 192 -76 q86 0 143.5 50.5t65.5 142.5q0 23 2 41q7 61 7 256v98q0 18 -15 53q-8 20 -24 109q-16 74 -35 98q-43 53 -174 53q-66 0 -94 -22q-43 -31 -91 -115q-49 -88 -51 -135q-2 -18 -2 -37.5t2 -42.5q0 -14 1 -32.5t2 -29t1 -14.5q0 -23 -10 -88t-10 -86z" />
<glyph unicode="c" horiz-adv-x="1073" d="M4 532q0 141 72 285q-4 20 -4 31q0 80 137 153l186 93h41q144 0 223 -25q141 -39 189 -174q20 -55 20 -98q0 -63 -43 -90q-29 -20 -73 -21q-55 0 -89 32t-34 87q0 12 4 51t4 49q0 27 -10 43q-10 18 -82 66q-34 24 -67 24h-3q-96 0 -164 -161q-65 -154 -65 -343v-6 q0 -285 139 -399q45 -39 113 -39q129 0 215 107q20 23 32 67q12 43 23 68q31 63 61 63q41 0 41 -82q0 -147 -141 -258q-29 -12 -86 -61q-35 -6 -104 -14q-86 -10 -125 -11q-57 0 -84 15q-23 10 -103 67q-94 66 -104 82q-14 20 -29 74q-14 57 -26 78q-63 113 -64 247z" />
<glyph unicode="d" horiz-adv-x="1259" d="M6 410q-1 8 -1 24q0 31 3 90q6 90 6 115q2 82 92 203q90 123 177 145q20 2 65 17q49 28 91 28h3q37 0 103 -33q59 -29 104 -29q7 0 13 1q20 12 20 53q0 14 -6 61.5t-6 53.5v2v2v2v2v2v2v2v2v2v2v2v2v2v2v2v2v3v2v2v2v2v2v2v2v2v2v2v2v2v2v2v2v2v2v2v2v2v3v2v2v2v2v2v2v2 v2v2v2v2v2v2v2v2v2v2v2v2v2v3v2v2v2v2v2v2v2v2v2v2v2v2v2v2v2v2v2v2v2v2v3v2v2v2v2v2v2v2v2v2v2v2v2v2v2v2v2v2v2v2v2v3v2v2v2v2v2v2v2v2v2v2v2v2v2v2v2v2v2v2v2v2v3v2v2v2v2v2v2v2v2v2v2v2v2v2v2v2v2v2v2v2v3v2v2v2v2v2v2v2v2v2v2v2v2v2v2v2v2v2v2v2v2v3v2v2v2v2v2v2v18 q0 45 -58 45q-6 0 -34.5 -2t-38.5 -2q-92 0 -93 49q0 18 21 33q16 10 92 16q44 4 71 4q14 0 23 -1q9 -2 39 -2t82 2h22q67 0 87 -11q49 -25 53 -84q-8 -49 -14 -176q0 -6 7 -54t7 -67q0 -25 -6 -49q-6 -16 -6 -170q0 -150 2 -153q4 -16 4 -44q0 -18 -2 -42l-6 -88 q0 -8 10 -39t10 -45.5t-2 -22.5q-6 -12 -16 -78v-62q0 -114 6 -155v-123q4 -88 43 -98q4 -2 47 -2q31 0 49 -12q0 -31 -2 -43q-2 -45 -16 -52q-9 -4 -25 -4q-63 0 -108 23q-8 4 -19 4q-18 0 -63 -12q-43 -14 -68 -15q-70 0 -70 109q0 16 2 35l-12 2q-16 -8 -98 -82 q-66 -61 -105 -62q-35 0 -65 35q-20 -14 -49 -14q-47 0 -113 43l-96 69q-31 20 -94 144q-59 119 -62 160zM242 440q0 -37 4 -65l30 -135q27 -92 56 -117q24 -21 69 -21q20 0 45 4q29 2 95 27q135 94 161 193q10 45 11 249q0 23 3 73t3 57q0 65 -43 137q1 3 1 6q0 29 -50 65 h-4q-31 0 -91 29h-18q-32 0 -90 -4q-14 -2 -39 -27l-33 -37q-14 -6 -41 -22q-29 -41 -49 -178q-20 -125 -20 -234z" />
<glyph unicode="e" horiz-adv-x="1050" d="M0 539q0 248 170 407q6 16 59 39q66 27 72 35q61 49 158 49q104 0 215 -51q47 -23 104 -137q61 -123 62 -209q0 -66 -39 -86q-20 -10 -152 -11h-149q-172 -4 -213 -14q-45 -8 -45 -96q0 -109 61 -223q66 -127 150 -133l61 -19q5 -1 10 0q43 0 111 62q63 57 94 112l29 78 q25 61 51 61q47 0 47 -77q0 -59 -41 -146q-35 -73 -72 -106q-35 -6 -102 -51q-54 -35 -133 -35h-16q-225 8 -363 178q-129 158 -129 373zM260 764q0 -6 3 -28.5t3 -30.5v-11q0 -59 29 -65q16 -4 41 -4q82 0 170 18q105 20 123 53q12 20 12 49q0 74 -61 144q-61 74 -136 74 q-66 0 -125 -66t-59 -133z" />
<glyph unicode="f" horiz-adv-x="641" d="M-8 63q0 8 4 21l61 20q16 -4 21 -4q45 0 45 70q0 14 -3 49t-3 41q0 14 -1 59.5t-2 133.5t-1 176q-6 334 -9 338q-25 2 -48 18t-23 35q0 10 2 15t14 13.5t37 16.5q31 12 31 37q0 168 43 299q61 201 190 203q66 53 160 53q119 0 227.5 -78t108.5 -166q0 -37 -25 -72 q-27 -43 -92 -43q-51 0 -85 31q-30 28 -30 70v10q0 6 16.5 44t16.5 48q0 23 -35 33q-53 68 -102 68q-80 0 -131 -154q-45 -129 -45 -274q0 -78 18 -103q12 0 48 -9t44 -9q10 0 35 9t35 9q45 0 45 -41q0 -29 -35 -45q-26 6 -74 6q-39 0 -92 -4q-12 -17 -12 -295v-84 q2 -434 5 -434q1 0 1 4v-5q0 -52 39 -62l84 -21q6 -59 6 -63q0 -33 -47 -33q-27 0 -45 2l-27 20q-76 -20 -200 -20q-170 0 -170 67z" />
<glyph unicode="g" horiz-adv-x="1062" d="M0 139q-5 60 -5 99q0 47 7 63q25 55 94 94q61 33 62 64q0 12 -6 26q-4 16 -52 52q-45 33 -61 71q-16 49 -16 97q0 29 10 86l14 92q174 186 318 186q45 0 290 -55q46 71 169 71h3q133 0 134 -84q0 -53 -70 -129q-20 -16 -39 -16q-25 0 -50.5 24.5t-29.5 51.5 q-14 8 -24.5 8t-10.5 -14q0 -4 22.5 -84t22.5 -133q0 -45 -12 -84q-51 -150 -242 -197l-299 -41q-105 -20 -105 -95q0 -19 7 -42q14 -51 68 -51q8 0 34.5 2t32.5 2q31 0 43 -19q23 6 78 6h84q74 2 84 13q12 -10 174 -31q90 -12 158 -131q63 -109 63 -225q0 -45 -12 -78 q-45 -139 -199 -215q-137 -66 -311 -66q-147 0 -256 45q-68 25 -117 99q-47 76 -47 151q0 63 37 107q20 25 113 51q78 25 92 82l-156 37q-84 25 -94 110zM184 -362q0 -6 15 -19q35 -37 80 -80q51 -28 89 -28h3q6 0 46 6t62 6q106 0 183 39q94 45 110 139l16 96q0 25 -8 49 q-39 137 -235 138q-117 0 -213 -52q-104 -55 -123 -133v-8q0 -25 6 -125q-31 -18 -31 -28zM236 711q2 -51 8 -107q12 -59 43 -96q16 -16 69 -34q41 -14 63 -14q8 0 13 1q76 14 103 65q23 39 24 123q0 14 8 47q5 25 5 39q0 5 -1 8l-28 150q-6 53 -45 88t-90 35 q-115 0 -170 -158q-4 -12 -4 -63q0 -33 2 -84z" />
<glyph unicode="h" horiz-adv-x="1292" d="M6 1595q0 29 27.5 50.5t60.5 21.5q14 0 21 -2q6 -2 26 -2q46 0 168 10q10 0 27 2l31 2h-2q39 -4 41 -37q5 -33 5 -73q0 -30 -3 -64q-10 -127 -11 -153l-2 -154l-6 -139q-1 -20 -1 -36q0 -57 11 -67q12 -4 21 -4q33 0 115 51q84 53 124 54q20 0 41 -11q29 -16 172 -30 q53 0 119 -105q66 -102 66 -161l6 -508l8 -68q3 -45 19 -68l79 -43q6 -8 7 -20q0 -43 -39 -49h-410q-45 20 -45 59q0 18 16 41h7q21 0 71 8q43 18 43 82q0 23 -6 45q14 18 18 387v136q-8 53 -20 112q-18 59 -68 107q-31 8 -65 8q-76 0 -137 -37q-152 -86 -152 -252v-4 q0 -2 1 -10t1 -18.5t1 -28t1 -35.5v-279q0 -104 6 -139q18 -94 84 -94q25 0 43 8q2 -12 15 -20l-6 -41q-63 -35 -99 -35h-364h-4q-12 0 -20 10q-8 12 -9 39q0 23 10 29q7 -1 13 -1q39 0 69 42q25 41 25 92q4 352 4 512q0 107 -2 129v13q0 22 4 61q2 12 4 25t3 20.5t2 14.5 t1 11v6q-8 188 -10 375l2 135q0 43 -62 56l-92 12q-4 12 -4 22z" />
<glyph unicode="i" horiz-adv-x="606" d="M-2 1014q10 20 80 41h127q104 -4 119 -15q36 -26 36 -195v-9q0 -70 -6 -172q-6 -119 -6 -121v-22q0 -37 4 -95q6 -92 6 -117q-3 -22 -3 -51q0 -39 5 -92q12 -49 25 -57q21 -19 115 -35q16 -20 16 -33q0 -53 -203 -53q-2 0 -15 1t-40 2t-55 1q-186 6 -187 49q0 16 29 45 q14 -6 29 -6q67 0 67 139q0 63 -12 146q14 20 14 90q0 68 -2 100q-5 8 -5 46q0 19 1 46q1 43 1 70t-1 37q-10 29 -18 82q0 20 2 59q4 37 -17 53h-11q-93 0 -95 66zM109 1511q0 49 32.5 81t81.5 32q68 0 119 -49q55 -52 55 -123v-10q-16 -43 -96 -115q-23 -18 -45 -18 q-51 0 -100 67q-47 72 -47 135z" />
<glyph unicode="j" horiz-adv-x="686" d="M-27 -483q18 18 68 28q45 6 65 21q35 27 64 106q31 86 31 557q0 451 -31 533q20 49 20 76q0 29 -22 51q-25 6 -57 -2q-39 -8 -56 -8q-25 0 -43 12q-31 18 -30 53q0 37 34 49q19 5 66 5q16 0 35 -1l106 -6q18 0 65.5 8.5t76.5 8.5q14 0 22 -4q57 -27 57 -220 q0 -84 -12 -229t-12 -164q0 -128 18 -323l25 -31q1 -7 1 -16q0 -39 -13 -125q-16 -111 -25 -146q-43 -158 -217 -246l-133 -67q-27 -20 -58 -21q-67 0 -67 52q0 27 22 49zM104 1401q0 57 37 97t97 40q65 0 137 -53q29 -23 28 -74q0 -72 -41 -102q-10 -10 -49 -19 q-51 -12 -90 -12q-41 0 -63 16q-55 41 -56 107z" />
<glyph unicode="k" horiz-adv-x="1306" d="M-29 1606q0 6 4 22q23 23 88 23q12 0 57.5 -2t55.5 -2q25 0 35 2q22 3 42 3q64 0 107 -34q8 -8 13 -141v-156q0 -18 6 -79.5t6 -78.5q0 -37 -10 -196q-8 -129 -8 -209q0 -57 2 -78q11 -3 23 -3q68 0 183 85q137 102 142 172q-27 27 -55 27q-6 0 -31 -5.5t-31 -5.5 q-23 0 -43 15q-12 20 -8 30q12 29 246 29q37 0 172 -4q76 0 114 -2q10 -10 11 -25q0 -18 -21.5 -34.5t-44.5 -16.5q-2 0 -42 16q-29 11 -49 11q-8 0 -15 -2q-88 -25 -191 -127q-147 -154 -164 -166q-14 -33 6 -58q27 -16 43 -28q244 -250 353 -410q84 -123 184 -127 q14 2 45 2q21 -2 27 -39q-25 -8 -129 -34q-16 -4 -50 12q-31 14 -49 14q-134 -6 -245 -6h-54q-13 -17 -47 -17q-7 0 -14 1q-23 29 -23 47q0 30 80 29q19 0 43 -1q23 35 23 39q0 6 -2 8q-18 35 -148 193q-135 168 -164 193q-18 2 -63 26q-23 -2 -23 -108q0 -57 7 -177 q8 -106 8 -157q0 -27 35 -27q10 0 20 2h21q52 0 52 -50q0 -5 -1 -11q-25 -4 -56 -4q-21 0 -45 2q-14 -6 -30 -6q-23 0 -52 12q-14 6 -28 6q-12 0 -52 -11.5t-53 -11.5l-121 3q-12 -4 -18 -5q-25 0 -45 17.5t-20 40.5q0 8 4 20q14 12 39 13q12 0 63 -11q33 -8 53 -4 q16 6 23 41q2 4 -12 74q0 27 6 80q8 47 8 76q0 14 -4 43q-20 90 -21 198q0 59 11 105q2 9 2 53t-2 123l-9 205q-5 83 -5 134q0 39 3 60q2 14 2 43q0 27 -6 94q-5 33 -5 64q0 16 1 31l14 26q8 14 -12 41q-16 18 -37 29h-69q-55 2 -56 35z" />
<glyph unicode="l" horiz-adv-x="671" d="M-47 1585q0 25 55 37l103 12q51 5 78 5q14 0 22 -1q4 0 21.5 -6t23.5 -6l23 14h6q41 0 77 -24q6 -16 11 -182v-49q0 -114 -8 -148q4 -23 14 -66q1 -6 1 -14q0 -41 -24 -137v-4q2 -2 3 -12.5t2 -22.5t4 -33q4 -28 3 -72q0 -29 -1 -65l-9 -139v-22q0 -67 9 -210 q10 -174 10 -231v-10q0 -112 108 -146q20 -33 21 -43q0 -2 -5 -3t-11.5 -3t-8.5 -4q-12 -10 -128 -10t-335 10q-14 0 -22 25l-16 36q10 12 94 48q70 27 69 61q0 123 -16 217q11 16 11 38q0 15 -5 32q-2 6 -2 18q0 20 8 45l13 43q2 11 2 39q0 42 -4 121q-3 72 -3 121.5 t3 75.5q4 40 4 58v9q-2 14 -29 60q27 59 27 81q0 2 -4.5 13.5t-9.5 32t-5 43.5q3 64 3 116q0 203 -44 219q-10 4 -37 0q-33 -6 -45 -6q-20 0 -38.5 11.5t-18.5 27.5z" />
<glyph unicode="m" horiz-adv-x="1898" d="M-6 981q23 68 104 68q23 0 90 -11q60 -8 83 -8h8l98 6q10 -84 78 -84q45 0 59 39q72 55 164 56q100 0 207 -66q33 -16 71 -121q8 -14 23 -14q29 0 100 74q88 94 90 94q111 39 189 39q166 0 272 -205q14 -23 15 -55q0 -12 -4.5 -47t-4.5 -44q0 -12 4 -32q20 -80 25 -219 v-228q-10 -10 -10 -30q0 -53 31 -93h11q99 0 99 -36q0 -31 -72 -72l-77 -4q-7 -1 -13 -1q-33 0 -63 17q-36 -14 -60 -14q-20 0 -32 10q-45 -10 -80 -10q-115 0 -115 80q0 6 4 26l84 4q41 2 51 64q14 102 15 260q0 504 -191 504q-25 0 -55 -10q-178 -61 -178 -373 q0 -53 6 -111q-15 -11 -15 -96q0 -19 1 -41q2 -102 12 -150q10 -53 90 -53q10 0 25.5 2t27.5 2l13 2q18 -27 18 -49q0 -71 -213 -71h-6q-20 0 -127 4q-20 0 -45 1t-38 2t-20 1q-8 0 -32.5 -4t-28.5 -4q-45 0 -45 61q0 29 16 49q47 -4 65 -4h9q43 6 49 45q14 94 15 334 q0 360 -17 389q-27 37 -125 84q-16 8 -37 8q-63 0 -141 -104q-47 -63 -88 -156q0 -147 2 -450q0 -35 -2 -54q4 -39 29 -41q0 -27 65 -32q68 -2 80 -23q2 -9 2 -17q0 -39 -40 -61q-48 -26 -157 -26q-49 0 -161 10q-88 8 -117 8q-86 0 -86 33q0 12 12 63l47 15q23 -14 43 -15 q68 0 68 164q0 23 -4 88l-4 41l-17 19q2 14 13 133q12 139 12 235q0 135 -25 148q-4 2 -80 18q-49 8 -69 39z" />
<glyph unicode="n" horiz-adv-x="1208" d="M-20 985q4 80 43 80l47 -6q49 -6 77 -6q61 0 132 18l32 -22q0 -66 21 -148q117 104 166 133q51 33 104 33q29 0 47 -2q66 -6 94 -12q57 -8 86 -29q147 -94 148 -403q0 -59 -6 -170t-6 -158q0 -154 53 -195q6 2 16 2q39 0 39 -53q0 -39 -26 -47q-53 -14 -138 -14 q-34 0 -73 2q-69 3 -117 3q-65 0 -96 -5h-3q-6 0 -12 7q-6 9 -8 27q-4 35 2 43q27 14 84 39q68 39 70 127q0 143 -8 351q-12 285 -29 313q-42 65 -153 65h-3q-27 0 -47 -6q-184 -66 -184 -465v-8q0 -124 28 -368l76 -21q49 -18 49 -45q0 -16 -18 -39q-124 6 -200 6 q-114 0 -120 -14q-15 -2 -32 -2q-46 0 -107 12q-10 16 -10 27q0 49 94 67q29 92 31 334l-6 326v29q0 8 3 43.5t3 48.5q0 80 -57 88q-37 0 -86 14z" />
<glyph unicode="o" horiz-adv-x="1110" d="M-2 563q0 90 47 144q-1 5 -1 11q0 82 161 208q164 129 254 129h9q188 0 280 -82q43 -37 167 -242q49 -84 50 -178q0 -115 -78 -283l-82 -125q-45 -41 -82 -63q-68 -39 -84 -53q-31 -4 -82 -19q-55 -16 -84 -16q-12 0 -55 9t-56 9q-18 10 -86 33q-61 23 -81 47 q-82 98 -121 148q-45 57 -62 118q-14 68 -14 177v28zM236 479l40 -209q35 -117 109 -178q14 -12 51 -22q30 -10 44 -10q4 0 7 1q119 37 168 117q18 33 72 197q6 20 6 45q0 33 -31 125q18 41 19 82q0 53 -27 118q4 20 4 29q0 92 -100 193q-13 13 -56 13q-11 0 -24 -1 q-33 -2 -84 -10q-82 -2 -139 -88q-53 -84 -53 -179q0 -20 11 -64t7 -63l-18 -47q-6 -23 -6 -41v-8z" />
<glyph unicode="p" horiz-adv-x="1265" d="M-4 -516l139 14q33 5 33 125v27q-2 69 -2 113q0 66 4 77q8 18 8 271q0 631 -18 786q-6 39 -41 43h-66q-23 2 -39 16v41q0 29 15 35q8 4 104 12q91 9 103 9h2q12 -12 24 -13q6 0 33 14.5t37 14.5q29 0 55.5 -51t40.5 -51q16 0 45 59q82 53 166 53q94 0 201 -63 q166 -96 207 -195q25 -61 43 -297q-20 -195 -60 -258q-39 -66 -135 -153l-72 -68q-57 -45 -141 -45q-115 0 -168 45q-66 53 -100 59q-8 -10 -11 -278q-1 -99 -1 -164q0 -113 4 -121q8 -16 116 -24q109 -10 109 -49q0 -20 -19.5 -45t-54.5 -29h-68l-114 -2q-56 5 -196 5 q-70 0 -161 -1q-23 12 -23 66q0 10 1 22zM383 522q0 -123 14 -194q14 -76 86 -156q76 -88 154 -88q84 0 164 131q33 51 39 147q10 131 18 158q1 6 1 13q0 13 -5 30q-12 39 -12 43q-18 166 -47 221q-47 92 -64 115q-53 72 -104 72q-57 0 -127 -70q-68 -68 -86 -127 q-31 -109 -31 -295z" />
<glyph unicode="q" horiz-adv-x="1230" d="M-2 426q0 23 4 68q12 109 37 247q80 162 139 215q39 33 205 107q43 20 92 20q59 0 131 -41q68 -38 83 -38h1q33 0 41 75l66 17q6 -18 43 -19q27 0 76 8.5t81 8.5q92 0 92 -73q0 -11 -2 -24l-83 4q-37 0 -46 -202v-228q-4 -139 -8 -510q-1 -80 -1 -147q0 -285 14 -344 q-4 -20 -5 -29q0 -43 70 -51q72 -10 72 -25q-1 -22 -56 -73h-38q-62 0 -166 -4q-154 -6 -205 -6q-14 -8 -29 -9q-27 0 -47 21.5t-20 46.5q0 27 26 35q16 6 80 8q35 2 53.5 13t21.5 20.5t3 25.5q0 10 -9 48t-9 51q5 154 5 256q0 168 -14 194q-4 2 -9 2q-23 0 -66 -39l-70 -65 q-24 -2 -47 -2q-188 0 -332 102q-174 125 -174 336zM270 446q0 -143 13 -231q8 -72 63 -119t131 -47q92 0 170 86l70 90q12 94 31 279q6 121 6 145q0 145 -58 240q-55 98 -196 98q-57 0 -94 -24q-59 -37 -68 -52q-68 -100 -68 -465z" />
<glyph unicode="r" horiz-adv-x="897" d="M-8 1018q0 53 127 53q68 0 125 -14q61 -12 61 -25q0 -111 25 -121q127 170 286 170q142 0 156 -131q4 -29 4 -45q0 -68 -37 -109.5t-92 -41.5q-10 0 -31 4q-63 16 -79 61q-2 25 -11 74q-14 63 -49 63q-41 0 -84 -82q-32 -68 -32 -104q0 -7 1 -14q-10 -25 -12 -297 q-1 -55 -1 -100q0 -179 13 -199q-2 -29 68 -56t70 -49q0 -18 -33 -45l-66 2q-5 -16 -30 -16h-6l-46 4q-29 2 -77 2q-79 0 -209 -6q-6 25 -6 41q0 41 49 49t49 66q0 4 1 33.5t4 98t5 142.5q4 127 4 193q0 44 -2 61q-16 115 -16 225q0 78 -51 78q-16 0 -45 -6l-25 12 q-8 14 -8 29z" />
<glyph unicode="s" horiz-adv-x="937" d="M18 29v20q0 123 64 385l43 -16l55 -178q31 -90 131 -154q70 -49 135 -49q72 0 118 54t46 130q0 33 -8 58q-33 123 -141 176l-209 65q-131 41 -189 123q-25 33 -24 82q0 55 35 147q6 16 32 37q33 25 33 27l31 51q14 29 37 43q70 39 172 39q45 0 100 -10q14 -4 52 5t42 9 q14 0 27 -6q33 -14 70 -291l-29 -12q-43 23 -127 119q-72 82 -147 102q-41 10 -64 10q-59 0 -82 -53q-10 -27 -10 -90v-5q0 -98 145 -149l277 -94q149 -74 149 -229q0 -18 -4 -56q-8 -80 -59 -155q-25 -39 -109 -129q-18 -2 -129 -43q-61 -20 -112 -21q-45 0 -97 13 q-20 2 -65 28q-39 27 -64 31q-18 4 -55 -16q-39 -20 -51 -21q-14 0 -19 23z" />
<glyph unicode="t" horiz-adv-x="743" d="M-6 1012q0 20 14 35l60 10q18 20 18 67q0 14 -4 52t-4 43q0 12 2 16q6 16 113 61q100 43 127 43h4l-5 -129q-1 -21 -1 -40q0 -52 8 -87q19 -26 87 -26h5q16 0 63 3t54 3q10 -20 10 -41q0 -51 -43 -80q-8 0 -53.5 5t-59.5 3q-72 -4 -72 -88q0 -10 2.5 -42t2.5 -36 q0 -158 2 -434q0 -2 -1 -9t-2.5 -19.5t-1.5 -24.5q-2 -29 -2 -72q0 -110 49 -110h1q12 0 24 6q47 23 86 90q35 61 66 61q18 -27 18 -63q0 -82 -76 -158q-74 -74 -149 -78h-6q-91 0 -166 62q-78 67 -78 150v12q2 32 2 157q0 187 -4 584q-33 4 -61.5 26.5t-28.5 47.5z" />
<glyph unicode="u" horiz-adv-x="1245" d="M-18 1004q2 43 141 43q184 0 213 -29q6 -47 8 -346q0 -57 6 -215q4 -184 4 -215q0 -76 37 -130.5t92 -54.5q41 0 82 37l29 25q123 115 123 291v53q-2 23 -2 47q0 37 10 61q5 10 5 62q0 17 -1 39q0 61 -6 157q0 18 -1 35t-1 27t-1 18.5t-1 12.5v2q0 31 -31 30 q-16 0 -55 -12q-39 -8 -51 -6q-39 12 -39 51q0 57 96 57h96l84 -18q41 29 66 29q73 0 73 -218v-6q0 -16 -4 -155q-4 -135 -4 -148q0 -131 29 -159q0 -109 27 -240q4 0 9 -10t13 -10q17 0 66 12l28 -49l-10 -72q-34 -12 -139 -12h-31q-129 2 -168 20q-14 6 -14 37q0 8 2 32.5 t2 31.5q0 45 -31 45q-27 0 -86 -72q-63 -74 -96 -82q-76 -16 -129 -16q-188 0 -289 153q-12 18 -12 105v26l4 144q0 18 -6 67q-4 57 -4 68q0 57 22 98l-8 160q-10 123 -37 137q-43 0 -69 12q-41 16 -41 50z" />
<glyph unicode="v" horiz-adv-x="1048" d="M-61 1012q0 12 12 26q0 2 137 17q35 -10 107 -21q-2 0 92 13q94 12 143 12q35 0 41 -8q27 -27 27 -43q0 -27 -76 -33q-88 -10 -94 -17q-6 -8 -6 -32q0 -51 34 -187q25 -96 47 -159q16 -20 39 -76v-41q4 -27 25 -29q7 -1 13 -1q56 0 85 77l49 133q4 33 33 115 q33 84 33 129q0 27 -12 49q-2 8 -97 31q-8 8 -8 26q0 43 33 51q11 2 52 2q92 0 335 -12q25 -2 25 -16q0 -47 -125 -68q-39 -6 -60 -61q-4 -12 -11 -33.5t-9 -30.5l-86 -235l-43 -82q0 -31 -29 -117q-10 -14 -80 -166l-24 -37q-18 -25 -19 -41q0 -6 2 -10q-8 -23 -22 -90 q-8 -53 -37 -82q-78 6 -109 96l-28 154q-8 16 -54 127q-12 10 -20 24.5t-13 27t-9.5 32.5t-6.5 31.5t-5 36t-3 30.5t-26.5 32t-26.5 38q-2 2 2 45q2 23 -8 45q-55 92 -107 268l-67 19q-45 14 -45 41z" />
<glyph unicode="w" horiz-adv-x="1691" d="M-61 1012q0 12 12 26q0 2 137 17q35 -10 107 -21q-2 0 92 13q94 12 143 12q35 0 41 -8q27 -27 27 -43q0 -27 -76 -33q-88 -10 -94 -17q-6 -8 -6 -32q0 -51 34 -187q25 -96 47 -159l64 -146q12 -29 27 -28q27 0 65 100q45 125 55 137q4 63 129 293q-2 8 -59 12l-68 2 q-2 2 -15 10.5t-17 11.5t-14.5 11t-13.5 13t-6 14.5t-1 17.5t8 19q160 -4 260 -5q184 23 221 23q35 0 41 -6q27 -27 27 -43q0 -6 -4 -11.5t-13.5 -9.5t-17.5 -6t-23.5 -4t-25.5 -3t-27.5 -3t-25.5 -2q-8 -39 -35 -84q-4 -12 -4 -25q0 -72 82 -280q10 -12 35 -62 q23 -66 65 -71q6 -1 11 -1q55 0 85 91l52 149q4 45 16 88q16 66 16 95q0 35 -16 67q-4 6 -96 29q-8 8 -9 26q0 45 33 54q11 2 46 2q91 0 341 -15q25 0 25 -16q0 -47 -125 -68q-39 -6 -59 -61q-2 -8 -9.5 -29.5t-11.5 -34.5q-33 -94 -88 -235q-8 -14 -41 -82q0 -31 -29 -117 q-8 -16 -79 -166l-23 -32q-20 -27 -21 -43q0 -8 3 -11q-8 -20 -23 -90q-8 -55 -39 -82q-41 18 -82 103q-37 70 -55 145l-51 127q-49 86 -119 242q-6 14 -21 76q-4 -12 -28.5 -28t-28.5 -28q-25 -76 -78 -204q-14 -31 -24 -93q-6 -59 -19 -88l-24 -37q-18 -25 -19 -41 q0 -6 2 -10q-8 -23 -22 -90q-8 -53 -37 -82q-78 6 -109 96l-28 154q-8 16 -54 127q-12 10 -20 24.5t-13 27t-9.5 32.5t-6.5 31.5t-5 36t-3 30.5t-26.5 32t-26.5 38q-2 2 2 45q2 23 -8 45q-55 92 -107 268l-67 19q-45 14 -45 41z" />
<glyph unicode="x" horiz-adv-x="1165" d="M-51 1014q0 41 121 41q57 0 166 -13q20 -4 58 6.5t46 10.5q29 0 70 -15q20 -8 20 -36q0 -25 -12 -37q-8 1 -14 1q-56 0 -56 -44q0 -57 76 -146q65 -73 98 -73q6 0 10 2q78 119 78 192q0 70 -81 70h-13q-8 14 -8 31q0 53 151 53h11q141 -2 217 -2q12 3 24 3q37 0 68 -34 q16 -17 16 -36q0 -15 -10 -30q-10 -16 -49 -14h-59q-35 -10 -84 -59q-68 -63 -80 -72q-8 -39 -72 -108q-61 -68 -61 -101q0 -39 51 -72q45 -106 170 -280q136 -193 203 -193q7 0 14 2q6 -16 6 -26q0 -63 -129 -64q-53 0 -152 13l-118 14q-86 2 -86 51q0 6 4 19q6 6 45 14 q27 8 30 24q-27 78 -81 162q-68 101 -114 101q-6 0 -11 -2l-52 -103q-36 -70 -36 -110q0 -27 12 -50q2 -4 65 -20q61 -14 62 -37q0 -20 -27 -41q-80 -2 -393 -6q-41 29 -41 72q0 23 23 32q6 4 34 0q18 -2 41 15q53 41 129 137q80 100 97 156q6 14 6 37q0 139 -312 512 l-49 10q-23 27 -22 43z" />
<glyph unicode="y" horiz-adv-x="1144" d="M-197 -479q0 57 43 131q29 47 95 47q33 0 55 -15.5t53 -70.5q47 -80 51 -86q18 -23 43 -23q53 0 125 97q63 88 68 141q35 57 82 162q6 39 6 73q0 29 -6 57.5t-21.5 62.5t-26 54.5t-33 62.5t-30.5 56l-22 97q-14 33 -47 84q-41 66 -50 102q-29 127 -100 346q-10 23 -68 41 q-63 20 -86 41q-2 6 -2 18q0 39 64 39q12 0 29 -4q47 -12 94 -12q10 0 50 2t52 2q37 0 74 -6q9 -1 19 -1q21 0 48 5q34 7 55 7q8 0 15 -1q43 -10 43 -47q0 -27 -18.5 -47.5t-42.5 -13.5q-20 -6 -58 -2l-20 -21q-1 -22 -1 -42q0 -133 56 -206q10 -14 15 -55q2 -27 8 -59 q12 -27 65 -109q61 -96 72 -106h24q16 27 23 75q8 61 16 80q6 20 50 96q35 59 34 103q27 66 39 125q41 45 41 78q0 14 -3 23t-21.5 18.5t-53.5 9.5q-14 0 -62 -3t-54 -3q-18 23 -19 49q0 51 56 51q419 0 446 -8q2 -26 2 -46q0 -33 -6 -52q-16 -10 -49 -11q-8 0 -38 2t-38 2 q-39 0 -57 -12q-16 -12 -27.5 -32.5t-14.5 -35t-6.5 -48t-5.5 -42.5q-41 -139 -116 -329l-129 -326q2 -10 -33 -106l-45 -121q-14 -8 -27 -62q-12 -61 -20 -71q-12 -12 -47 -58q-74 -141 -88 -168q-55 -88 -142 -121q-47 -20 -125 -20q-96 0 -170 35q-82 45 -82 127z" />
<glyph unicode="z" horiz-adv-x="1093" d="M29 47q90 123 127 174q72 104 192 326q133 244 189 327q16 27 2 52q-33 55 -131 55q-92 0 -146 -41q-39 -27 -86 -102q-45 -72 -57 -123q-20 -20 -37 2q4 70 4 110q0 26 -2 39q-2 6 -8 20.5t-6 18.5q0 8 10 25q-6 27 -6 47q0 55 78 59q82 0 122 -2q35 -6 72 -6t105 6 q6 0 100 10q23 0 65 -12q40 -10 60 -10h6q18 0 42 9t42 18.5t20 9.5h4q17 1 31 -15q15 -18 15 -40q0 -10 -5 -23q-39 -29 -94 -90q-8 -12 -30 -90q-18 -70 -62 -121q-29 -35 -57 -90l-51 -92q-35 -39 -74 -88q-53 -68 -133 -213q-10 -20 -11 -33q0 -68 179 -68q135 0 180 27 q8 4 19.5 30.5t15.5 30.5q27 23 63 111q33 74 53 82q14 4 24.5 -12.5t14.5 -53.5q3 -26 3 -49.5t-3 -42.5q-1 -7 -1 -17q0 -25 7 -67q12 -63 13 -90q-1 -37 -17 -55q-15 -17 -43 -17h-6q-8 4 -35 33q-23 0 -68.5 5t-53.5 5q-12 0 -52.5 -8t-52.5 -8q-23 0 -70 12 q-43 14 -71 15q-18 0 -37 -7h-15q-46 0 -155 9q-43 -43 -115 -43q-31 0 -55 12q-14 19 -14 36q0 7 2 13z" />
<glyph unicode="|" horiz-adv-x="706" d="M209 -584q-4 23 6 86l14 97l-12 1804q0 59 2 88q4 57 14 88q27 76 37.5 76t24.5 -15q53 -156 51 -188l-8 -1757q0 -35 6 -98q8 -47 -6 -172q-12 -84 -70 -84q-45 0 -59 75z" />
<glyph unicode="&#xa1;" horiz-adv-x="548" d="M4 1241q0 74 53 98q31 10 54 11q49 0 84.5 -36t35.5 -81q1 -62 -67 -80q-37 -10 -60 -10q-100 0 -100 98zM39 -16q0 106 24 350q23 244 21 346q0 8 -3 32.5t-3 30.5q0 35 47 58q61 -2 70 -33q25 -74 53 -330q26 -219 26 -342q0 -6 1 -16t2.5 -28.5t1.5 -35.5q6 -61 6 -98 q0 -178 -117 -178q-20 0 -47 6t-51 51q-25 51 -27 80q-4 70 -4 107z" />
<glyph unicode="&#xa2;" horiz-adv-x="1255" d="M4 528q0 133 72 267q111 129 198 188l121 70l25 20q-4 80 31 80q8 0 49 -25q2 -4 2 -8q0 -2 -7.5 -10t-5.5 -16l15 -41q279 -8 344 -187q20 -49 20 -90q0 -59 -43 -86q-29 -20 -73 -20q-55 0 -89 30.5t-34 81.5q0 12 4 49t4 46q0 25 -10.5 41t-81.5 61q-2 2 -6 2 t-16.5 -7t-16.5 -5l-8 -856q133 4 215 100q20 20 32 61q10 35 23 66q31 57 61 57q41 0 41 -75q0 -141 -141 -242q-31 -14 -86 -57l-137 -19q0 -25 -8 -74q-10 -47 -47 -47q-29 0 -39 43q-2 8 10 72q-47 0 -92 14q-111 31 -209 162q-12 16 -29 57q-14 43 -24 64 q-63 106 -64 233zM246 541q0 -283 139 -391q4 -4 20.5 2t20.5 4l-10 802q-72 -6 -121 -133t-49 -284z" />
<glyph unicode="&#xa3;" horiz-adv-x="1536" d="M-27 881q0 35 80 47q61 6 76 4q-4 12 1 36.5t5 28.5q-4 16 -3 79t-5 79q-6 20 25 98q33 90 36 111q53 96 95 127q29 20 141 80q119 59 231 59q156 0 267 -98q104 -92 104 -201q0 -102 -102 -155l-86 -7q-8 -4 -15 -4q-27 0 -55 60q-20 43 -27 84q-2 10 41 80q45 66 45 98 q0 29 -36 35q-14 39 -91 39q-68 0 -104 -52q-88 -6 -143 -102q-49 -80 -56 -174l-16 -252q31 -31 70 -37h57q61 4 182 -12q37 -10 37 -27q0 -12 -49 -55q-31 -10 -121 -6l-174 -15q10 -68 33 -170l10 -45l23 -170l30 -41q80 -8 127 -14q74 -20 262 -147q31 -20 31 -43 q0 -8 -6 -21q16 16 43 17q4 0 18.5 -2.5t18.5 -2.5q31 0 31 41v11q-2 6 -3 12q0 39 29 39q18 0 57 -17q10 -96 -88 -188q-96 -92 -170 -78q-115 20 -196 101q0 2 -101 127q-49 61 -104 57q-18 -115 -51 -160q-57 -78 -191 -67q-117 31 -116 122q0 76 77 142q84 70 218 76 q-12 88 -54 204q-12 39 -100 207q-41 -4 -150 8q-88 8 -88 54zM127 201q0 -63 66 -68q16 -4 28 -4q138 0 148 188q-125 0 -189 -38q-53 -35 -53 -78z" />
<glyph unicode="&#xa4;" horiz-adv-x="1583" d="M-4 686q0 41 65 53q8 2 52 -2q0 4 4 15.5t10 21.5l4 8q-8 8 -18 47q-68 12 -68 62q0 39 66 51l12 16q12 16 16 17q14 109 4 133q-4 61 111 227q119 172 203 201q-10 0 100 47q111 45 195 49q111 2 206 -26q59 -20 107 -52q39 -20 45 -18q8 4 23.5 14.5t23.5 15.5t20.5 10 t20.5 5q49 0 49 -45q0 -16 -6 -41l-10 -39q0 -12 5 -37.5t1 -40.5l2 -168q0 -166 -57 -166q-6 0 -23 5q-8 53 -24 131q-16 115 -74 196q-43 59 -125 131q-66 63 -139 64q-27 0 -68 -10q-25 -12 -78 -37q-47 -18 -121 -142q-66 -111 -81 -178q-14 -49 -21 -82l-14 -125 q8 -16 28 -67l457 12h76q102 -4 102 -45q0 -12 -37 -63q-20 -4 -100 -5h-526q-16 -16 -17 -41q0 -27 19 -63l434 14h76q43 -2 72.5 -13t29.5 -24q0 -8 -16 -24q-27 -23 -29 -31q-20 -8 -141 -18q-96 -8 -137 -8l-285 2q2 -14 -3 -34t-5 -24q20 -68 49 -200q18 -131 215 -277 q6 2 20 2q8 0 47 -7t60 -7q51 0 119 24q182 74 217 222q25 39 22 57q20 20 25 72q2 27 2 79q4 53 41 68q27 -68 26 -139q0 -121 -77 -240q-57 -88 -144 -151q-6 -6 -76 -23q-55 -23 -151 -49q-90 2 -145 10q-82 12 -146 45q-121 57 -225 180q-125 137 -131 261 q-33 53 -31 122l-59 9q-74 8 -74 63z" />
<glyph unicode="&#xa7;" horiz-adv-x="1126" d="M10 -133q-2 8 17 82q35 129 125 129q61 0 112.5 -52t59.5 -124q-10 -16 -11 -31q0 -27 18.5 -46.5t43.5 -19.5q23 0 39 15q94 70 94 141q0 96 -74 311l-49 80q-8 33 -41 101l-61 61q-35 37 -78 125q-49 100 -51 133l-13 148q-8 100 -35 135q4 29 -2 75q-6 57 -4 78 q2 18 27 78q23 49 27 82q57 100 133 164q43 37 174 119q20 12 51 12q8 0 43 -3t43 -3q10 0 50 8t52 8q74 0 139.5 -44t92.5 -113q8 -18 8 -41q0 -49 -42 -84t-99 -35q-27 0 -54 10q-43 14 -102 113q-55 88 -80 88q-35 0 -67 -111q-10 -35 -11 -67q0 -115 142 -342 q100 -168 170 -357q86 -229 86 -395q0 -55 -9 -94q-2 -20 -28 -60q-14 -23 -18.5 -39t-7.5 -36.5t-9 -38.5q-2 -6 -38 -29t-44 -43q-35 -90 -57 -115q-14 -16 -99 -78q-96 -70 -264 -69q-256 0 -299 174zM238 1079q-4 -68 12 -80q4 -49 53 -188q51 -143 84 -180 q87 -123 191 -301q31 -94 40 -256q16 -16 37 -15q39 27 56 144q10 16 34 86q8 27 9 71q0 197 -90 318q-8 47 -52 92q-51 55 -65 88q0 2 -88 246q-6 55 -33 151q-2 51 -30.5 93.5t-69.5 37.5q-35 -4 -47 -63q-2 -27 -11 -90q-2 -6 -5 -16.5t-8 -25.5t-9 -28q-4 -27 -8 -84z " />
<glyph unicode="&#xa8;" horiz-adv-x="1085" d="M193 1454q0 23 10 43q-10 43 55 78q53 29 100 31q53 4 84 -31t31 -90q0 -61 -33 -103q-35 -49 -92 -49q-11 0 -31 4q-47 -10 -85.5 29t-38.5 88zM668 1462q0 63 51 120.5t112 57.5q16 0 25 -2q20 -6 49 -35t31 -47q-8 -14 -10 -43q0 -68 -37 -114.5t-92 -46.5 q-27 0 -49 8q-80 25 -80 102z" />
<glyph unicode="&#xa9;" horiz-adv-x="1728" d="M-18 760q-2 0 0 24l4 97q16 276 303 579q35 6 110 68q80 66 125 74l33 22q82 45 193 45q197 0 409 -129q201 -121 279 -266q96 -176 96 -426q0 -244 -96 -408q-31 -51 -133 -157q-111 -111 -158 -146q-47 -25 -150 -92q-80 -14 -133 -35q-164 -6 -243 23q-16 -4 -29 -4 q-47 0 -127 28q-74 29 -107 54q-4 2 -30 39q-18 29 -35 24q-18 25 -62 64q-61 53 -65 59q0 2 -51 78q-53 76 -64 96q-10 20 -37 160q-25 127 -32 129zM61 877l19 -199q4 -39 100 -279q10 -29 78 -82q61 -47 82 -75q37 -74 156 -117q109 -39 247 -39q219 0 326 92 q184 156 201 172q68 70 127 193q-2 27 28 149q31 121 31 146q0 68 -33 178q-25 82 -49 180q-23 90 -151 219q-180 176 -408 176q-205 0 -434 -151q-23 -41 -100 -105q-70 -57 -84 -108q-8 -35 -84 -142q-4 -51 -21 -104q-25 -72 -31 -104zM348 803q0 131 58 239 q63 125 169 162l5 -20v2q-6 16 4 22q88 43 166 43q73 0 198 -47q51 31 80 31q39 0 39 -59q0 -31 -8 -78q-8 -51 -6 -64q6 -47 6 -73q0 -82 -53 -82q-14 0 -41 10q-12 14 -33 49q6 78 -47.5 137.5t-120.5 59.5q-109 0 -154 -144q4 -16 4 -33q0 -25 -12 -106q-10 -92 -10 -131 q0 -174 125 -256h112l68 37q37 27 45 59l6 8l2 23q8 8 19 72q6 45 80 67q20 -49 20 -106q0 -109 -84 -193q-82 -82 -201 -94q-63 6 -184 37q-74 35 -141 98q-76 78 -84 148q-18 27 -19 51q0 43 -2 49q-6 39 -6 82z" />
<glyph unicode="&#xab;" horiz-adv-x="1116" d="M8 496q0 180 84 276q188 221 303 238q14 4 25.5 -11.5t7.5 -29.5q-8 -45 -74 -113q-84 -92 -104 -123q-51 -74 -47 -155q-12 -31 -13 -66q0 -78 64 -174q35 -57 119 -148q61 -69 61 -75q-47 -23 -76 -13q-41 12 -172 125q-127 111 -153 156q-25 41 -25 113zM483 555 q0 76 88 260q35 20 121 103q82 76 121 81q29 4 35 5q35 0 35 -23q0 -25 -41 -61q-41 -35 -66 -31q-2 -14 -37 -70q-39 -63 -47 -71q-31 -35 -35 -86v-95q-16 -96 68 -231q72 -121 164 -189q12 4 16 5q35 0 35 -48q0 -27 -18 -26q-11 0 -21 8q-158 12 -244 109 q-47 47 -141 233q-33 63 -33 127z" />
<glyph unicode="&#xad;" horiz-adv-x="901" d="M27 512q0 74 77 90q23 4 86 -6q78 -14 97 -14q37 -4 94 8q61 12 90 12h88q61 -6 92 -20.5t31 -53.5q0 -55 -45 -118q-31 -8 -117 -7h-137q-35 0 -98 -6q-49 -10 -172 9q-37 4 -61.5 36.5t-24.5 69.5z" />
<glyph unicode="&#xae;" horiz-adv-x="1728" d="M-18 743q-2 0 0 25l4 96q16 276 303 580q35 6 110 67q80 66 125 74l33 23q82 45 193 45q197 0 409 -129q201 -121 279 -267q96 -176 96 -426q0 -243 -96 -407q-31 -51 -133 -158q-111 -111 -158 -145q-47 -25 -150 -92q-80 -14 -133 -35q-172 -4 -243 22q-16 -4 -29 -4 q-51 0 -127 31q-72 25 -107 51q-4 2 -30 39q-18 29 -35 25q-18 25 -62 63q-61 53 -65 60q0 2 -51 77q-53 76 -64 97q-10 20 -37 159q-25 127 -32 129zM61 860l19 -198q4 -39 100 -279q10 -29 78 -82q68 -51 82 -76q37 -74 156 -116q109 -39 247 -39q219 0 326 92 q184 156 201 172q68 70 127 192q-2 27 28 150q31 118 31 145q0 68 -33 180q-27 88 -49 179q-23 90 -151 219q-180 176 -408 176q-205 0 -434 -152q-23 -41 -100 -104q-70 -57 -84 -109q-8 -35 -84 -141q-4 -51 -21 -104q-25 -72 -31 -105zM367 424q0 25 28 41q27 0 68 8 q18 96 18 227q0 90 -8 207q-8 129 -8 201q0 20 2 31q0 16 -12 16q-66 4 -66 43q0 14 10 39q129 8 258 0q23 0 70 4t53 4q35 0 78 -12q170 -49 170 -211q0 -16 -4 -45q-8 -76 -158 -137q115 -4 152 -105q8 -39 29 -182q16 -96 73 -90q12 6 25 6q39 0 39 -45q0 -20 -13 -39 q-70 -12 -127 -12q-127 0 -176 63q-37 47 -37 137q0 12 2.5 53.5t2.5 49.5q0 61 -23 84q-8 12 -38 26.5t-50 14.5q-8 0 -12 -2h-56q-10 0 -14 -25q-8 -39 0 -145q10 -113 23 -146q43 -20 90 -8q35 -31 35 -53q0 -45 -152 -45q-23 0 -117 4q-78 6 -82 6q-10 -8 -26 -8 q-47 0 -47 45zM645 971l14 -97q184 0 189 117q4 57 -6 74q4 16 4 22q0 74 -133 74q-47 0 -56 -26q-4 -16 -4 -68q0 -20 -8 -51q-6 -25 0 -45z" />
<glyph unicode="&#xaf;" horiz-adv-x="1204" d="M111 1794q0 49 77 66q23 4 84 -9l99 -14q152 6 454 14h88q123 -4 123 -55q0 -16 -45 -80q-31 -8 -119 -6l-405 8q-43 0 -100 -8q-49 -10 -170 8q-86 12 -86 76z" />
<glyph unicode="&#xb0;" horiz-adv-x="868" d="M53 1331q1 125 144 260l219 25q33 4 102 -78q74 -82 76 -123q25 -266 -268 -315q-41 -6 -125 35q-82 39 -107 73q-41 57 -41 123zM203 1346q0 -63 41 -127q41 -59 92 -60q33 0 59 25q18 16 35 71q7 27 23 80q2 80 -35 131q-33 43 -82 43q-53 0 -93 -51t-40 -112z" />
<glyph unicode="&#xb2;" horiz-adv-x="1105" d="M27 928q0 37 153 104q211 94 285 142q154 100 153 215q0 20 -2 30q-55 72 -71 88q-45 45 -99 49q-57 6 -161 -18q-127 -29 -127 -76q0 -23 32 -49q16 4 27 4q41 0 69.5 -27.5t28.5 -64.5q0 -63 -75 -78q-27 -6 -54 -6q-68 0 -105.5 41t-37.5 104q0 258 399 259 q139 0 244 -33q119 -33 162 -99q31 -47 31 -96q0 -119 -191 -241l-196 -107q-4 -10 4 -16t27.5 -9.5t49.5 -3.5q66 0 117 15q61 14 72 39q23 70 53 92q88 -14 88 -66q0 -31 -37 -100l6 -41q-8 -39 -16 -90q-29 -16 -301 -17q-342 0 -338 0l-53 -4q-31 -4 -80 13 q-57 18 -57 47z" />
<glyph unicode="&#xb3;" horiz-adv-x="1085" d="M-4 1368q0 6 10 45t6 49q-10 45 -10 72q0 88 82 115q10 4 35 -7l24 -8q16 0 99 6q63 4 98 -2q37 8 129 7q35 0 70 2q37 2 84 2q111 0 153 -25q4 -29 -45 -61l-72 -45q-23 -14 -65 -62q-39 -49 -59 -67q-12 -10 -86 -48q-55 -27 -74 -51q23 -8 112 -10q115 -6 181 -39 q4 -2 26.5 -9t29.5 -11t23.5 -12.5t24.5 -18.5t14 -23q2 -14 23 -57q30 -47 16 -123q-10 -33 -18 -88q-10 -102 -113 -184q-100 -80 -237 -92q-43 -18 -111 -19q-172 0 -274 76q-59 41 -60 104q0 66 76 97q16 6 45 0q88 -14 94 -95q4 -72 60 -92q31 -14 71 -14q96 0 154 57 q16 16 72 88q51 70 51 82q-8 109 -80 228q-16 27 -53 41l-64 28q-41 4 -104 0q-12 -2 -119 -69q-104 -66 -129 -58q-37 12 -37 33q0 23 53 57l70 43q20 12 102 74q86 63 93 74q27 31 98 92q45 27 41 47l-17 8q-72 -4 -139 -14h-6q-4 2 -13 3t-22 1h-151q-35 -14 -39 -55v-72 q-14 -45 -88 -57q-35 25 -35 57z" />
<glyph unicode="&#xb4;" horiz-adv-x="921" d="M264 1186q-2 51 49 239q53 197 84 207q6 4 17 0q12 -6 16 -6q14 0 55 8t72 8q41 0 49 -18q43 -10 43 -45q0 -27 -20.5 -51.5t-46.5 -30.5q-12 -16 -86 -115q-49 -47 -142 -141q-14 -31 -49 -67q-8 -8 -24.5 -4t-16.5 16z" />
<glyph unicode="&#xb6;" horiz-adv-x="1542" d="M2 1133q0 131 70 258q117 156 200 198q23 10 119 51q37 0 60 2q6 2 26 3h8q158 12 222 2h77.5t70.5 1t61.5 1h54h47h39h32h22.5h15h9q213 0 229 -19q6 -14 6 -28q0 -43 -57 -43q-53 0 -99 26q-86 0 -100 -20q-10 -680 -16 -1452q-4 -164 -54 -271q-63 -141 -206 -166 q-51 -8 -88 -8q-41 0 -127 29q-82 27 -146 88q-78 74 -78 160q0 61 43 125q20 31 70 30q47 0 85 -30.5t38 -73.5q0 -41 -41 -88l-14 -51q0 -18 26 -39q111 12 125 178q0 145 -4 600q-8 0 -34.5 26.5t-41.5 26.5q-6 0 -12 -6q-213 -20 -307 25q-27 14 -99 57q-88 51 -98 66 q-43 72 -72 116q-61 100 -61 226zM643 -225q125 -27 156 -19q72 16 119 121q43 92 38 170q-10 201 -2 535q8 449 9 608q0 215 -11 399q-12 8 -153 4q0 -2 4 -290q0 -8 13 -25.5t13 -20.5q0 -4 -6 -6q-53 -25 -53 -43q0 -6 16.5 -20t16.5 -19v-905l-4 -295 q-23 -150 -156 -194z" />
<glyph unicode="&#xb7;" horiz-adv-x="665" d="M76 555q0 82 106 170q8 0 166 16q25 2 82 -51q55 -51 55 -82q0 -111 -18 -150.5t-68 -45.5l-118 -9q-31 -6 -95 21q-59 27 -80 51q-31 33 -30 80z" />
<glyph unicode="&#xb8;" horiz-adv-x="1124" d="M297 -457q0 33 18 51q25 31 52 25q25 -10 30 -39q16 -78 86 -78q53 0 99 43q47 43 36 90q-10 39 -106 66q-98 27 -100 82q-4 45 28 61q47 27 62 47q33 43 28 156q14 8 29 8q59 0 59 -55q0 -6 -4 -18q-33 -33 -32 -125q0 -37 14 -45t49 -15l70 -8q63 -14 80 -74 q10 -29 6 -114q-6 -23 -21 -35q-2 -33 -69 -68q-74 -39 -88 -71q-33 -25 -76 -25q-27 0 -86 16q-29 10 -57.5 13.5t-44 6.5t-21.5 9q-41 41 -41 96z" />
<glyph unicode="&#xb9;" horiz-adv-x="952" d="M2 1616q0 35 55 35q25 0 76 -6q47 16 119 18q74 2 102 12q35 -4 109 -10l35 -25q23 -18 22 -30q2 -162 -2 -170q0 -203 -2 -213q-12 -14 -12 -27q0 -2 7 -24.5t5 -34.5q-4 -25 -4 -41q0 -82 47 -82q18 0 41 12q20 -2 62 -10q45 -8 45 -29q0 -27 -22.5 -58.5t-45.5 -31.5 q-33 0 -145 -6q-113 -4 -148 -2q-215 8 -276 0q-25 29 -25 49q0 63 172 64q20 8 19 22l-5 29q10 14 35 112q4 25 -2 58q-10 51 -10 57q-2 88 14 207q6 41 -18 68q-8 8 -23 8q-20 0 -65 -19q-47 -18 -62 -18q-16 -2 -48 24.5t-42 28.5q-8 16 -8 33z" />
<glyph unicode="&#xbb;" horiz-adv-x="1222" d="M66 958q0 25 94 39q23 4 151 -32q25 -47 56 -56q51 -20 61 -26q61 -45 127 -174q72 -139 61 -203q-4 -27 -26 -70q-25 -47 -25 -59q-14 -31 -61 -94q-59 -45 -146 -138q-12 -23 -67 -55q-57 -35 -88 -35q-33 0 -29 41q33 20 78 72q53 41 96 121q76 133 76 137 q0 111 -2 141q-6 86 -21 140q-25 20 -51 71q-29 55 -45 64l-135 49q-104 39 -104 67zM578 963q0 37 49 36q25 0 86 -22q41 -53 80 -78q137 -84 184 -166q49 -82 49 -209q0 -53 -6 -129q-6 -70 -115 -155l-157 -127q-23 -25 -58 -25q-41 0 -41 31q0 8 4 20q55 49 101 94 q104 111 141 191q-18 39 -21 121l-2 90q-18 39 -73 127q-6 8 -41 18.5t-37 26.5q-8 51 -75.5 96t-67.5 60z" />
<glyph unicode="&#xbf;" horiz-adv-x="1075" d="M14 147q-2 74 6 93q23 45 64 135q43 78 100 104q63 29 97 72l75 88q49 45 50 109q0 12 -3.5 42.5t-3.5 36.5q0 39 47 56q16 6 29 6q45 0 45 -68q0 -14 -6 -71.5t-6 -71.5q0 -27 6 -41q-31 -33 -63.5 -69t-73.5 -81t-64 -69q-111 -139 -110 -264q0 -41 8 -74 q29 -121 55 -176q51 -104 133 -107q29 -23 82.5 -22.5t71.5 26.5q70 8 70 138q0 14 -2.5 56t-2.5 48q0 16 3 20q12 29 38.5 55.5t51.5 26.5q14 0 22 -6h29q76 -43 76 -121q0 -104 -113 -198q-121 -96 -274 -96q-119 0 -226 63q-92 53 -135 104q-43 53 -74 150q0 43 -2 106z M322 1229q0 59 47 90q57 35 106 35q59 0 99 -49.5t40 -112.5q0 -43 -20 -66q-29 -33 -127 -45q-59 -6 -102 40t-43 108z" />
<glyph unicode="&#xc0;" d="M-119 61q25 8 94 5q68 -4 97 0q27 27 71 53q31 43 99 258q90 274 108 319q31 78 103 297q82 248 86 269q-2 20 4 67l108 289l11 45q4 23 22 39q8 8 53 8l62 -158q37 -94 41 -157q35 -63 200 -615q20 -27 50 -84q14 -35 22 -100q8 -61 27 -107q49 -102 65 -157 q35 -123 39 -131q29 -70 82 -103q14 -8 76 -18q53 -4 69 -27q10 -10 7 -28q-6 -23 -21 -25q-63 -23 -164 -23q-47 0 -186 10.5t-186 10.5q-86 0 -148 -16q-31 -6 -47 10q-25 29 -25 43q0 33 82 33q55 0 97 -9q49 -10 67 23q2 -2 10 -2q35 0 35 26q0 41 -43 175 q-41 133 -67 163q4 154 -138 154q-31 0 -67 -10q-41 -10 -105 -15q-76 -2 -100 -6q-20 10 -33 11q-29 0 -30 -31q-37 -31 -72 -146l-49 -161q-10 -10 -29 -68q-20 -61 -29 -80q14 -18 52 -29q35 -4 69 -2q12 0 23.5 1t17.5 1t11.5 1.5t7.5 1.5h2q10 6 16 6q16 0 30.5 -18.5 t14.5 -37.5q0 -20 -22 -24q-20 -4 -64 4q-49 8 -76 8q-25 0 -35 -8q-18 6 -47 6q-45 0 -112 -8q-86 -10 -103 -10q-12 0 -41.5 -3.5t-33.5 -3.5q-47 0 -58 84zM436 666q0 -18 4 -39q63 0 185 8q161 8 188 20q12 23 -63 271l-93 311l-28 18q-4 -23 -37 -96q-31 -66 -31 -100 q0 -25 12 -43q-20 -8 -57 -39q-20 -35 -47 -129q-33 -111 -33 -182zM526 2157q0 8 4 12q6 6 39 21.5t41 27.5q72 -25 176 -53q33 -23 41 -137q13 -168 17 -191q10 -49 -39 -80q-23 16 -47 53q-104 141 -211 297q-20 29 -21 50z" />
<glyph unicode="&#xc1;" d="M-119 61q25 8 94 5q68 -4 97 0q27 27 71 53q31 43 99 258q90 274 108 319q31 78 103 297q82 248 86 269q-2 20 4 67l108 289l11 45q4 23 22 39q8 8 53 8l62 -158q37 -94 41 -157q35 -63 200 -615q20 -27 50 -84q14 -35 22 -100q8 -61 27 -107q49 -102 65 -157 q35 -123 39 -131q29 -70 82 -103q14 -8 76 -18q53 -4 69 -27q10 -10 7 -28q-6 -23 -21 -25q-63 -23 -164 -23q-47 0 -186 10.5t-186 10.5q-86 0 -148 -16q-31 -6 -47 10q-25 29 -25 43q0 33 82 33q55 0 97 -9q49 -10 67 23q2 -2 10 -2q35 0 35 26q0 41 -43 175 q-41 133 -67 163q4 154 -138 154q-31 0 -67 -10q-41 -10 -105 -15q-76 -2 -100 -6q-20 10 -33 11q-29 0 -30 -31q-37 -31 -72 -146l-49 -161q-10 -10 -29 -68q-20 -61 -29 -80q14 -18 52 -29q35 -4 69 -2q12 0 23.5 1t17.5 1t11.5 1.5t7.5 1.5h2q10 6 16 6q16 0 30.5 -18.5 t14.5 -37.5q0 -20 -22 -24q-20 -4 -64 4q-49 8 -76 8q-25 0 -35 -8q-18 6 -47 6q-45 0 -112 -8q-86 -10 -103 -10q-12 0 -41.5 -3.5t-33.5 -3.5q-47 0 -58 84zM436 666q0 -18 4 -39q63 0 185 8q161 8 188 20q12 23 -63 271l-93 311l-28 18q-4 -23 -37 -96q-31 -66 -31 -100 q0 -25 12 -43q-20 -8 -57 -39q-20 -35 -47 -129q-33 -111 -33 -182zM584 1753q-2 51 49 242q55 193 84 205q4 0 12 -1t14 -4l7 -2q8 0 55 7q41 8 72 8q41 -1 49 -19q43 -10 43 -45q0 -25 -19.5 -49t-48.5 -33l-86 -112q-29 -27 -141 -144q-12 -29 -49 -65q-6 -10 -23 -6 q-18 6 -18 18z" />
<glyph unicode="&#xc2;" d="M-119 61q25 8 94 5q68 -4 97 0q27 27 71 53q31 43 99 258q90 274 108 319q31 78 103 297q82 248 86 269q-2 20 4 67l108 289l11 45q4 23 22 39q8 8 53 8l62 -158q37 -94 41 -157q35 -63 200 -615q20 -27 50 -84q14 -35 22 -100q8 -61 27 -107q49 -102 65 -157 q35 -123 39 -131q29 -70 82 -103q14 -8 76 -18q53 -4 69 -27q10 -10 7 -28q-6 -23 -21 -25q-63 -23 -164 -23q-47 0 -186 10.5t-186 10.5q-86 0 -148 -16q-31 -6 -47 10q-25 29 -25 43q0 33 82 33q55 0 97 -9q49 -10 67 23q2 -2 10 -2q35 0 35 26q0 41 -43 175 q-41 133 -67 163q4 154 -138 154q-31 0 -67 -10q-41 -10 -105 -15q-76 -2 -100 -6q-20 10 -33 11q-29 0 -30 -31q-37 -31 -72 -146l-49 -161q-10 -10 -29 -68q-20 -61 -29 -80q14 -18 52 -29q35 -4 69 -2q12 0 23.5 1t17.5 1t11.5 1.5t7.5 1.5h2q10 6 16 6q16 0 30.5 -18.5 t14.5 -37.5q0 -20 -22 -24q-20 -4 -64 4q-49 8 -76 8q-25 0 -35 -8q-18 6 -47 6q-45 0 -112 -8q-86 -10 -103 -10q-12 0 -41.5 -3.5t-33.5 -3.5q-47 0 -58 84zM436 666q0 -18 4 -39q63 0 185 8q161 8 188 20q12 23 -63 271l-93 311l-28 18q-4 -23 -37 -96q-31 -66 -31 -100 q0 -25 12 -43q-20 -8 -57 -39q-20 -35 -47 -129q-33 -111 -33 -182zM485 1706q0 39 19 66q20 35 102 237q76 184 96 199l58 -10l43 -121q16 -20 37 -58q41 -80 118 -270q4 -16 5 -25q0 -33 -27 -51t-62 -12q-63 12 -98 139q-36 142 -63 156h-19q-10 -14 -40.5 -106.5 t-45.5 -120.5q-33 -57 -78 -57.5t-45 34.5z" />
<glyph unicode="&#xc3;" d="M-119 61q25 8 94 5q68 -4 97 0q27 27 71 53q31 43 99 258q90 274 108 319q31 78 103 297q82 248 86 269q-2 20 4 67l108 289l11 45q4 23 22 39q8 8 53 8l62 -158q37 -94 41 -157q35 -63 200 -615q20 -27 50 -84q14 -35 22 -100q8 -61 27 -107q49 -102 65 -157 q35 -123 39 -131q29 -70 82 -103q14 -8 76 -18q53 -4 69 -27q10 -10 7 -28q-6 -23 -21 -25q-63 -23 -164 -23q-47 0 -186 10.5t-186 10.5q-86 0 -148 -16q-31 -6 -47 10q-25 29 -25 43q0 33 82 33q55 0 97 -9q49 -10 67 23q2 -2 10 -2q35 0 35 26q0 41 -43 175 q-41 133 -67 163q4 154 -138 154q-31 0 -67 -10q-41 -10 -105 -15q-76 -2 -100 -6q-20 10 -33 11q-29 0 -30 -31q-37 -31 -72 -146l-49 -161q-10 -10 -29 -68q-20 -61 -29 -80q14 -18 52 -29q35 -4 69 -2q12 0 23.5 1t17.5 1t11.5 1.5t7.5 1.5h2q10 6 16 6q16 0 30.5 -18.5 t14.5 -37.5q0 -20 -22 -24q-20 -4 -64 4q-49 8 -76 8q-25 0 -35 -8q-18 6 -47 6q-45 0 -112 -8q-86 -10 -103 -10q-12 0 -41.5 -3.5t-33.5 -3.5q-47 0 -58 84zM301 1939q0 68 78 164q76 94 141 90q25 -4 82 -28q80 -39 92 -41l178 -49q37 -14 72 -15q53 0 84 35q16 23 31 66 q14 33 24 32q37 0 37 -61q0 -63 -65 -172q-14 -2 -51 -37q-33 -33 -54 -27l-137 19q-51 8 -205 72q-66 27 -114 26q-63 0 -101 -61q-35 -59 -51 -60q-41 0 -41 47zM436 666q0 -18 4 -39q63 0 185 8q161 8 188 20q12 23 -63 271l-93 311l-28 18q-4 -23 -37 -96 q-31 -66 -31 -100q0 -25 12 -43q-20 -8 -57 -39q-20 -35 -47 -129q-33 -111 -33 -182z" />
<glyph unicode="&#xc4;" d="M-119 61q25 8 94 5q68 -4 97 0q27 27 71 53q31 43 99 258q90 274 108 319q31 78 103 297q82 248 86 269q-2 20 4 67l108 289l11 45q4 23 22 39q8 8 53 8l62 -158q37 -94 41 -157q35 -63 200 -615q20 -27 50 -84q14 -35 22 -100q8 -61 27 -107q49 -102 65 -157 q35 -123 39 -131q29 -70 82 -103q14 -8 76 -18q53 -4 69 -27q10 -10 7 -28q-6 -23 -21 -25q-63 -23 -164 -23q-47 0 -186 10.5t-186 10.5q-86 0 -148 -16q-31 -6 -47 10q-25 29 -25 43q0 33 82 33q55 0 97 -9q49 -10 67 23q2 -2 10 -2q35 0 35 26q0 41 -43 175 q-41 133 -67 163q4 154 -138 154q-31 0 -67 -10q-41 -10 -105 -15q-76 -2 -100 -6q-20 10 -33 11q-29 0 -30 -31q-37 -31 -72 -146l-49 -161q-10 -10 -29 -68q-20 -61 -29 -80q14 -18 52 -29q35 -4 69 -2q12 0 23.5 1t17.5 1t11.5 1.5t7.5 1.5h2q10 6 16 6q16 0 30.5 -18.5 t14.5 -37.5q0 -20 -22 -24q-20 -4 -64 4q-49 8 -76 8q-25 0 -35 -8q-18 6 -47 6q-45 0 -112 -8q-86 -10 -103 -10q-12 0 -41.5 -3.5t-33.5 -3.5q-47 0 -58 84zM346 2009q0 23 12 41q-8 43 54 80q51 27 100 31q55 4 86 -31t31 -92q0 -59 -36 -104.5t-89 -45.5q-13 0 -33 4 q-43 -10 -84 29t-41 88zM436 666q0 -18 4 -39q63 0 185 8q161 8 188 20q12 23 -63 271l-93 311l-28 18q-4 -23 -37 -96q-31 -66 -31 -100q0 -25 12 -43q-20 -8 -57 -39q-20 -35 -47 -129q-33 -111 -33 -182zM823 2015q0 61 49 121q53 59 113 59q10 0 27 -4q20 -4 48 -33 t30 -49l-11 -41q0 -68 -32 -112q-37 -51 -97 -51q-25 0 -47 8q-80 29 -80 102z" />
<glyph unicode="&#xc5;" d="M-119 61q25 8 94 5q68 -4 97 0q27 27 71 53q31 43 99 258q90 274 108 319q31 78 103 297q82 248 86 269q-2 20 4 67l108 289l11 45q4 23 22 39q8 8 53 8l62 -158q37 -94 41 -157q35 -63 200 -615q20 -27 50 -84q14 -35 22 -100q8 -61 27 -107q49 -102 65 -157 q35 -123 39 -131q29 -70 82 -103q14 -8 76 -18q53 -4 69 -27q10 -10 7 -28q-6 -23 -21 -25q-63 -23 -164 -23q-47 0 -186 10.5t-186 10.5q-86 0 -148 -16q-31 -6 -47 10q-25 29 -25 43q0 33 82 33q55 0 97 -9q49 -10 67 23q2 -2 10 -2q35 0 35 26q0 41 -43 175 q-41 133 -67 163q4 154 -138 154q-31 0 -67 -10q-41 -10 -105 -15q-76 -2 -100 -6q-20 10 -33 11q-29 0 -30 -31q-37 -31 -72 -146l-49 -161q-10 -10 -29 -68q-20 -61 -29 -80q14 -18 52 -29q35 -4 69 -2q12 0 23.5 1t17.5 1t11.5 1.5t7.5 1.5h2q10 6 16 6q16 0 30.5 -18.5 t14.5 -37.5q0 -20 -22 -24q-20 -4 -64 4q-49 8 -76 8q-25 0 -35 -8q-18 6 -47 6q-45 0 -112 -8q-86 -10 -103 -10q-12 0 -41.5 -3.5t-33.5 -3.5q-47 0 -58 84zM436 666q0 -18 4 -39q63 0 185 8q161 8 188 20q12 23 -63 271l-93 311l-28 18q-4 -23 -37 -96q-31 -66 -31 -100 q0 -25 12 -43q-20 -8 -57 -39q-20 -35 -47 -129q-33 -111 -33 -182zM475 1980q0 105 123 220l188 22q29 4 93 -65q63 -66 63 -105q2 -145 -22 -201q-20 -45 -76 -53l-133 -12q-37 -6 -109 29q-68 33 -92 63q-35 47 -35 102zM631 1978q0 -55 26.5 -99t63.5 -44q23 0 49 23 q17 16 31 59l18 68q2 68 -21.5 106.5t-60.5 38.5q-63 0 -98 -102q-8 -18 -8 -50z" />
<glyph unicode="&#xc7;" horiz-adv-x="1654" d="M0 780l25 158q20 129 20 172q0 12 -2 14q-4 68 127 234q137 176 236 205q-10 0 118 47q131 49 224 51q47 2 231 -53q170 -53 182 -45q84 47 103 47q16 0 30 -8q25 -8 25 -41q0 -16 -8 -41l-11 -39l-30 -121q-2 -8 8 -92q14 -84 14 -127q0 -84 -45 -84q-29 0 -65 61 q23 242 -234 400q-88 53 -160 53q-33 0 -83 -10l-76 -13q-53 -16 -137 -143q-78 -115 -97 -182l6 -66q-2 -31 -22 -96q-18 -76 -21 -90q-6 -47 -2 -215q6 -147 17 -221q10 -35 39 -170q20 -137 247 -285q20 4 46 4q4 0 69 -4q35 -2 76 -2q63 0 92 16l152 88q82 57 100 137 q29 37 25 60q31 25 30 92v41q0 74 49 90q31 -72 31 -137q0 -104 -90 -219q-25 -29 -53.5 -59.5t-62 -68.5t-52.5 -59q-35 -43 -76 -53l-174 -33q-35 14 -96 21q3 -8 -20 -84q-35 -37 -11 -98q6 -14 60 -21q43 -8 69 -10q66 -14 80 -74q10 -29 6 -115q-8 -25 -22 -34 q-2 -33 -70 -68q-70 -37 -86 -72q-35 -25 -78 -24q-29 0 -84 18q-29 10 -58.5 13.5t-43.5 6.5t-23 9q-41 37 -41 94q0 31 19 53q29 29 51 23q27 -6 33 -39q14 -76 84 -76q53 0 100 43q47 41 37 88q-10 39 -106 66q-100 29 -103 82q-2 39 27 61q53 31 59 41q31 37 35 127 q-106 10 -164 37q-133 57 -260 184q-145 145 -152 269q-37 49 -36 94q0 86 -2 92q0 10 -15 53q-10 45 -10 47z" />
<glyph unicode="&#xc8;" horiz-adv-x="1683" d="M-18 18q-12 63 86 66q20 -33 151 -25q23 23 39 52q31 131 8 475q-6 76 8 190q14 127 15 191q0 31 -10 108q-10 82 -11 111q0 76 31 135q-12 20 -29 131q-12 80 -65 104q-2 2 -55 -4q-63 -6 -97 -6q-66 0 -65 23q0 16 32 43q33 6 99 2q82 -6 98 -6h21q20 0 62 -1t98.5 -1 t141.5 -1t177 -1q289 -2 497 16q66 6 76 -47l8 -100q2 -2 31 -95q18 -59 19 -96q0 -33 -13 -61q-20 -4 -28 10q-6 29 -25 82q-18 31 -57 80q-47 57 -60 84q-29 51 -57 65q-27 12 -86 14q-51 2 -213 0q-172 -2 -195 -10q-16 -6 -16 -37q0 -27 10 -43q-10 -106 -10 -542 q0 -61 59 -58q162 4 263 17q35 25 51 123l12 141q14 18 27 18q31 0 30 -143q0 -59 -6 -162q-6 -92 -6 -98q2 -2 12 -78q8 -55 9 -98q0 -68 -27 -88l-27 10q-16 33 -18 110q0 78 -12 107q-20 51 -95 68q-86 16 -135 16q-92 0 -125 -49q-29 -41 -28 -135q0 -6 4 -100.5 t4 -112.5q-2 -4 4 -142q2 -35 4 -73.5t4 -55t2 -20.5l41 -45l426 4q100 4 166 108q20 33 86 195q39 100 80 96q14 -20 8 -100q-2 -35 -5 -69t-4 -49t-1 -17q0 -52 14 -72q0 -55 -2 -84q0 -39 -7 -58.5t-13.5 -21.5t-24.5 -4h-39q-18 2 -33 2q-164 6 -440 4 q-193 -12 -760 -22q-61 -4 -65 0q-43 4 -49 30zM553 2148q0 8 4 13q6 6 39 21.5t41 27.5q78 -27 176 -51q31 -23 41 -140q12 -167 16 -190q12 -51 -39 -78q0 -4 -2 -10l-45 61q-104 141 -211 297q-20 29 -20 49z" />
<glyph unicode="&#xc9;" horiz-adv-x="1683" d="M-18 18q-12 63 86 66q20 -33 151 -25q23 23 39 52q31 131 8 475q-6 76 8 190q14 127 15 191q0 31 -10 108q-10 82 -11 111q0 76 31 135q-12 20 -29 131q-12 80 -65 104q-2 2 -55 -4q-63 -6 -97 -6q-66 0 -65 23q0 16 32 43q33 6 99 2q82 -6 98 -6h21q20 0 62 -1t98.5 -1 t141.5 -1t177 -1q289 -2 497 16q66 6 76 -47l8 -100q2 -2 31 -95q18 -59 19 -96q0 -33 -13 -61q-20 -4 -28 10q-6 29 -25 82q-18 31 -57 80q-47 57 -60 84q-29 51 -57 65q-27 12 -86 14q-51 2 -213 0q-172 -2 -195 -10q-16 -6 -16 -37q0 -27 10 -43q-10 -106 -10 -542 q0 -61 59 -58q162 4 263 17q35 25 51 123l12 141q14 18 27 18q31 0 30 -143q0 -59 -6 -162q-6 -92 -6 -98q2 -2 12 -78q8 -55 9 -98q0 -68 -27 -88l-27 10q-16 33 -18 110q0 78 -12 107q-20 51 -95 68q-86 16 -135 16q-92 0 -125 -49q-29 -41 -28 -135q0 -6 4 -100.5 t4 -112.5q-2 -4 4 -142q2 -35 4 -73.5t4 -55t2 -20.5l41 -45l426 4q100 4 166 108q20 33 86 195q39 100 80 96q14 -20 8 -100q-2 -35 -5 -69t-4 -49t-1 -17q0 -52 14 -72q0 -55 -2 -84q0 -39 -7 -58.5t-13.5 -21.5t-24.5 -4h-39q-18 2 -33 2q-164 6 -440 4 q-193 -12 -760 -22q-61 -4 -65 0q-43 4 -49 30zM588 1735q-2 51 49 241q55 193 84 205q8 2 16 0l17 -6q14 0 55 8t72 8q41 0 49 -18q43 -10 43 -47q0 -25 -20.5 -49.5t-47.5 -30.5q-12 -16 -86 -115q-49 -47 -141 -141q-12 -31 -49 -68q-10 -10 -25 -4q-16 4 -16 17z" />
<glyph unicode="&#xca;" horiz-adv-x="1683" d="M-18 18q-12 63 86 66q20 -33 151 -25q23 23 39 52q31 131 8 475q-6 76 8 190q14 127 15 191q0 31 -10 108q-10 82 -11 111q0 76 31 135q-12 20 -29 131q-12 80 -65 104q-2 2 -55 -4q-63 -6 -97 -6q-66 0 -65 23q0 16 32 43q33 6 99 2q82 -6 98 -6h21q20 0 62 -1t98.5 -1 t141.5 -1t177 -1q289 -2 497 16q66 6 76 -47l8 -100q2 -2 31 -95q18 -59 19 -96q0 -33 -13 -61q-20 -4 -28 10q-6 29 -25 82q-18 31 -57 80q-47 57 -60 84q-29 51 -57 65q-27 12 -86 14q-51 2 -213 0q-172 -2 -195 -10q-16 -6 -16 -37q0 -27 10 -43q-10 -106 -10 -542 q0 -61 59 -58q162 4 263 17q35 25 51 123l12 141q14 18 27 18q31 0 30 -143q0 -59 -6 -162q-6 -92 -6 -98q2 -2 12 -78q8 -55 9 -98q0 -68 -27 -88l-27 10q-16 33 -18 110q0 78 -12 107q-20 51 -95 68q-86 16 -135 16q-92 0 -125 -49q-29 -41 -28 -135q0 -6 4 -100.5 t4 -112.5q-2 -4 4 -142q2 -35 4 -73.5t4 -55t2 -20.5l41 -45l426 4q100 4 166 108q20 33 86 195q39 100 80 96q14 -20 8 -100q-2 -35 -5 -69t-4 -49t-1 -17q0 -52 14 -72q0 -55 -2 -84q0 -39 -7 -58.5t-13.5 -21.5t-24.5 -4h-39q-18 2 -33 2q-164 6 -440 4 q-193 -12 -760 -22q-61 -4 -65 0q-43 4 -49 30zM522 1730.5q0 36.5 16.5 65.5t104.5 238q76 186 94 198l60 -10l43 -121q16 -20 37 -57q41 -80 118 -270q4 -16 4 -25q0 -33 -26.5 -51.5t-61.5 -11.5q-66 10 -100 139q-36 141 -63 155h-17q-10 -14 -41 -106q-31 -94 -47 -121 q-35 -59 -76 -59q-45 0 -45 36.5z" />
<glyph unicode="&#xcb;" horiz-adv-x="1683" d="M-18 18q-12 63 86 66q20 -33 151 -25q23 23 39 52q31 131 8 475q-6 76 8 190q14 127 15 191q0 31 -10 108q-10 82 -11 111q0 76 31 135q-12 20 -29 131q-12 80 -65 104q-2 2 -55 -4q-63 -6 -97 -6q-66 0 -65 23q0 16 32 43q33 6 99 2q82 -6 98 -6h21q20 0 62 -1t98.5 -1 t141.5 -1t177 -1q289 -2 497 16q66 6 76 -47l8 -100q2 -2 31 -95q18 -59 19 -96q0 -33 -13 -61q-20 -4 -28 10q-6 29 -25 82q-18 31 -57 80q-47 57 -60 84q-29 51 -57 65q-27 12 -86 14q-51 2 -213 0q-172 -2 -195 -10q-16 -6 -16 -37q0 -27 10 -43q-10 -106 -10 -542 q0 -61 59 -58q162 4 263 17q35 25 51 123l12 141q14 18 27 18q31 0 30 -143q0 -59 -6 -162q-6 -92 -6 -98q2 -2 12 -78q8 -55 9 -98q0 -68 -27 -88l-27 10q-16 33 -18 110q0 78 -12 107q-20 51 -95 68q-86 16 -135 16q-92 0 -125 -49q-29 -41 -28 -135q0 -6 4 -100.5 t4 -112.5q-2 -4 4 -142q2 -35 4 -73.5t4 -55t2 -20.5l41 -45l426 4q100 4 166 108q20 33 86 195q39 100 80 96q14 -20 8 -100q-2 -35 -5 -69t-4 -49t-1 -17q0 -52 14 -72q0 -55 -2 -84q0 -39 -7 -58.5t-13.5 -21.5t-24.5 -4h-39q-18 2 -33 2q-164 6 -440 4 q-193 -12 -760 -22q-61 -4 -65 0q-43 4 -49 30zM383 1999q0 20 10 41q-6 43 56 80q51 27 100 30q55 4 88 -34q27 -33 27 -88q0 -57 -31 -103q-37 -47 -94 -47q-11 0 -31 4q-43 -10 -84 29t-41 88zM860 2005q0 63 49 121q53 59 113 59q8 0 25 -4q20 -4 48.5 -34t30.5 -48 l-10 -41q0 -70 -34.5 -116t-94.5 -46q-23 0 -47 7q-80 29 -80 102z" />
<glyph unicode="&#xcc;" horiz-adv-x="1034" d="M41 1608q0 16 31.5 34.5t52.5 16.5q254 0 459 -2q6 0 39.5 2t46.5 2q66 0 65 -41q0 -16 -8 -33q-147 -14 -158 -18q-55 -18 -55 -94q0 -39 12 -101q-6 -27 -2 -102q6 -98 6 -113q0 -43 -8 -57q0 -6 1 -22.5t2 -49.5t1 -63q2 -68 2 -156q-4 -88 -14 -121q-12 -39 12 -53 q6 -29 0 -244q-6 -221 2 -262q8 -45 66 -45q8 0 41 3t43 3q55 0 57 -49l-35 -35l-649 -22q-35 47 0 88l107 6q47 4 68.5 15t24.5 22.5t3 38.5q0 16 -7 64t-7 59q0 25 10 34q2 82 -4 123q-6 31 0 295l6 303q0 16 -9.5 69.5t-9.5 67.5q0 8 5.5 40t5.5 44q0 23 -6.5 72t-6.5 70 q0 14 7.5 58t7.5 56q0 41 -33 66h-2q-2 0 -9 -1t-16.5 -1t-24 -1t-30.5 -1q-51 -4 -78 14q-12 10 -12 21zM180 2167q0 4 6 14q4 4 37 19.5t41 25.5q78 -27 176 -51q31 -23 41 -137q13 -170 17 -193q12 -51 -39 -78q-25 18 -47 52q-88 117 -211 299q-20 27 -21 49z" />
<glyph unicode="&#xcd;" horiz-adv-x="1034" d="M41 1608q0 16 31.5 34.5t52.5 16.5q254 0 459 -2q6 0 39.5 2t46.5 2q66 0 65 -41q0 -16 -8 -33q-147 -14 -158 -18q-55 -18 -55 -94q0 -39 12 -101q-6 -27 -2 -102q6 -98 6 -113q0 -43 -8 -57q0 -6 1 -22.5t2 -49.5t1 -63q2 -68 2 -156q-4 -88 -14 -121q-12 -39 12 -53 q6 -29 0 -244q-6 -221 2 -262q8 -45 66 -45q8 0 41 3t43 3q55 0 57 -49l-35 -35l-649 -22q-35 47 0 88l107 6q47 4 68.5 15t24.5 22.5t3 38.5q0 16 -7 64t-7 59q0 25 10 34q2 82 -4 123q-6 31 0 295l6 303q0 16 -9.5 69.5t-9.5 67.5q0 8 5.5 40t5.5 44q0 23 -6.5 72t-6.5 70 q0 14 7.5 58t7.5 56q0 41 -33 66h-2q-2 0 -9 -1t-16.5 -1t-24 -1t-30.5 -1q-51 -4 -78 14q-12 10 -12 21zM240 1741q-2 51 49 241q55 193 84 205q8 2 16 0l17 -6q14 0 55 8.5t71 8.5q42 -1 50 -19q43 -8 43 -47q0 -25 -20.5 -49.5t-47.5 -30.5q-12 -16 -86 -115 q-49 -45 -141 -141q-12 -31 -49 -67q-6 -10 -25 -5q-16 4 -16 17z" />
<glyph unicode="&#xce;" horiz-adv-x="1034" d="M41 1608q0 16 31.5 34.5t52.5 16.5q254 0 459 -2q6 0 39.5 2t46.5 2q66 0 65 -41q0 -16 -8 -33q-147 -14 -158 -18q-55 -18 -55 -94q0 -39 12 -101q-6 -27 -2 -102q6 -98 6 -113q0 -43 -8 -57q0 -6 1 -22.5t2 -49.5t1 -63q2 -68 2 -156q-4 -88 -14 -121q-12 -39 12 -53 q6 -29 0 -244q-6 -221 2 -262q8 -45 66 -45q8 0 41 3t43 3q55 0 57 -49l-35 -35l-649 -22q-35 47 0 88l107 6q47 4 68.5 15t24.5 22.5t3 38.5q0 16 -7 64t-7 59q0 25 10 34q2 82 -4 123q-6 31 0 295l6 303q0 16 -9.5 69.5t-9.5 67.5q0 8 5.5 40t5.5 44q0 23 -6.5 72t-6.5 70 q0 14 7.5 58t7.5 56q0 41 -33 66h-2q-2 0 -9 -1t-16.5 -1t-24 -1t-30.5 -1q-51 -4 -78 14q-12 10 -12 21zM152 1733q0 39 18 65q16 29 104 238q76 186 95 198l59 -10l41 -121q14 -16 39 -57q43 -88 117 -270q4 -16 4 -25q0 -33 -27 -51.5t-61 -11.5q-63 12 -99 139 q-36 141 -63 155h-17q-14 -20 -43 -106q-27 -88 -45 -121q-33 -57 -77.5 -57t-44.5 35z" />
<glyph unicode="&#xcf;" horiz-adv-x="1034" d="M41 1608q0 16 31.5 34.5t52.5 16.5q254 0 459 -2q6 0 39.5 2t46.5 2q66 0 65 -41q0 -16 -8 -33q-147 -14 -158 -18q-55 -18 -55 -94q0 -39 12 -101q-6 -27 -2 -102q6 -98 6 -113q0 -43 -8 -57q0 -6 1 -22.5t2 -49.5t1 -63q2 -68 2 -156q-4 -88 -14 -121q-12 -39 12 -53 q6 -29 0 -244q-6 -221 2 -262q8 -45 66 -45q8 0 41 3t43 3q55 0 57 -49l-35 -35l-649 -22q-35 47 0 88l107 6q47 4 68.5 15t24.5 22.5t3 38.5q0 16 -7 64t-7 59q0 25 10 34q2 82 -4 123q-6 31 0 295l6 303q0 16 -9.5 69.5t-9.5 67.5q0 8 5.5 40t5.5 44q0 23 -6.5 72t-6.5 70 q0 14 7.5 58t7.5 56q0 41 -33 66h-2q-2 0 -9 -1t-16.5 -1t-24 -1t-30.5 -1q-51 -4 -78 14q-12 10 -12 21zM82 2032q0 23 12 41q-10 43 53 77q57 31 103 33q53 2 84 -32.5t31 -90.5q0 -61 -33 -102q-33 -49 -92 -49q-13 0 -33 4q-47 -10 -86 28.5t-39 90.5zM436 2007 q0 61 49 121q53 59 113 59q12 0 25 -4q23 -4 50 -33t29 -49l-10 -41q0 -70 -34.5 -117t-94.5 -47q-25 0 -47 9q-80 27 -80 102z" />
<glyph unicode="&#xd0;" horiz-adv-x="1875" d="M-12 811q0 33 78 49q25 4 86 -8l96 -14q2 0 12 30q8 33 21 33q0 575 -33 623q-35 10 -94 6l-93 -4q-8 -8 -22 -8q-41 0 -41 38q0 23 24.5 40.5t49.5 15.5q43 -6 290 0q326 8 369 8q211 0 311 -23q29 4 99 -32l98 -54q170 -84 287 -282q119 -199 119 -410q0 -109 -35 -203 q-20 -82 -45 -163q-6 -8 -49 -62.5t-66 -83.5q-92 -113 -125 -125q-23 -27 -76 -65q-66 -47 -92 -47q-8 0 -10 2q-170 -59 -551 -72l-563 -6q-16 39 -17 49q0 18 21 37q39 -2 119 -2q86 4 98 37q29 25 31 75q-2 -41 -4 3v86v2v2v2v2v2v2v2v2v2v2v2v2v2v2v2v2v2v2v2v2v3v2v2 v2v2v2v2v2v2v2v2v2v2v2v2v2v2v2v2v2v2v3v2v2v2v2v2v2v2v2v2v2v2v2v2v2v2v21v262q-4 -2 -9.5 7t-13.5 30q-4 10 -7 17t-5 12.5t-4 7.5t-4 2q-49 -10 -168 8q-82 12 -82 49zM627 756q-4 -502 12 -617q8 -68 137 -67q119 0 244 59q135 63 182 168q104 238 105 401q0 39 -7 76 q-8 57 -12 201q-2 129 -18 203q-6 27 -47 116q-39 86 -62 109q-51 45 -94 104q-35 14 -123 31q-104 16 -174 16q-123 0 -113 -47q-25 -94 -30 -659q39 2 78 2h88q33 0 62.5 -8t43.5 -16.5t14 -16.5q0 -6 -18 -18q-23 -18 -31 -31q-18 -8 -119 -8z" />
<glyph unicode="&#xd1;" horiz-adv-x="1812" d="M-57 10q0 18 22 58q25 12 80 12h37q57 0 86 24.5t27 73.5l8 15q16 244 -13 376q23 31 25 86q-2 2 -6 734q-8 12 -29 73q-20 55 -35 58q-57 4 -157 30q-8 16 -8 31q0 51 145 41q74 -4 170 2q115 8 170 8q59 0 108 -6q18 -2 54 -47q35 -41 41 -66q37 -43 75 -129 q45 -100 58 -118q39 -57 190 -295q115 -188 197 -289q18 -23 33 -23q45 0 45 242q0 176 -21 402q-14 174 -26 258q-41 0 -72 2q-2 0 -29 10q-14 8 -28 2l-3 -2q-2 0 -6 -3t-9 -6t-13 -8.5t-17 -9.5q-33 -20 -53 -20t-38.5 21.5t-18.5 41.5q0 57 182 58q53 0 125 -7 q23 0 41 -1t27 -1l10 -2q14 0 78 6q63 6 98 7q51 -1 74 -13q10 -72 -68 -75q-115 -8 -151 -33q-12 -88 -9 -248q2 -35 3 -66.5t1 -56t1.5 -46t2.5 -35t1 -24v-14.5v-4q0 -59 -9 -389q-4 -231 7 -385q-6 -18 -2 -102t-3 -113q-14 -57 -65 -57q-12 0 -21 2q-86 135 -397 676 q-33 55 -151 231q-98 147 -136 238q-72 47 -129 174q-55 125 -100 145h-23q-23 -23 -22 -80q0 -14 3 -53t3 -45q2 -117 -2 -537q0 -100 -1 -229t-2 -198.5t-1 -108.5q0 -104 109 -127l192 -17q8 -25 8 -63q-39 -20 -188 -12l-27 12q-74 -10 -213 -14q-61 0 -114.5 -1 t-75.5 -1l-25 -3q-20 8 -20 33zM371 1929q0 66 78 162q76 94 141 90q27 -4 82 -29l92 -41l178 -49q41 -12 74 -12q51 0 82 33q20 29 32 65q12 33 23 33q37 0 37 -61q0 -59 -66 -172q-14 -2 -51 -37q-33 -33 -53 -27l-135 19q-53 8 -207 71q-66 27 -113 27q-66 0 -102 -62 q-35 -59 -51 -59q-41 0 -41 49z" />
<glyph unicode="&#xd2;" horiz-adv-x="1728" d="M-33 725q-4 0 0 25l4 100q16 287 299 604q33 6 111 72q80 68 123 76l31 22q84 47 192 47q190 0 401 -133q199 -125 277 -278q94 -180 94 -445q0 -256 -94 -424q-33 -61 -131 -164q-102 -113 -156 -151q-47 -24 -147 -96q-86 -18 -133 -37q-160 -6 -240 22q-16 -4 -29 -4 q-49 0 -125 31q-66 27 -106 55l-29 41q-16 29 -35 27q-14 23 -61 65q-49 43 -63 62l-3 4q-2 4 -7 11t-10 15.5t-14.5 23.5t-19.5 30l-59 96q-12 25 -37 168q-25 133 -33 135zM299 770q31 -336 49 -387q33 -68 80 -168q31 -90 123 -144.5t201 -54.5q139 0 235 84 q78 72 109 168q14 41 32 178q15 113 48 185q-4 45 -17 88q-14 55 -14 90q0 8 1 23.5t2 44t1 51.5q2 76 0 123q-2 68 -12 116q4 12 4 23q0 100 -99 233q-123 164 -290 164q-160 0 -342 -157q-33 -66 -86 -275q4 -37 -2 -84q2 -84 -11 -278zM514 2157q0 6 6 14q4 6 37 20.5 t41 24.5q45 -16 176 -51q31 -23 41 -137q12 -170 16 -193q12 -51 -38 -78q-25 18 -48 51q-88 117 -210 299q-20 29 -21 50z" />
<glyph unicode="&#xd3;" horiz-adv-x="1728" d="M-33 725q-4 0 0 25l4 100q16 287 299 604q33 6 111 72q80 68 123 76l31 22q84 47 192 47q190 0 401 -133q199 -125 277 -278q94 -180 94 -445q0 -256 -94 -424q-33 -61 -131 -164q-102 -113 -156 -151q-47 -24 -147 -96q-86 -18 -133 -37q-160 -6 -240 22q-16 -4 -29 -4 q-49 0 -125 31q-66 27 -106 55l-29 41q-16 29 -35 27q-14 23 -61 65q-49 43 -63 62l-3 4q-2 4 -7 11t-10 15.5t-14.5 23.5t-19.5 30l-59 96q-12 25 -37 168q-25 133 -33 135zM299 770q31 -336 49 -387q33 -68 80 -168q31 -90 123 -144.5t201 -54.5q139 0 235 84 q78 72 109 168q14 41 32 178q15 113 48 185q-4 45 -17 88q-14 55 -14 90q0 8 1 23.5t2 44t1 51.5q2 76 0 123q-2 68 -12 116q4 12 4 23q0 100 -99 233q-123 164 -290 164q-160 0 -342 -157q-33 -66 -86 -275q4 -37 -2 -84q2 -84 -11 -278zM543 1741q-2 51 49 243.5t84 204.5 q4 2 17.5 -2t15.5 -4q8 -4 55 6q41 8 72 9q41 -1 49 -19q43 -8 43 -45q0 -25 -20.5 -50.5t-49.5 -31.5q-23 -33 -86 -113l-139 -143q-14 -27 -49 -67q-8 -8 -25 -5q-16 6 -16 17z" />
<glyph unicode="&#xd4;" horiz-adv-x="1728" d="M-33 725q-4 0 0 25l4 100q16 287 299 604q33 6 111 72q80 68 123 76l31 22q84 47 192 47q190 0 401 -133q199 -125 277 -278q94 -180 94 -445q0 -256 -94 -424q-33 -61 -131 -164q-102 -113 -156 -151q-47 -24 -147 -96q-86 -18 -133 -37q-160 -6 -240 22q-16 -4 -29 -4 q-49 0 -125 31q-66 27 -106 55l-29 41q-16 29 -35 27q-14 23 -61 65q-49 43 -63 62l-3 4q-2 4 -7 11t-10 15.5t-14.5 23.5t-19.5 30l-59 96q-12 25 -37 168q-25 133 -33 135zM299 770q31 -336 49 -387q33 -68 80 -168q31 -90 123 -144.5t201 -54.5q139 0 235 84 q78 72 109 168q14 41 32 178q15 113 48 185q-4 45 -17 88q-14 55 -14 90q0 8 1 23.5t2 44t1 51.5q2 76 0 123q-2 68 -12 116q4 12 4 23q0 100 -99 233q-123 164 -290 164q-160 0 -342 -157q-33 -66 -86 -275q4 -37 -2 -84q2 -84 -11 -278zM528 1729q0 35 17 61 q23 35 104 242q76 184 96 198l58 -10l43 -121q16 -20 37 -57q41 -80 118 -270q4 -16 5 -25q0 -33 -27 -52.5t-61 -13.5q-63 12 -99 140q-36 141 -63 157h-19q-12 -16 -41 -104q-29 -94 -45 -123q-35 -59 -78 -59q-45 0 -45 37z" />
<glyph unicode="&#xd5;" horiz-adv-x="1728" d="M-33 725q-4 0 0 25l4 100q16 287 299 604q33 6 111 72q80 68 123 76l31 22q84 47 192 47q190 0 401 -133q199 -125 277 -278q94 -180 94 -445q0 -256 -94 -424q-33 -61 -131 -164q-102 -113 -156 -151q-47 -24 -147 -96q-86 -18 -133 -37q-160 -6 -240 22q-16 -4 -29 -4 q-49 0 -125 31q-66 27 -106 55l-29 41q-16 29 -35 27q-14 23 -61 65q-49 43 -63 62l-3 4q-2 4 -7 11t-10 15.5t-14.5 23.5t-19.5 30l-59 96q-12 25 -37 168q-25 133 -33 135zM299 770q31 -336 49 -387q33 -68 80 -168q31 -90 123 -144.5t201 -54.5q139 0 235 84 q78 72 109 168q14 41 32 178q15 113 48 185q-4 45 -17 88q-14 55 -14 90q0 8 1 23.5t2 44t1 51.5q2 76 0 123q-2 68 -12 116q4 12 4 23q0 100 -99 233q-123 164 -290 164q-160 0 -342 -157q-33 -66 -86 -275q4 -37 -2 -84q2 -84 -11 -278zM338 1939q0 68 78 164 q76 94 141 90q25 -4 82 -28q80 -39 92 -41l178 -49q37 -14 72 -15q53 0 84 35q16 23 31 64q16 35 24 34q37 0 37 -61q0 -63 -65 -172q-14 -2 -52 -37q-33 -33 -53 -27l-137 19q-51 8 -205 72q-66 27 -115 26q-63 0 -100 -61q-35 -59 -51 -60q-41 0 -41 47z" />
<glyph unicode="&#xd6;" horiz-adv-x="1728" d="M-33 725q-4 0 0 25l4 100q16 287 299 604q33 6 111 72q80 68 123 76l31 22q84 47 192 47q190 0 401 -133q199 -125 277 -278q94 -180 94 -445q0 -256 -94 -424q-33 -61 -131 -164q-102 -113 -156 -151q-47 -24 -147 -96q-86 -18 -133 -37q-160 -6 -240 22q-16 -4 -29 -4 q-49 0 -125 31q-66 27 -106 55l-29 41q-16 29 -35 27q-14 23 -61 65q-49 43 -63 62l-3 4q-2 4 -7 11t-10 15.5t-14.5 23.5t-19.5 30l-59 96q-12 25 -37 168q-25 133 -33 135zM299 770q31 -336 49 -387q33 -68 80 -168q31 -90 123 -144.5t201 -54.5q139 0 235 84 q78 72 109 168q14 41 32 178q15 113 48 185q-4 45 -17 88q-14 55 -14 90q0 8 1 23.5t2 44t1 51.5q2 76 0 123q-2 68 -12 116q4 12 4 23q0 100 -99 233q-123 164 -290 164q-160 0 -342 -157q-33 -66 -86 -275q4 -37 -2 -84q2 -84 -11 -278zM401 2001q0 25 13 43q-10 43 53 78 q57 31 100 32q55 2 85 -32.5t30 -89.5q0 -59 -31 -103q-37 -49 -92 -49q-13 0 -33 4q-47 -10 -86 29t-39 88zM879 2009q0 63 49 121q51 57 112 57q18 0 25 -2q23 -6 50.5 -35t29.5 -47l-10 -43q0 -68 -36 -115t-93 -47q-25 0 -48 9q-80 25 -79 102z" />
<glyph unicode="&#xd8;" horiz-adv-x="1728" d="M-33 725q-4 0 0 25l4 100q16 287 299 604q33 6 111 72q80 68 123 76l31 22q72 41 167 41q100 0 291 -59l80 34q29 12 49 70q21 64 41 84q33 29 41 29q8 -16 25 -47q0 -27 -27 -72l-37 -64l-47 -94q207 -129 287 -286q94 -180 94 -445q0 -256 -94 -424q-33 -61 -131 -164 q-102 -113 -156 -151q-47 -25 -147 -96q-86 -18 -133 -37q-160 -6 -240 22q-16 -4 -29 -4q-53 0 -135 37q-18 -16 -49 -53q-2 -23 -10 -64q-10 -43 -41 -88q-35 -49 -72 -49q-43 0 -43 57q0 45 49 117q53 80 54 82q14 27 20 45l-6 43q-6 33 -62 27q-14 23 -61 65 q-49 43 -63 62l-3 4q-2 4 -7 11t-10 15.5t-14.5 23.5t-19.5 30l-59 96q-12 25 -37 168q-25 133 -33 135zM299 770q31 -336 49 -387q12 -43 27 -78q18 -49 39 -49q22 0 51 47q31 66 216 476.5t316 697.5q-109 111 -245 110q-160 0 -342 -157q-33 -66 -86 -275q4 -37 -2 -84 q2 -84 -11 -278zM498 111q100 -94 254 -95q139 0 235 84q78 72 109 168q14 41 32 178q14 113 48 185q-4 45 -17 88q-14 55 -14 90q0 8 1 23.5t2 44t1 51.5q2 76 0 123q-2 68 -12 116q-1 195 -93 195q-385 -809 -546 -1251z" />
<glyph unicode="&#xd9;" horiz-adv-x="1806" d="M-25 1575q0 43 27 51q31 14 168 16q141 4 195 -6q102 -18 159 -12q4 0 15.5 -1t33 -2t39.5 -1q53 -4 88 8q18 6 39 6q29 0 50.5 -17.5t21.5 -37.5q0 -45 -70 -45q-12 0 -100 12q-59 8 -88 -4q-37 -20 -33 -86q4 -90 6 -366q2 -285 -4 -338q-10 -76 -10 -142 q0 -213 74 -350q92 -172 278 -172h115l12 10q4 -2 17 -2q10 0 120 39q18 2 70 23q57 39 94 123q39 84 39 165q0 29 -6 58l14 74q6 236 15 684v4q0 2 1 13t1 24q2 31 2 81q0 182 -45 185q-10 0 -78 -6q-74 -6 -115 -7q-68 0 -78 17q-12 25 -12 41q0 33 49 33q20 0 97 -17 q61 -12 81 -8q92 20 297 16q43 -2 70 -2q23 -2 34 -11t7 -23q-10 -55 -68 -56q-40 0 -73 27q-25 0 -68 -8q-12 -20 -12 -58q0 -10 2 -43.5t2 -42.5q0 -39 -12 -57q6 -90 6 -281q0 -748 -86 -872q-16 -23 -129 -129q-37 -16 -84 -55q-168 -29 -283 -29q-63 0 -235 12 q-39 33 -88 43q-49 12 -80 29q-47 31 -127 121q-88 100 -78 135q-72 72 -72 614q0 326 19 564l-43 32q-8 -2 -170 -2q-10 10 -11 29zM606 2165q0 6 6 14q4 6 37 20.5t41 26.5q72 -25 176 -53q29 -20 39 -137l17 -193q12 -51 -37 -78q-23 16 -49 52q-61 84 -209 299 q-20 29 -21 49z" />
<glyph unicode="&#xda;" horiz-adv-x="1806" d="M-25 1575q0 43 27 51q31 14 168 16q141 4 195 -6q102 -18 159 -12q4 0 15.5 -1t33 -2t39.5 -1q53 -4 88 8q18 6 39 6q29 0 50.5 -17.5t21.5 -37.5q0 -45 -70 -45q-12 0 -100 12q-59 8 -88 -4q-37 -20 -33 -86q4 -90 6 -366q2 -285 -4 -338q-10 -76 -10 -142 q0 -213 74 -350q92 -172 278 -172h115l12 10q4 -2 17 -2q10 0 120 39q18 2 70 23q57 39 94 123q39 84 39 165q0 29 -6 58l14 74q6 236 15 684v4q0 2 1 13t1 24q2 31 2 81q0 182 -45 185q-10 0 -78 -6q-74 -6 -115 -7q-68 0 -78 17q-12 25 -12 41q0 33 49 33q20 0 97 -17 q61 -12 81 -8q92 20 297 16q43 -2 70 -2q23 -2 34 -11t7 -23q-10 -55 -68 -56q-40 0 -73 27q-25 0 -68 -8q-12 -20 -12 -58q0 -10 2 -43.5t2 -42.5q0 -39 -12 -57q6 -90 6 -281q0 -748 -86 -872q-16 -23 -129 -129q-37 -16 -84 -55q-168 -29 -283 -29q-63 0 -235 12 q-39 33 -88 43q-49 12 -80 29q-47 31 -127 121q-88 100 -78 135q-72 72 -72 614q0 326 19 564l-43 32q-8 -2 -170 -2q-10 10 -11 29zM680 1755q-4 51 49 240q55 197 84 209q4 0 12.5 -1t14.5 -3l6 -2q10 -2 55 6q41 8 72 8q39 -1 49 -19q43 -10 43 -45q0 -25 -20.5 -50 t-47.5 -32q-23 -33 -86 -112q-29 -27 -141 -144q-12 -29 -49 -67q-8 -8 -25 -4q-16 6 -16 16z" />
<glyph unicode="&#xdb;" horiz-adv-x="1806" d="M-25 1575q0 43 27 51q31 14 168 16q141 4 195 -6q102 -18 159 -12q4 0 15.5 -1t33 -2t39.5 -1q53 -4 88 8q18 6 39 6q29 0 50.5 -17.5t21.5 -37.5q0 -45 -70 -45q-12 0 -100 12q-59 8 -88 -4q-37 -20 -33 -86q4 -90 6 -366q2 -285 -4 -338q-10 -76 -10 -142 q0 -213 74 -350q92 -172 278 -172h115l12 10q4 -2 17 -2q10 0 120 39q18 2 70 23q57 39 94 123q39 84 39 165q0 29 -6 58l14 74q6 236 15 684v4q0 2 1 13t1 24q2 31 2 81q0 182 -45 185q-10 0 -78 -6q-74 -6 -115 -7q-68 0 -78 17q-12 25 -12 41q0 33 49 33q20 0 97 -17 q61 -12 81 -8q92 20 297 16q43 -2 70 -2q23 -2 34 -11t7 -23q-10 -55 -68 -56q-40 0 -73 27q-25 0 -68 -8q-12 -20 -12 -58q0 -10 2 -43.5t2 -42.5q0 -39 -12 -57q6 -90 6 -281q0 -748 -86 -872q-16 -23 -129 -129q-37 -16 -84 -55q-168 -29 -283 -29q-63 0 -235 12 q-39 33 -88 43q-49 12 -80 29q-47 31 -127 121q-88 100 -78 135q-72 72 -72 614q0 326 19 564l-43 32q-8 -2 -170 -2q-10 10 -11 29zM582 1729q0 37 18 65q20 35 102 238q78 190 95 200l59 -12q20 -53 43 -121q14 -14 37 -55q41 -80 119 -270q4 -20 4 -27q0 -33 -26.5 -51.5 t-61.5 -12.5q-63 12 -99 140q-36 139 -65 157h-16q-12 -16 -41 -104q-29 -96 -48 -123q-35 -59 -75 -59q-45 0 -45 35z" />
<glyph unicode="&#xdc;" horiz-adv-x="1806" d="M-25 1575q0 43 27 51q31 14 168 16q141 4 195 -6q102 -18 159 -12q4 0 15.5 -1t33 -2t39.5 -1q53 -4 88 8q18 6 39 6q29 0 50.5 -17.5t21.5 -37.5q0 -45 -70 -45q-12 0 -100 12q-59 8 -88 -4q-37 -20 -33 -86q4 -90 6 -366q2 -285 -4 -338q-10 -76 -10 -142 q0 -213 74 -350q92 -172 278 -172h115l12 10q4 -2 17 -2q10 0 120 39q18 2 70 23q57 39 94 123q39 84 39 165q0 29 -6 58l14 74q6 236 15 684v4q0 2 1 13t1 24q2 31 2 81q0 182 -45 185q-10 0 -78 -6q-74 -6 -115 -7q-68 0 -78 17q-12 25 -12 41q0 33 49 33q20 0 97 -17 q61 -12 81 -8q92 20 297 16q43 -2 70 -2q23 -2 34 -11t7 -23q-10 -55 -68 -56q-40 0 -73 27q-25 0 -68 -8q-12 -20 -12 -58q0 -10 2 -43.5t2 -42.5q0 -39 -12 -57q6 -90 6 -281q0 -748 -86 -872q-16 -23 -129 -129q-37 -16 -84 -55q-168 -29 -283 -29q-63 0 -235 12 q-39 33 -88 43q-49 12 -80 29q-47 31 -127 121q-88 100 -78 135q-72 72 -72 614q0 326 19 564l-43 32q-8 -2 -170 -2q-10 10 -11 29zM483 2021q0 20 11 41q-10 43 55 78q51 29 100 33q53 2 84 -33t31 -90q0 -61 -33 -102q-35 -49 -92 -50q-11 1 -31 5q-47 -10 -86 28.5 t-39 89.5zM958 2028q0 63 51.5 120.5t112.5 57.5q16 0 25 -2q20 -6 49 -35t31 -47q-8 -14 -10 -41q0 -70 -37 -117t-93 -47q-25 0 -49 8q-80 29 -80 103z" />
<glyph unicode="&#xdd;" d="M-166 1585q0 45 86 45q10 0 52 -2t55 -2q47 0 65 12q12 -8 514 -12l10 12q10 -8 82 -10q59 -4 60 -26q0 -20 -33 -54q-41 0 -72 -2q-18 18 -71 15q-66 -6 -82 2l-39 -29q25 -86 149 -324q123 -240 181 -297l26 13q129 227 213 334q23 29 72 133q55 115 55 145q0 6 -2 8 q-14 10 -74 15q-57 2 -86 28q6 20 20.5 41t31.5 21q6 0 16 -11q166 2 356 0q43 -12 43 -38.5t-35.5 -45t-85.5 -14.5q-20 0 -47 -14l-41 -25q-20 -8 -67 -98q-129 -215 -242 -412q-80 -147 -80 -422q0 -14 1 -37.5t2 -68.5t1 -80q2 -113 0 -176q0 -20 15 -62q14 -38 10 -63 q2 0 108 -4q10 -4 95 -17q55 -6 49 -65q-23 -6 -45 -6l-62 8q-27 4 -43 6q-51 8 -104 8q-27 0 -225 -24q-6 -2 -58 6q-39 6 -92 6q-57 0 -157.5 -8t-155.5 -6q-10 10 -10 26q0 31 9 43.5t27 8.5q59 -14 150 -15q152 0 164 65.5t12 192.5q0 57 -16 422q-53 76 -160 273 q-98 182 -146 290l-26 15q-74 117 -125 172q-86 86 -180 86q-35 0 -62 -8q-6 14 -6 26zM801 1724q-2 51 49 242q55 193 84 205q8 2 16 0q14 -6 17 -6q14 0 55 8t72 8q41 0 49 -18q43 -8 43 -47q0 -25 -20.5 -49.5t-47.5 -30.5q-12 -16 -86 -115q-49 -45 -141 -141 q-12 -31 -49 -68q-6 -10 -25 -4q-16 4 -16 16z" />
<glyph unicode="&#xde;" d="M-20 18q0 43 61 50q88 8 127 10q68 12 84 61q31 117 4 563v5q-10 166 -20 213q27 35 26 137q-4 70 -20 209q8 35 4 131q-6 82 6 127q-35 61 -90 61q-23 0 -62 -12q-39 -10 -71 -14q-23 23 -23 57q0 27 17 49q55 -6 186 8q68 -12 180 -12q20 0 176 4q147 4 150 4 q18 12 59 0q6 0 34 11.5t36 11.5q39 0 39 -35q0 -27 -47 -68q-37 0 -100.5 6.5t-65.5 6.5q-68 0 -99 -121q-18 -74 -12 -228q49 10 152 7q70 -6 209 -23q129 -16 196 -68q6 -10 39 -43q80 -47 128 -133t48 -178q0 -16 -4 -53q-20 -117 -37 -154q-18 -45 -92 -127l-106 -39 l-31 -24q-43 -10 -264 -27q-176 -10 -238 -49q0 -8 -4 -86t-4 -82q0 -90 49 -102q25 -8 100 -9h107l27 -32q4 -37 -29 -41l-57 2q-59 0 -365 6q-225 6 -367 0l-32 -2q-4 16 -4 22zM561 743q-2 -164 4 -268q29 -29 64 -29q12 0 49 6.5t45 6.5q205 4 272 71q57 55 58 191 q0 6 -4.5 113t-4.5 127q0 102 -139 163q-119 53 -258 54q-23 0 -59 -4q-2 -20 -17 -168q-6 -61 -10 -263z" />
<glyph unicode="&#xdf;" horiz-adv-x="1302" d="M-10 43q0 55 51 55q4 0 24.5 -2t26.5 -2q39 0 47 58q12 29 33 110q2 12 -6 60.5t-4 64.5q18 80 -4 281q4 45 4 108q-18 182 -2 225q0 162 14 222q14 37 53 168q23 92 127 174q111 84 199 75q49 16 94 17q141 0 275 -113q33 -39 32 -88q1 -53 -77 -176q12 -2 12 -12 q0 -6 -6 -10.5t-11 -2.5q-6 2 5 25q-2 2 -9 2l-65 -80q-43 -59 -43 -112q0 -82 86 -158q12 -10 76 -86q37 -47 94 -74q59 -29 102 -104q41 -90 64 -133q8 -20 6 -95q-2 -61 -2 -106q-31 -96 -74 -148.5t-135 -105.5q-104 -61 -211 -62q-139 0 -240 95q-94 88 -94 192 q0 96 88 146h29q8 6 22 6q25 0 51.5 -27t39.5 -55q2 -4 2 -21q0 -6 -3.5 -47t-3.5 -59q0 -125 72 -135q25 -37 43 -37q14 0 31 14q80 2 112 94l33 160q10 51 10 90q0 127 -90 271q-53 78 -180 225q-10 51 -10 98q0 92 27.5 172t70.5 113q12 23 47 57q18 16 41 84q4 12 4 23 q0 88 -157 125q-31 6 -60 6q-139 0 -225 -162q-10 -23 -29 -125q-2 -18 6 -107q12 -94 9 -200q-16 -4 -17 -43q0 -33 8 -82q10 -57 11 -64q0 -49 -8 -221q-8 -162 -9 -285q0 -160 17 -221q2 -12 35 -28q31 -12 40 -31q8 -16 -2 -39q-25 -8 -77 -2q-41 4 -64.5 3t-40 -1 t-26.5 4q-37 14 -43 14q-20 4 -29 5q-25 0 -80 -16.5t-80 -16.5q-10 0 -31 4q-27 8 -26 49z" />
<glyph unicode="&#xe0;" horiz-adv-x="1058" d="M-8 248q0 49 12 123q20 117 172 153l268 43q139 35 140 146v94q0 61 -9 80q-25 90 -122 90q-55 0 -90 -35t-41 -96l-13 -105q-25 -68 -90 -67q-57 0 -115 47q-53 49 -53 108q0 82 111 144q98 53 186 51q47 29 115 31q53 4 164 -49q113 -51 131 -95q51 -104 51 -313 q0 -18 -4 -149.5t-4 -141.5q0 -147 30 -205q18 -33 50 -36l57 -11q16 -37 -20 -61q-23 2 -101 2q-41 6 -145 51q-16 16 -39 51q-27 37 -41 37q-20 0 -57 -41q-45 -49 -56 -51q-98 -47 -198 -47q-111 0 -193 51q-96 61 -96 201zM221 362q-4 -18 2 -38q10 -35 10 -37 q2 -53 35 -105q33 -57 82 -69q27 -8 76 0q53 10 68 26q57 59 65 131l8 146l8 45q2 27 -13 46t-38 13q-59 -20 -131 -41q-4 -2 -55 2q-39 2 -53 -6q-43 -37 -64 -113zM350 1591q0 6 6 15q4 6 37 20t41 27q72 -25 176 -54q29 -20 39 -137l17 -192q10 -47 -37 -78 q-23 16 -49 51q-61 84 -209 299q-20 29 -21 49z" />
<glyph unicode="&#xe1;" horiz-adv-x="1058" d="M-8 248q0 49 12 123q20 117 172 153l268 43q139 35 140 146v94q0 61 -9 80q-25 90 -122 90q-55 0 -90 -35t-41 -96l-13 -105q-25 -68 -90 -67q-57 0 -115 47q-53 49 -53 108q0 82 111 144q98 53 186 51q47 29 115 31q53 4 164 -49q113 -51 131 -95q51 -104 51 -313 q0 -18 -4 -149.5t-4 -141.5q0 -147 30 -205q18 -33 50 -36l57 -11q16 -37 -20 -61q-23 2 -101 2q-41 6 -145 51q-16 16 -39 51q-27 37 -41 37q-20 0 -57 -41q-45 -49 -56 -51q-98 -47 -198 -47q-111 0 -193 51q-96 61 -96 201zM221 362q-4 -18 2 -38q10 -35 10 -37 q2 -53 35 -105q33 -57 82 -69q27 -8 76 0q53 10 68 26q57 59 65 131l8 146l8 45q2 27 -13 46t-38 13q-59 -20 -131 -41q-4 -2 -55 2q-39 2 -53 -6q-43 -37 -64 -113zM264 1186q-2 51 49 239q53 197 84 207q6 4 17 0q12 -6 16 -6q14 0 55 8t72 8q41 0 49 -18q43 -10 43 -45 q0 -27 -20.5 -51.5t-46.5 -30.5q-12 -16 -86 -115q-49 -47 -142 -141q-14 -31 -49 -67q-8 -8 -24.5 -4t-16.5 16z" />
<glyph unicode="&#xe2;" horiz-adv-x="1058" d="M-8 248q0 49 12 123q20 117 172 153l268 43q139 35 140 146v94q0 61 -9 80q-25 90 -122 90q-55 0 -90 -35t-41 -96l-13 -105q-25 -68 -90 -67q-57 0 -115 47q-53 49 -53 108q0 82 111 144q98 53 186 51q47 29 115 31q53 4 164 -49q113 -51 131 -95q51 -104 51 -313 q0 -18 -4 -149.5t-4 -141.5q0 -147 30 -205q18 -33 50 -36l57 -11q16 -37 -20 -61q-23 2 -101 2q-41 6 -145 51q-16 16 -39 51q-27 37 -41 37q-20 0 -57 -41q-45 -49 -56 -51q-98 -47 -198 -47q-111 0 -193 51q-96 61 -96 201zM221 362q-4 -18 2 -38q10 -35 10 -37 q2 -53 35 -105q33 -57 82 -69q27 -8 76 0q53 10 68 26q57 59 65 131l8 146l8 45q2 27 -13 46t-38 13q-59 -20 -131 -41q-4 -2 -55 2q-39 2 -53 -6q-43 -37 -64 -113zM227 1198q0 37 16.5 65.5t104.5 237.5q78 190 94 201l60 -12q14 -45 43 -121q16 -16 37 -56 q45 -88 116 -270q4 -20 4 -26q0 -33 -25.5 -51.5t-62.5 -12.5q-63 12 -98 139q-36 142 -63 156h-17q-12 -18 -41 -102q-29 -96 -47 -123q-35 -59 -78 -59.5t-43 34.5z" />
<glyph unicode="&#xe3;" horiz-adv-x="1058" d="M-8 248q0 49 12 123q20 117 172 153l268 43q139 35 140 146v94q0 61 -9 80q-25 90 -122 90q-55 0 -90 -35t-41 -96l-13 -105q-25 -68 -90 -67q-57 0 -115 47q-53 49 -53 108q0 82 111 144q98 53 186 51q47 29 115 31q53 4 164 -49q113 -51 131 -95q51 -104 51 -313 q0 -18 -4 -149.5t-4 -141.5q0 -147 30 -205q18 -33 50 -36l57 -11q16 -37 -20 -61q-23 2 -101 2q-41 6 -145 51q-16 16 -39 51q-27 37 -41 37q-20 0 -57 -41q-45 -49 -56 -51q-98 -47 -198 -47q-111 0 -193 51q-96 61 -96 201zM70 1188q0 66 77 162q76 94 142 90 q18 0 82 -29l92 -41l178 -49q39 -12 74 -12q51 0 82 34q18 23 32 64q12 35 23 35q37 0 37 -61.5t-66 -174.5q-14 -2 -51 -37q-33 -33 -53 -26l-135 18q-53 8 -207 72q-70 29 -113 29q-66 0 -102 -62q-35 -61 -51 -61q-41 0 -41 49zM221 362q-4 -18 2 -38q10 -35 10 -37 q2 -53 35 -105q33 -57 82 -69q27 -8 76 0q53 10 68 26q57 59 65 131l8 146l8 45q2 27 -13 46t-38 13q-59 -20 -131 -41q-4 -2 -55 2q-39 2 -53 -6q-43 -37 -64 -113z" />
<glyph unicode="&#xe4;" horiz-adv-x="1058" d="M-8 248q0 49 12 123q20 117 172 153l268 43q139 35 140 146v94q0 61 -9 80q-25 90 -122 90q-55 0 -90 -35t-41 -96l-13 -105q-25 -68 -90 -67q-57 0 -115 47q-53 49 -53 108q0 82 111 144q98 53 186 51q47 29 115 31q53 4 164 -49q113 -51 131 -95q51 -104 51 -313 q0 -18 -4 -149.5t-4 -141.5q0 -147 30 -205q18 -33 50 -36l57 -11q16 -37 -20 -61q-23 2 -101 2q-41 6 -145 51q-16 16 -39 51q-27 37 -41 37q-20 0 -57 -41q-45 -49 -56 -51q-98 -47 -198 -47q-111 0 -193 51q-96 61 -96 201zM193 1454q0 23 10 43q-10 43 55 78 q53 29 100 31q53 4 84 -31t31 -90q0 -61 -33 -103q-35 -49 -92 -49q-11 0 -31 4q-47 -10 -85.5 29t-38.5 88zM221 362q-4 -18 2 -38q10 -35 10 -37q2 -53 35 -105q33 -57 82 -69q27 -8 76 0q53 10 68 26q57 59 65 131l8 146l8 45q2 27 -13 46t-38 13q-59 -20 -131 -41 q-4 -2 -55 2q-39 2 -53 -6q-43 -37 -64 -113zM668 1462q0 63 51 120.5t112 57.5q16 0 25 -2q20 -6 49 -35t31 -47q-8 -14 -10 -43q0 -68 -37 -114.5t-92 -46.5q-27 0 -49 8q-80 25 -80 102z" />
<glyph unicode="&#xe5;" horiz-adv-x="1058" d="M-8 248q0 49 12 123q20 117 172 153l268 43q139 35 140 146v94q0 61 -9 80q-25 90 -122 90q-55 0 -90 -35t-41 -96l-13 -105q-25 -68 -90 -67q-57 0 -115 47q-53 49 -53 108q0 82 111 144q98 53 186 51q47 29 115 31q53 4 164 -49q113 -51 131 -95q51 -104 51 -313 q0 -18 -4 -149.5t-4 -141.5q0 -147 30 -205q18 -33 50 -36l57 -11q16 -37 -20 -61q-23 2 -101 2q-41 6 -145 51q-16 16 -39 51q-27 37 -41 37q-20 0 -57 -41q-45 -49 -56 -51q-98 -47 -198 -47q-111 0 -193 51q-96 61 -96 201zM221 362q-4 -18 2 -38q10 -35 10 -37 q2 -53 35 -105q33 -57 82 -69q27 -8 76 0q53 10 68 26q57 59 65 131l8 146l8 45q2 27 -13 46t-38 13q-59 -20 -131 -41q-4 -2 -55 2q-39 2 -53 -6q-43 -37 -64 -113zM272 1399q0 104 123 219l189 22q31 4 90 -65q61 -66 65 -105q0 -145 -22 -200q-20 -45 -76 -53l-135 -13 q-33 -6 -107 29q-68 33 -92 63q-35 47 -35 103zM428 1397q0 -57 26.5 -100.5t63.5 -43.5q27 0 49 21q17 16 29 61l20 68q0 66 -22.5 105.5t-58.5 39.5q-66 0 -101 -102q-6 -20 -6 -49z" />
<glyph unicode="&#xe7;" horiz-adv-x="1073" d="M4 532q0 141 72 285q-4 20 -4 31q0 80 137 153l186 93q174 4 264 -25q141 -39 189 -174q20 -55 20 -98q0 -63 -43 -90q-29 -20 -73 -21q-55 0 -89 32t-34 87q0 12 4 51t4 49q0 27 -10 43q-10 18 -82 66q-35 25 -70 24q-96 0 -164 -161q-66 -156 -65 -349q0 -285 139 -399 q45 -39 113 -39q129 0 215 107q20 23 32 67q12 43 23 68q31 63 61 63q41 0 41 -82q0 -147 -141 -258q-29 -12 -86 -61l-141 -19q-29 -41 -29 -120v-9.5v-10.5t1 -8t2 -7t4 -6t8.5 -6.5t11.5 -4.5t15 -4t22 -4l69 -8q66 -16 80 -74q10 -29 6 -114q-8 -27 -22 -37 q-2 -31 -70 -66q-70 -37 -86 -71q-33 -27 -78 -27q-29 0 -84 18q-29 10 -58.5 13.5t-43.5 6.5t-23 9q-41 37 -41 96q0 29 19 51q29 29 51 23q27 -6 33 -39q14 -76 84 -76q53 0 100 43t37 90q-10 39 -107 66q-100 29 -102 82q-4 43 49 72q61 35 70 116q-63 0 -90 15 q-23 10 -103 67q-94 66 -104 82q-14 20 -29 74q-14 57 -26 78q-63 113 -64 247z" />
<glyph unicode="&#xe8;" horiz-adv-x="1050" d="M0 539q0 248 170 407q6 16 59 39q66 27 72 35q61 49 158 49q104 0 215 -51q47 -23 104 -137q61 -123 62 -209q0 -66 -39 -86q-20 -10 -152 -11h-149q-172 -4 -213 -14q-45 -8 -45 -96q0 -109 61 -223q66 -127 150 -133l61 -19q45 -8 121 62q63 57 94 112l29 78 q25 61 51 61q47 0 47 -77q0 -59 -41 -146q-35 -73 -72 -106q-35 -6 -102 -51q-59 -39 -149 -35q-225 8 -363 178q-129 158 -129 373zM260 764q0 -6 3 -28.5t3 -30.5v-11q0 -59 29 -65q16 -4 41 -4q82 0 170 18q105 20 123 53q12 20 12 49q0 74 -61 144q-61 74 -136 74 q-66 0 -125 -66t-59 -133zM350 1591q0 6 6 15q4 6 37 20t41 27q72 -25 176 -54q29 -20 39 -137l17 -192q10 -47 -37 -78q-23 16 -49 51q-61 84 -209 299q-20 29 -21 49z" />
<glyph unicode="&#xe9;" horiz-adv-x="1048" d="M6 571q0 104 68 211q61 100 149 156q41 72 123 90l152 31h26q8 -4 51 -23.5t58.5 -28t46.5 -24.5t50.5 -33.5t35.5 -36.5q6 -25 49 -120q39 -84 39 -129q0 -76 -104 -89l-58 -14q-8 -4 -117 12q-115 14 -190 15q-131 0 -135 -49q0 -14 -7 -66.5t-7 -66.5q0 -63 45 -111 q6 -4 14 -64q8 -51 63 -94q45 -33 82 -33q6 0 15 5q25 -4 39 -5q78 0 149.5 51.5t97.5 125.5q0 2 8.5 14t14.5 25.5t6 19.5q0 8 -6 14q0 37 39 37q45 0 49 -43q23 -231 -147 -323q-68 -40 -265 -52q-18 16 -65 13q-45 -2 -47 0q-20 25 -29.5 32t-38.5 17q-102 35 -160 137 l-10 21q-8 20 -29.5 72t-44.5 106q-16 41 4 55l-2 66q-12 41 -12 79zM239.5 698q0.5 -51 36.5 -51q10 0 17 2q41 10 94 13q90 6 96 6q35 4 88 20q23 12 23 78q2 49 -8 88q-21 72 -97 88l-141 6q-41 -37 -74 -117q-35 -82 -34.5 -133zM264 1186q-2 51 49 239q53 197 84 207 q6 4 17 0q12 -6 16 -6q14 0 55 8t72 8q41 0 49 -18q43 -10 43 -45q0 -27 -20.5 -51.5t-46.5 -30.5q-12 -16 -86 -115q-49 -47 -142 -141q-14 -31 -49 -67q-8 -8 -24.5 -4t-16.5 16z" />
<glyph unicode="&#xea;" horiz-adv-x="1050" d="M4 543q0 162 105 323q55 88 151 140.5t199 52.5q176 0 284 -90q4 -4 31 -58l21 -32q10 -18 8 -29q0 -6 35 -98q29 -70 28 -107q0 -16 -2 -24.5t-9 -19.5t-24.5 -16t-46.5 -5l-161 18q-45 4 -140 -14q-39 10 -100 16q-37 -4 -115 -29q-8 -47 -8 -106q0 -270 174 -359 q51 -27 96 -26q76 0 138 78q27 33 86 143q43 78 69 78q23 0 36 -21.5t13 -48.5q0 -47 -24 -104q-27 -61 -49 -82l-49 -23l-76 -71q-53 -47 -90 -47q-10 0 -23 4q-14 4 -106 14q-77 11 -95 23q-43 4 -61 16q-12 8 -49 27.5t-54.5 31t-43 30.5t-40 43t-20.5 50l-29 62 q-59 143 -59 260zM266 1196q0 37 19 66q20 35 102 237q76 184 96 199l58 -10l43 -121q16 -20 37 -58q41 -80 118 -270q4 -16 4 -25q0 -33 -26.5 -52t-61.5 -11q-63 8 -98 137q-36 140 -65 158h-17q-12 -16 -41 -105q-29 -94 -45 -122q-35 -59 -78 -60q-45 0 -45 37zM268 784 q-2 -109 4 -129q43 -12 60 -10l57 19q16 6 31 6q10 0 54 -10.5t61 -10.5q23 0 43 6q28 -4 55 2q0 176 -58 265q-49 78 -124 77q-70 0 -127 -63q-55 -61 -56 -152z" />
<glyph unicode="&#xeb;" horiz-adv-x="1085" d="M6 582q-2 45 6 80q35 127 88 192q41 49 164 145l66 23q141 53 176 53q23 0 31 -8q12 6 26 6q66 0 187 -90q113 -84 133 -123q31 -59 30 -143q0 -68 -31.5 -89.5t-90.5 -21.5q-27 0 -99 10q-59 10 -67 9q-150 -27 -293 -25q-55 -14 -64 -29q-25 -145 8 -227q16 -25 41 -78 q2 -6 4.5 -22.5t5.5 -25.5t7 -20.5t12 -19.5t19 -12q4 -41 110 -72q41 -10 70 -10q76 0 137 61q35 35 90 135.5t88 139.5q55 -2 55 -66q0 -39 -20 -92q-27 -18 -61 -76q-72 -190 -318 -190q-115 0 -229 43q-18 23 -60 49q-102 37 -161 172q-41 98 -52 242zM193 1454 q0 23 10 43q-10 43 55 78q53 29 100 31q53 4 84 -31t31 -90q0 -61 -33 -103q-35 -49 -92 -49q-11 0 -31 4q-47 -10 -85.5 29t-38.5 88zM270 723q0 -66 68 -66q23 0 63 11q41 -4 109 2q35 8 137 24q47 2 47 101q0 80 -35 139q-38 68 -110 78q-63 -6 -191 -51l-51 -58 q-8 -41 -22 -92q-14 -55 -15 -88zM668 1462q0 63 51 120.5t112 57.5q16 0 25 -2q20 -6 49 -35t31 -47q-8 -14 -10 -43q0 -68 -37 -114.5t-92 -46.5q-27 0 -49 8q-80 25 -80 102z" />
<glyph unicode="&#xec;" horiz-adv-x="606" d="M-2 1014q10 20 80 41h127q104 -4 119 -15q37 -27 36 -204q0 -70 -6 -172q-6 -119 -6 -121q-2 -39 4 -117q6 -92 6 -117q-6 -51 2 -143q12 -49 25 -57q21 -19 115 -35q16 -20 16 -33q0 -53 -203 -53q-2 0 -15 1t-40 2t-55 1q-186 6 -187 49q0 16 29 45q14 -6 29 -6 q68 0 67 143q0 59 -12 142q14 20 14 90q0 68 -2 100q-8 12 -4 92q2 86 0 107q-10 29 -18 82q0 20 2 59q4 37 -17 53q-104 -4 -106 66zM145 1579q0 8 5 12q6 6 38.5 21.5t40.5 27.5q78 -27 177 -51q31 -23 40 -137q13 -169 17 -192q12 -51 -39 -78q-25 18 -47 51 q-88 117 -211 299q-20 27 -21 47z" />
<glyph unicode="&#xed;" horiz-adv-x="606" d="M-2 1014q10 20 80 41h127q104 -4 119 -15q37 -27 36 -204q0 -70 -6 -172q-6 -119 -6 -121q-2 -39 4 -117q6 -92 6 -117q-6 -51 2 -143q12 -49 25 -57q21 -19 115 -35q16 -20 16 -33q0 -53 -203 -53q-2 0 -15 1t-40 2t-55 1q-186 6 -187 49q0 16 29 45q14 -6 29 -6 q68 0 67 143q0 59 -12 142q14 20 14 90q0 68 -2 100q-8 12 -4 92q2 86 0 107q-10 29 -18 82q0 20 2 59q4 37 -17 53q-104 -4 -106 66zM184 1186q-4 51 49 239q55 197 86 209q4 2 17.5 -2t15.5 -4q8 -2 54 6q41 8 71 8q39 0 49 -18q45 -8 45 -45q0 -25 -20.5 -50.5 t-48.5 -31.5q-23 -33 -86 -113l-140 -143q-14 -31 -49 -67q-8 -8 -24 -5q-14 6 -19 17z" />
<glyph unicode="&#xee;" horiz-adv-x="606" d="M-10 1204q0 37 18 66q20 35 103 237q76 184 96 199l57 -10l43 -121q14 -16 39 -57q43 -88 117 -271q4 -16 4 -24q0 -33 -26.5 -52.5t-61.5 -11.5q-63 8 -98 137q-37 142 -64 158h-18q-14 -18 -39 -104q-27 -84 -47 -123q-35 -59 -78 -60q-45 0 -45 37zM-2 1014 q10 20 80 41h127q104 -4 119 -15q37 -27 36 -204q0 -70 -6 -172q-6 -119 -6 -121q-2 -39 4 -117q6 -92 6 -117q-6 -51 2 -143q12 -49 25 -57q21 -19 115 -35q16 -20 16 -33q0 -53 -203 -53q-2 0 -15 1t-40 2t-55 1q-186 6 -187 49q0 16 29 45q14 -6 29 -6q68 0 67 143 q0 59 -12 142q14 20 14 90q0 68 -2 100q-8 12 -4 92q2 86 0 107q-10 29 -18 82q0 20 2 59q4 37 -17 53q-104 -4 -106 66z" />
<glyph unicode="&#xef;" horiz-adv-x="606" d="M-2 1014q10 20 80 41h127q104 -4 119 -15q37 -27 36 -204q0 -70 -6 -172q-6 -119 -6 -121q-2 -39 4 -117q6 -92 6 -117q-6 -51 2 -143q12 -49 25 -57q21 -19 115 -35q16 -20 16 -33q0 -53 -203 -53q-2 0 -15 1t-40 2t-55 1q-186 6 -187 49q0 16 29 45q14 -6 29 -6 q68 0 67 143q0 59 -12 142q14 20 14 90q0 68 -2 100q-8 12 -4 92q2 86 0 107q-10 29 -18 82q0 20 2 59q4 37 -17 53q-104 -4 -106 66zM33 1444q0 23 10 43q-10 43 53 78q51 27 103 30q53 4 83.5 -30.5t30.5 -91.5q0 -59 -32 -101q-35 -49 -93 -49q-12 0 -32 4q-45 -8 -84 29 q-39 39 -39 88zM344 1421q0 63 51 120.5t111 57.5q18 0 26 -2q20 -6 48 -34.5t30 -46.5l-10 -41q0 -70 -36 -117t-93 -47q-25 0 -47 8q-80 29 -80 102z" />
<glyph unicode="&#xf0;" horiz-adv-x="1232" d="M4 563q0 145 86 289q16 29 45 70q154 135 318 135q53 0 102 -23q20 -10 29 -10q4 0 7 4t5 8l2 2l23 -24q20 -31 55 -15q14 6 14 29q0 33 -41 137.5t-41 116.5q-2 4 6.5 21.5t8.5 21.5q0 6 -5 14l-61 21q-12 4 -20 4q-2 0 -21.5 -6t-49.5 -11.5t-54 -3.5q-86 6 -86 60 q0 41 77 51q23 4 109 -6q-10 31 -49 51q-41 25 -62 35l-75 55q-6 18 -7 29q0 23 23 22q14 0 29 -6q29 12 57 13q23 0 137 -50q102 -45 168 -116l37 -27q20 -16 53 -16q8 0 46 4t51 4q61 0 61 -33t-47 -67q-39 -6 -103 -5q37 -82 48 -110q16 -47 34 -131q0 -10 43 -96 q35 -74 39 -142v-10q2 -8 3 -26.5t1 -39.5q4 -82 5 -110q0 -117 -23 -211q-72 -281 -209 -367q-92 -59 -151 -78q-45 -10 -172 -16l-111 31q-74 20 -102 43q-57 43 -150 143q-16 16 -18 41q-2 10 -4.5 20.5t-4.5 15.5t-2 7q-53 147 -53 258zM248 371q2 -18 2 -90 q4 -84 78 -142q72 -53 159 -53q143 0 189 129q6 14 21.5 52t22.5 57.5t17.5 48t14.5 52.5t4 42q0 49 -19 100q-6 14 0 95q8 82 6 94q-23 98 -106 159q-84 63 -182 64q-176 0 -205 -176q-23 -143 -2 -432z" />
<glyph unicode="&#xf1;" horiz-adv-x="1208" d="M-20 985q4 80 43 80l47 -6q49 -6 77 -6q61 0 132 18l32 -22q0 -66 21 -148q115 104 166 135t104 31q29 0 47 -2q66 -6 94 -12q57 -8 86 -29q147 -94 148 -403q0 -59 -6 -170t-6 -158q0 -154 53 -195q6 2 16 2q39 0 39 -53q0 -39 -26 -47q-74 -20 -211 -12q-160 6 -213 -2 q-8 -2 -14.5 7t-8.5 27q-4 35 2 43q27 14 84 39q68 39 70 127q0 143 -8 351q-12 285 -29 313q-43 66 -156 65q-27 0 -47 -6q-184 -66 -184 -465q-1 -124 28 -376l76 -21q49 -18 49 -45q0 -16 -18 -39q-311 16 -320 -8q-55 -6 -139 10q-10 16 -10 27q0 49 94 67q29 92 31 334 l-6 326v29q0 8 3 43.5t3 48.5q0 80 -57 88q-37 0 -86 14zM70 1188q0 66 77 162q76 94 142 90q18 0 82 -29l92 -41l178 -49q39 -12 74 -12q51 0 82 34q18 23 32 64q12 35 23 35q37 0 37 -61.5t-66 -174.5q-14 -2 -51 -37q-33 -33 -53 -26l-135 18q-53 8 -207 72 q-70 29 -113 29q-66 0 -102 -62q-35 -61 -51 -61q-41 0 -41 49z" />
<glyph unicode="&#xf2;" horiz-adv-x="1110" d="M-2 563q0 90 47 144q-12 84 160 219q164 129 254 129q195 2 289 -82q43 -37 167 -242q49 -84 50 -178q0 -115 -78 -283l-82 -125q-45 -41 -82 -63q-68 -39 -84 -53q-31 -4 -82 -19q-55 -16 -84 -16q-12 0 -55 9t-56 9q-18 10 -86 33q-61 23 -81 47q-82 98 -121 148 q-45 57 -62 118q-16 76 -14 205zM236 479l40 -209q35 -117 109 -178q14 -12 51 -22q37 -12 51 -9q119 37 168 117q18 33 72 197q6 20 6 45q0 33 -31 125q18 41 19 82q0 53 -27 118q4 20 4 29q0 92 -100 193q-16 16 -80 12q-33 -2 -84 -10q-82 -2 -139 -88q-53 -84 -53 -179 q0 -20 11 -64t7 -63l-18 -47q-8 -29 -6 -49zM350 1591q0 6 6 15q4 6 37 20t41 27q72 -25 176 -54q29 -20 39 -137l17 -192q10 -47 -37 -78q-23 16 -49 51q-61 84 -209 299q-20 29 -21 49z" />
<glyph unicode="&#xf3;" horiz-adv-x="1110" d="M-2 563q0 90 47 144q-12 84 160 219q164 129 254 129q195 2 289 -82q43 -37 167 -242q49 -84 50 -178q0 -115 -78 -283l-82 -125q-45 -41 -82 -63q-68 -39 -84 -53q-31 -4 -82 -19q-55 -16 -84 -16q-12 0 -55 9t-56 9q-18 10 -86 33q-61 23 -81 47q-82 98 -121 148 q-45 57 -62 118q-16 76 -14 205zM236 479l40 -209q35 -117 109 -178q14 -12 51 -22q37 -12 51 -9q119 37 168 117q18 33 72 197q6 20 6 45q0 33 -31 125q18 41 19 82q0 53 -27 118q4 20 4 29q0 92 -100 193q-16 16 -80 12q-33 -2 -84 -10q-82 -2 -139 -88q-53 -84 -53 -179 q0 -20 11 -64t7 -63l-18 -47q-8 -29 -6 -49zM264 1186q-2 51 49 239q53 197 84 207q6 4 17 0q12 -6 16 -6q14 0 55 8t72 8q41 0 49 -18q43 -10 43 -45q0 -27 -20.5 -51.5t-46.5 -30.5q-12 -16 -86 -115q-49 -47 -142 -141q-14 -31 -49 -67q-8 -8 -24.5 -4t-16.5 16z" />
<glyph unicode="&#xf4;" horiz-adv-x="1110" d="M-2 563q0 90 47 144q-12 84 160 219q164 129 254 129q195 2 289 -82q43 -37 167 -242q49 -84 50 -178q0 -115 -78 -283l-82 -125q-45 -41 -82 -63q-68 -39 -84 -53q-31 -4 -82 -19q-55 -16 -84 -16q-12 0 -55 9t-56 9q-18 10 -86 33q-61 23 -81 47q-82 98 -121 148 q-45 57 -62 118q-16 76 -14 205zM236 479l40 -209q35 -117 109 -178q14 -12 51 -22q37 -12 51 -9q119 37 168 117q18 33 72 197q6 20 6 45q0 33 -31 125q18 41 19 82q0 53 -27 118q4 20 4 29q0 92 -100 193q-16 16 -80 12q-33 -2 -84 -10q-82 -2 -139 -88q-53 -84 -53 -179 q0 -20 11 -64t7 -63l-18 -47q-8 -29 -6 -49zM266 1196q0 37 19 66q20 35 102 237q76 184 96 199l58 -10l43 -121q16 -20 37 -58q41 -80 118 -270q4 -16 4 -25q0 -33 -26.5 -52t-61.5 -11q-63 8 -98 137q-36 140 -65 158h-17q-12 -16 -41 -105q-29 -94 -45 -122 q-35 -59 -78 -60q-45 0 -45 37z" />
<glyph unicode="&#xf5;" horiz-adv-x="1110" d="M-2 563q0 90 47 144q-12 84 160 219q164 129 254 129q195 2 289 -82q43 -37 167 -242q49 -84 50 -178q0 -115 -78 -283l-82 -125q-45 -41 -82 -63q-68 -39 -84 -53q-31 -4 -82 -19q-55 -16 -84 -16q-12 0 -55 9t-56 9q-18 10 -86 33q-61 23 -81 47q-82 98 -121 148 q-45 57 -62 118q-16 76 -14 205zM70 1188q0 66 77 162q76 94 142 90q18 0 82 -29l92 -41l178 -49q39 -12 74 -12q51 0 82 34q18 23 32 64q12 35 23 35q37 0 37 -61.5t-66 -174.5q-14 -2 -51 -37q-33 -33 -53 -26l-135 18q-53 8 -207 72q-70 29 -113 29q-66 0 -102 -62 q-35 -61 -51 -61q-41 0 -41 49zM236 479l40 -209q35 -117 109 -178q14 -12 51 -22q37 -12 51 -9q119 37 168 117q18 33 72 197q6 20 6 45q0 33 -31 125q18 41 19 82q0 53 -27 118q4 20 4 29q0 92 -100 193q-16 16 -80 12q-33 -2 -84 -10q-82 -2 -139 -88q-53 -84 -53 -179 q0 -20 11 -64t7 -63l-18 -47q-8 -29 -6 -49z" />
<glyph unicode="&#xf6;" horiz-adv-x="1110" d="M-2 563q0 90 47 144q-12 84 160 219q164 129 254 129q195 2 289 -82q43 -37 167 -242q49 -84 50 -178q0 -115 -78 -283l-82 -125q-45 -41 -82 -63q-68 -39 -84 -53q-31 -4 -82 -19q-55 -16 -84 -16q-12 0 -55 9t-56 9q-18 10 -86 33q-61 23 -81 47q-82 98 -121 148 q-45 57 -62 118q-16 76 -14 205zM193 1454q0 23 10 43q-10 43 55 78q53 29 100 31q53 4 84 -31t31 -90q0 -61 -33 -103q-35 -49 -92 -49q-11 0 -31 4q-47 -10 -85.5 29t-38.5 88zM236 479l40 -209q35 -117 109 -178q14 -12 51 -22q37 -12 51 -9q119 37 168 117q18 33 72 197 q6 20 6 45q0 33 -31 125q18 41 19 82q0 53 -27 118q4 20 4 29q0 92 -100 193q-16 16 -80 12q-33 -2 -84 -10q-82 -2 -139 -88q-53 -84 -53 -179q0 -20 11 -64t7 -63l-18 -47q-8 -29 -6 -49zM668 1462q0 63 51 120.5t112 57.5q16 0 25 -2q20 -6 49 -35t31 -47q-8 -14 -10 -43 q0 -68 -37 -114.5t-92 -46.5q-27 0 -49 8q-80 25 -80 102z" />
<glyph unicode="&#xf8;" horiz-adv-x="1110" d="M-2 563q0 90 47 144q-12 84 160 219q164 129 254 129q125 0 205 -29l20 47q12 20 35.5 41t40.5 21q31 0 31 -41q0 -8 -5 -29q-4 -27 -41 -90q104 -88 170 -244q39 -92 39 -190q0 -127 -67 -271l-82 -125q-45 -41 -82 -63q-68 -39 -84 -53q-31 -4 -82 -19q-55 -16 -84 -16 q-12 0 -55 9t-56 9q-12 8 -61 25q-72 -115 -100.5 -115t-28.5 49q0 23 10 60l19 26l-6 35q-82 98 -121 148q-45 57 -62 118q-16 76 -14 205zM215 668q4 -51 2 -101q-8 -37 4 -110q2 -45 10 -135q7 -68 70 -60l311 649q-4 27 -14 56q-16 16 -80 12q-33 -2 -84 -10 q-92 -2 -155 -101q-53 -84 -64 -200zM342 137q16 -23 43 -45q8 -8 72 -18q61 -8 73 -6q125 41 160 108q25 45 37 199q0 23 8 71q6 45 6 74q0 28 -6 51q16 37 17 68q0 2 -23 137q-4 84 -20 84q-4 0 -14.5 -6t-12.5 -6q-8 0 -10 8q-84 -162 -312 -631q-6 -14 -18 -88z" />
<glyph unicode="&#xf9;" horiz-adv-x="1245" d="M-18 1004q2 43 141 43q184 0 213 -29q6 -47 8 -346q0 -57 6 -215q4 -184 4 -215q0 -76 37 -130.5t92 -54.5q41 0 82 37l29 25q123 115 123 291v53q-2 23 -2 47q0 37 10 61q6 14 4 101q0 61 -6 157q0 18 -1 35t-1 27t-1 18.5t-1 12.5v2q0 31 -31 30q-16 0 -55 -12 q-39 -8 -51 -6q-39 12 -39 51q0 57 96 57h96l84 -18q41 29 66 29q74 0 73 -224q0 -16 -4 -155q-4 -135 -4 -148q0 -131 29 -159q0 -109 27 -240q4 0 9 -10t13 -10q17 0 66 12l28 -49l-10 -72q-39 -14 -170 -12q-129 2 -168 20q-14 6 -14 37q0 8 2 32.5t2 31.5q0 45 -31 45 q-27 0 -86 -72q-63 -74 -96 -82q-76 -16 -129 -16q-188 0 -289 153q-14 20 -12 131l4 144q0 18 -6 67q-4 57 -4 68q0 57 22 98l-8 160q-10 123 -37 137q-43 0 -69 12q-41 16 -41 50zM350 1591q0 6 6 15q4 6 37 20t41 27q72 -25 176 -54q29 -20 39 -137l17 -192 q10 -47 -37 -78q-23 16 -49 51q-61 84 -209 299q-20 29 -21 49z" />
<glyph unicode="&#xfa;" horiz-adv-x="1245" d="M-18 1004q2 43 141 43q184 0 213 -29q6 -47 8 -346q0 -57 6 -215q4 -184 4 -215q0 -76 37 -130.5t92 -54.5q41 0 82 37l29 25q123 115 123 291v53q-2 23 -2 47q0 37 10 61q6 14 4 101q0 61 -6 157q0 18 -1 35t-1 27t-1 18.5t-1 12.5v2q0 31 -31 30q-16 0 -55 -12 q-39 -8 -51 -6q-39 12 -39 51q0 57 96 57h96l84 -18q41 29 66 29q74 0 73 -224q0 -16 -4 -155q-4 -135 -4 -148q0 -131 29 -159q0 -109 27 -240q4 0 9 -10t13 -10q17 0 66 12l28 -49l-10 -72q-39 -14 -170 -12q-129 2 -168 20q-14 6 -14 37q0 8 2 32.5t2 31.5q0 45 -31 45 q-27 0 -86 -72q-63 -74 -96 -82q-76 -16 -129 -16q-188 0 -289 153q-14 20 -12 131l4 144q0 18 -6 67q-4 57 -4 68q0 57 22 98l-8 160q-10 123 -37 137q-43 0 -69 12q-41 16 -41 50zM408 1190q-2 51 49 242q55 193 84 204q4 0 12 -1t14 -3l6 -2q8 0 56 6q41 8 71 9 q42 -1 50 -19q43 -8 43 -45q0 -25 -20.5 -49.5t-47.5 -32.5l-86 -113q-29 -27 -141 -143q-12 -29 -49 -65q-10 -10 -25 -7q-16 6 -16 19z" />
<glyph unicode="&#xfb;" horiz-adv-x="1245" d="M-18 1004q2 43 141 43q184 0 213 -29q6 -47 8 -346q0 -57 6 -215q4 -184 4 -215q0 -76 37 -130.5t92 -54.5q41 0 82 37l29 25q123 115 123 291v53q-2 23 -2 47q0 37 10 61q6 14 4 101q0 61 -6 157q0 18 -1 35t-1 27t-1 18.5t-1 12.5v2q0 31 -31 30q-16 0 -55 -12 q-39 -8 -51 -6q-39 12 -39 51q0 57 96 57h96l84 -18q41 29 66 29q74 0 73 -224q0 -16 -4 -155q-4 -135 -4 -148q0 -131 29 -159q0 -109 27 -240q4 0 9 -10t13 -10q17 0 66 12l28 -49l-10 -72q-39 -14 -170 -12q-129 2 -168 20q-14 6 -14 37q0 8 2 32.5t2 31.5q0 45 -31 45 q-27 0 -86 -72q-63 -74 -96 -82q-76 -16 -129 -16q-188 0 -289 153q-14 20 -12 131l4 144q0 18 -6 67q-4 57 -4 68q0 57 22 98l-8 160q-10 123 -37 137q-43 0 -69 12q-41 16 -41 50zM266 1196q0 37 19 66q20 35 102 237q76 184 96 199l58 -10l43 -121q16 -20 37 -58 q41 -80 118 -270q4 -16 4 -25q0 -33 -26.5 -52t-61.5 -11q-63 8 -98 137q-36 140 -65 158h-17q-12 -16 -41 -105q-29 -94 -45 -122q-35 -59 -78 -60q-45 0 -45 37z" />
<glyph unicode="&#xfc;" horiz-adv-x="1245" d="M-18 1004q2 43 141 43q184 0 213 -29q6 -47 8 -346q0 -57 6 -215q4 -184 4 -215q0 -76 37 -130.5t92 -54.5q41 0 82 37l29 25q123 115 123 291v53q-2 23 -2 47q0 37 10 61q6 14 4 101q0 61 -6 157q0 18 -1 35t-1 27t-1 18.5t-1 12.5v2q0 31 -31 30q-16 0 -55 -12 q-39 -8 -51 -6q-39 12 -39 51q0 57 96 57h96l84 -18q41 29 66 29q74 0 73 -224q0 -16 -4 -155q-4 -135 -4 -148q0 -131 29 -159q0 -109 27 -240q4 0 9 -10t13 -10q17 0 66 12l28 -49l-10 -72q-39 -14 -170 -12q-129 2 -168 20q-14 6 -14 37q0 8 2 32.5t2 31.5q0 45 -31 45 q-27 0 -86 -72q-63 -74 -96 -82q-76 -16 -129 -16q-188 0 -289 153q-14 20 -12 131l4 144q0 18 -6 67q-4 57 -4 68q0 57 22 98l-8 160q-10 123 -37 137q-43 0 -69 12q-41 16 -41 50zM193 1454q0 23 10 43q-10 43 55 78q53 29 100 31q53 4 84 -31t31 -90q0 -61 -33 -103 q-35 -49 -92 -49q-11 0 -31 4q-47 -10 -85.5 29t-38.5 88zM668 1462q0 63 51 120.5t112 57.5q16 0 25 -2q20 -6 49 -35t31 -47q-8 -14 -10 -43q0 -68 -37 -114.5t-92 -46.5q-27 0 -49 8q-80 25 -80 102z" />
<glyph unicode="&#xfd;" horiz-adv-x="1144" d="M-197 -479q0 57 43 131q29 47 95 47q33 0 55 -15.5t53 -70.5q47 -80 51 -86q18 -23 43 -23q53 0 125 97q63 88 68 141q35 57 82 162q6 39 6 73q0 29 -6 57.5t-21.5 62.5t-26 54.5t-33 62.5t-30.5 56l-22 97q-14 33 -47 84q-41 66 -50 102q-29 127 -100 346q-10 23 -68 41 q-63 20 -86 41q-2 6 -2 18q0 39 64 39q12 0 29 -4q47 -12 94 -12q10 0 50 2t52 2q37 0 74 -6q27 -4 67 4q47 10 70 6q43 -10 43 -47q0 -27 -18.5 -47.5t-42.5 -13.5q-20 -6 -58 -2l-20 -21q-10 -164 55 -248q10 -14 15 -55q2 -27 8 -59q12 -27 65 -109q61 -96 72 -106h24 q16 27 23 75q8 61 16 80q6 20 50 96q35 59 34 103q27 66 39 125q41 45 41 78q0 14 -3 23t-21.5 18.5t-53.5 9.5q-14 0 -62 -3t-54 -3q-18 23 -19 49q0 51 56 51q419 0 446 -8q6 -68 -4 -98q-16 -10 -49 -11q-8 0 -38 2t-38 2q-39 0 -57 -12q-16 -12 -27.5 -32.5t-14.5 -35 t-6.5 -48t-5.5 -42.5q-41 -139 -116 -329l-129 -326q2 -10 -33 -106l-45 -121q-14 -8 -27 -62q-12 -61 -20 -71q-12 -12 -47 -58q-74 -141 -88 -168q-55 -88 -142 -121q-47 -20 -125 -20q-96 0 -170 35q-82 45 -82 127zM381 1186q-4 51 49 239q53 197 84 207q6 4 16 0 q12 -6 17 -6q14 0 55 8t72 8q39 0 49 -18q43 -10 43 -45q0 -27 -20.5 -51.5t-47.5 -30.5q-12 -16 -86 -115q-49 -47 -141 -141q-16 -31 -49 -67q-8 -8 -24.5 -4t-16.5 16z" />
<glyph unicode="&#xfe;" horiz-adv-x="1284" d="M-27 1585q0 25 56 37l102 12q76 8 100 4q4 0 21.5 -6t23.5 -6l23 14q45 2 84 -24q6 -16 10 -182q2 -156 -8 -197q4 -23 14 -66q6 -33 -18 -141q37 -63 47 -63q16 0 45 59q82 53 166 53q94 0 201 -63q166 -96 207 -195q25 -61 43 -297q-20 -195 -60 -258 q-39 -66 -135 -153l-72 -68q-57 -45 -141 -45q-115 0 -168 45q-66 53 -100 59q-8 -10 -11 -251q-2 -240 5 -259q10 -16 118 -24q104 -8 105 -49q0 -23 -18.5 -46.5t-55.5 -27.5h-68l-114 -2q-90 8 -287 8q-29 16 -22 88l71 10q35 6 31 127q-4 147 2 160q8 23 8 299 q-14 12 -14 33q0 123 -17 217q18 27 7 70q-2 6 -2 18t10 48t10 40v8q-6 268 -12 326q-4 31 12 35q6 57 -27 115q27 59 27 81q0 2 -4 13.5t-9 32t-5 43.5q14 315 -41 335q-10 4 -37 0q-33 -6 -45 -6q-20 0 -39 11.5t-19 27.5zM383 492q2 -90 14 -164q14 -76 86 -156 q76 -88 154 -88q84 0 164 131q33 51 39 147q10 131 18 158q4 18 -4 43q-12 39 -12 43q-18 166 -47 221q-47 92 -64 115q-53 72 -104 72q-57 0 -127 -70q-68 -68 -86 -127q-37 -124 -31 -325z" />
<glyph unicode="&#xff;" horiz-adv-x="1144" d="M-197 -479q0 57 43 131q29 47 95 47q33 0 55 -15.5t53 -70.5q47 -80 51 -86q18 -23 43 -23q53 0 125 97q63 88 68 141q35 57 82 162q6 39 6 73q0 29 -6 57.5t-21.5 62.5t-26 54.5t-33 62.5t-30.5 56l-22 97q-14 33 -47 84q-41 66 -50 102q-29 127 -100 346q-10 23 -68 41 q-63 20 -86 41q-2 6 -2 18q0 39 64 39q12 0 29 -4q47 -12 94 -12q10 0 50 2t52 2q37 0 74 -6q27 -4 67 4q47 10 70 6q43 -10 43 -47q0 -27 -18.5 -47.5t-42.5 -13.5q-20 -6 -58 -2l-20 -21q-10 -164 55 -248q10 -14 15 -55q2 -27 8 -59q12 -27 65 -109q61 -96 72 -106h24 q16 27 23 75q8 61 16 80q6 20 50 96q35 59 34 103q27 66 39 125q41 45 41 78q0 14 -3 23t-21.5 18.5t-53.5 9.5q-14 0 -62 -3t-54 -3q-18 23 -19 49q0 51 56 51q419 0 446 -8q6 -68 -4 -98q-16 -10 -49 -11q-8 0 -38 2t-38 2q-39 0 -57 -12q-16 -12 -27.5 -32.5t-14.5 -35 t-6.5 -48t-5.5 -42.5q-41 -139 -116 -329l-129 -326q2 -10 -33 -106l-45 -121q-14 -8 -27 -62q-12 -61 -20 -71q-12 -12 -47 -58q-74 -141 -88 -168q-55 -88 -142 -121q-47 -20 -125 -20q-96 0 -170 35q-82 45 -82 127zM166 1462q0 25 12 43q-8 45 55 82q53 29 105 33 q55 2 87 -34t32 -93q0 -63 -36 -109.5t-93 -46.5q-8 0 -33 4q-45 -8 -88 31q-41 41 -41 90zM670 1448q0 68 51 125q53 59 117 59q10 0 26 -4q20 -4 50 -35t32 -49q-8 -14 -10 -43q0 -70 -37 -119t-96 -49q-27 0 -51 8q-82 27 -82 107z" />
<glyph unicode="&#x178;" d="M-166 1585q0 45 86 45q10 0 52 -2t55 -2q47 0 65 12q12 -8 514 -12l10 12q10 -8 82 -10q59 -4 60 -26q0 -20 -33 -54q-41 0 -72 -2q-18 18 -71 15q-66 -6 -82 2l-39 -29q25 -86 149 -324q123 -240 181 -297l26 13q129 227 213 334q23 29 72 133q55 115 55 145q0 6 -2 8 q-14 10 -74 15q-57 2 -86 28q6 20 20.5 41t31.5 21q6 0 16 -11q166 2 356 0q43 -12 43 -38.5t-35.5 -45t-85.5 -14.5q-20 0 -47 -14l-41 -25q-20 -8 -67 -98q-129 -215 -242 -412q-80 -147 -80 -422q0 -14 1 -37.5t2 -68.5t1 -80q2 -113 0 -176q0 -20 15 -62q14 -38 10 -63 q2 0 108 -4q10 -4 95 -17q55 -6 49 -65q-23 -6 -45 -6l-62 8q-27 4 -43 6q-51 8 -104 8q-27 0 -225 -24q-6 -2 -58 6q-39 6 -92 6q-57 0 -157.5 -8t-155.5 -6q-10 10 -10 26q0 31 9 43.5t27 8.5q59 -14 150 -15q152 0 164 65.5t12 192.5q0 57 -16 422q-53 76 -160 273 q-98 182 -146 290l-26 15q-74 117 -125 172q-86 86 -180 86q-35 0 -62 -8q-6 14 -6 26zM315 2003q0 18 11 43q-8 41 57 80q51 29 104 33q55 4 87 -33t32 -94.5t-35 -104.5q-37 -51 -94 -51q-13 0 -33 4q-47 -10 -88 31t-41 92zM897 1987q0 68 51 124q53 59 117 60 q18 0 27 -2q20 -6 50 -36t32 -48q-8 -14 -11 -43q0 -72 -38 -121t-97 -49q-25 0 -49 8q-82 27 -82 107z" />
<glyph unicode="&#x2c6;" horiz-adv-x="1050" d="M266 1196q0 37 19 66q20 35 102 237q76 184 96 199l58 -10l43 -121q16 -20 37 -58q41 -80 118 -270q4 -16 4 -25q0 -33 -26.5 -52t-61.5 -11q-63 8 -98 137q-36 140 -65 158h-17q-12 -16 -41 -105q-29 -94 -45 -122q-35 -59 -78 -60q-45 0 -45 37z" />
<glyph unicode="&#x2dc;" horiz-adv-x="1058" d="M70 1188q0 66 77 162q76 94 142 90q18 0 82 -29l92 -41l178 -49q39 -12 74 -12q51 0 82 34q18 23 32 64q12 35 23 35q37 0 37 -61.5t-66 -174.5q-14 -2 -51 -37q-33 -33 -53 -26l-135 18q-53 8 -207 72q-70 29 -113 29q-66 0 -102 -62q-35 -61 -51 -61q-41 0 -41 49z" />
<glyph unicode="&#x2000;" horiz-adv-x="1117" />
<glyph unicode="&#x2001;" horiz-adv-x="2234" />
<glyph unicode="&#x2002;" horiz-adv-x="1117" />
<glyph unicode="&#x2003;" horiz-adv-x="2234" />
<glyph unicode="&#x2004;" horiz-adv-x="744" />
<glyph unicode="&#x2005;" horiz-adv-x="558" />
<glyph unicode="&#x2006;" horiz-adv-x="372" />
<glyph unicode="&#x2007;" horiz-adv-x="372" />
<glyph unicode="&#x2008;" horiz-adv-x="279" />
<glyph unicode="&#x2009;" horiz-adv-x="446" />
<glyph unicode="&#x200a;" horiz-adv-x="124" />
<glyph unicode="&#x2010;" horiz-adv-x="901" d="M27 512q0 74 77 90q23 4 86 -6q78 -14 97 -14q37 -4 94 8q61 12 90 12h88q61 -6 92 -20.5t31 -53.5q0 -55 -45 -118q-31 -8 -117 -7h-137q-35 0 -98 -6q-49 -10 -172 9q-37 4 -61.5 36.5t-24.5 69.5z" />
<glyph unicode="&#x2011;" horiz-adv-x="901" d="M27 512q0 74 77 90q23 4 86 -6q78 -14 97 -14q37 -4 94 8q61 12 90 12h88q61 -6 92 -20.5t31 -53.5q0 -55 -45 -118q-31 -8 -117 -7h-137q-35 0 -98 -6q-49 -10 -172 9q-37 4 -61.5 36.5t-24.5 69.5z" />
<glyph unicode="&#x2012;" horiz-adv-x="901" d="M27 512q0 74 77 90q23 4 86 -6q78 -14 97 -14q37 -4 94 8q61 12 90 12h88q61 -6 92 -20.5t31 -53.5q0 -55 -45 -118q-31 -8 -117 -7h-137q-35 0 -98 -6q-49 -10 -172 9q-37 4 -61.5 36.5t-24.5 69.5z" />
<glyph unicode="&#x2013;" horiz-adv-x="1204" d="M27 537q0 49 77 65q23 4 86 -6q78 -14 97 -14l454 12h90q121 -4 121 -55q0 -18 -45 -78q-29 -12 -116 -8l-408 8q-41 0 -98 -8q-49 -10 -172 8q-86 12 -86 76z" />
<glyph unicode="&#x2014;" horiz-adv-x="1806" d="M27 537q0 49 77 65q23 4 86 -6q78 -14 97 -14q123 2 511 9t613 11h88q123 -10 123 -55q0 -14 -47 -80q-31 -12 -117 -6h-1075q-41 0 -98 -8q-49 -10 -172 8q-86 12 -86 76z" />
<glyph unicode="&#x2018;" horiz-adv-x="694" d="M45 936q0 92 82 242q23 41 70 88q47 51 73 84q20 31 60 30q61 0 61 -51q0 -25 -20 -47q-66 -25 -115 -119t-49 -176q0 -90 53 -90q23 0 66 25q45 27 61 26q4 0 12 -4q55 -35 55.5 -102.5t-51.5 -126.5q-49 -61 -114 -68q-80 -8 -156 88q-53 76 -84 172q-4 16 -4 29z" />
<glyph unicode="&#x2019;" horiz-adv-x="847" d="M166 1165q0 66 49 127q51 61 117 68q80 8 155 -88q53 -72 84 -170q2 -8 2 -31q0 -92 -79 -242q-18 -35 -68 -86q-59 -63 -74 -84q-20 -33 -61 -32q-61 0 -62 51q1 27 21 47q63 25 112 119q51 94 52 176q0 90 -54 90q-23 0 -67 -27q-43 -25 -60 -24q-8 0 -12 4 q-55 35 -55 102z" />
<glyph unicode="&#x201a;" horiz-adv-x="847" d="M166 538.5q0 67.5 49 129.5q51 61 117 67q80 8 155 -88q53 -76 84 -172q2 -8 2 -29q0 -90 -79 -241q-18 -33 -68 -86q-59 -63 -74 -84q-20 -33 -61 -33q-61 0 -62 51q1 24 21 47q63 25 112 119q51 94 52 176q0 90 -54 90q-23 0 -67 -26q-43 -25 -60 -25q-8 0 -12 4 q-55 33 -55 100.5z" />
<glyph unicode="&#x201c;" horiz-adv-x="1116" d="M20 938q0 90 80 242q18 33 68 86q55 55 76 86q23 31 59 30q61 0 62 -51q0 -27 -21 -47q-63 -25 -115 -119q-49 -96 -49 -176q0 -90 56 -90q20 0 63 25q45 27 61 26q7 0 15 -4q53 -35 53 -102.5t-51 -126.5q-49 -61 -115 -68q-80 -8 -156 88q-53 72 -83 170q-2 10 -3 31z M469 936q0 90 80 242q18 35 67 86q55 55 76 85.5t60 30.5q61 0 61 -51q0 -25 -20 -47q-63 -25 -115 -119q-49 -94 -49 -176q0 -90 53 -90q23 0 66 25q45 27 61 26q8 0 12 -4q55 -35 55.5 -102.5t-51.5 -126.5q-49 -61 -114 -68q-80 -8 -156 88q-53 76 -84 172q-2 8 -2 29z " />
<glyph unicode="&#x201d;" horiz-adv-x="1226" d="M129 1165q0 66 49 127q51 61 117 68q80 8 156 -88q53 -72 84 -170q4 -16 4 -31q0 -92 -82 -242q-18 -35 -68 -86q-59 -63 -74 -84q-20 -33 -61 -32q-61 0 -61 51q0 27 20 47q66 25 115 119t49 176q0 90 -53 90q-23 0 -68 -27q-43 -25 -59 -24q-8 0 -13 4q-55 35 -55 102z M578 1163q0 66 49 127q53 61 116 68q82 8 156 -88q53 -72 84 -170q4 -16 4 -31q0 -92 -82 -242q-18 -33 -67 -86q-59 -61 -74 -82q-23 -35 -62 -34q-61 0 -61 51q1 26 21 49q66 23 114 121q49 88 49 172q0 90 -53 90q-23 0 -67 -27q-43 -25 -60 -24q-8 0 -12 4 q-55 33 -55 102z" />
<glyph unicode="&#x201e;" horiz-adv-x="1226" d="M135 539q0 70 51 129q53 61 115 67q84 10 156 -88q57 -76 84 -172q4 -16 4 -29q0 -90 -80 -241q-25 -37 -70 -86q-59 -63 -73 -84q-20 -33 -62 -33q-61 0 -61 51q0 24 20 47q66 25 115 119t49 176q0 90 -53 90q-20 0 -66 -26q-47 -25 -59 -25q-6 0 -15 4q-55 33 -55 101z M584 539q0 68 51 127q53 61 115 67q84 10 155 -88q57 -72 84 -172q4 -16 4 -29q0 -92 -80 -241q-25 -37 -69 -86q-59 -63 -74 -84q-20 -33 -61 -33q-61 0 -62 51q1 24 21 47q66 25 114 119q49 96 49 176q0 90 -53 90q-20 0 -65 -26q-45 -25 -60 -25q-6 0 -14 4 q-55 33 -55 103z" />
<glyph unicode="&#x2022;" horiz-adv-x="868" d="M53 524q1 125 144 260l219 25q33 4 102 -78q74 -82 76 -125q25 -264 -268 -313q-39 -8 -125 33q-82 43 -107 75q-41 53 -41 123z" />
<glyph unicode="&#x2026;" horiz-adv-x="1867" d="M53 152q0 80 109 170l166 16q25 2 80 -49t55 -82q2 -113 -16.5 -152t-69.5 -45q-78 -8 -117 -10q-33 -4 -94 23t-80 49q-33 33 -33 80zM672 166q0 80 108 170q8 0 166 16q23 2 80 -51q55 -51 55 -82q2 -109 -16 -148.5t-70 -47.5l-116 -9q-37 -4 -95 23q-59 27 -82 49 q-31 33 -30 80zM1292 176q0 80 109 170l166 19q23 2 80 -52q53 -51 57 -82q0 -113 -18.5 -151.5t-67.5 -44.5q-43 -2 -119 -10q-33 -4 -94 22q-61 27 -80 49q-33 33 -33 80z" />
<glyph unicode="&#x202f;" horiz-adv-x="446" />
<glyph unicode="&#x205f;" horiz-adv-x="558" />
<glyph unicode="&#x20ac;" horiz-adv-x="1583" d="M-4 686q0 41 65 53q8 2 52 -2q0 4 4 15.5t10 21.5l4 8q-8 8 -18 47q-68 12 -68 62q0 39 66 51l12 16q12 16 16 17q14 109 4 133q-4 61 111 227q119 172 203 201q-10 0 100 47q111 45 195 49q111 2 206 -26q59 -20 107 -52q39 -20 45 -18q8 4 23.5 14.5t23.5 15.5t20.5 10 t20.5 5q49 0 49 -45q0 -16 -6 -41l-10 -39q0 -12 5 -37.5t1 -40.5l2 -168q0 -166 -57 -166q-6 0 -23 5q-8 53 -24 131q-16 115 -74 196q-43 59 -125 131q-66 63 -139 64q-27 0 -68 -10q-25 -12 -78 -37q-47 -18 -121 -142q-66 -111 -81 -178q-14 -49 -21 -82l-14 -125 q8 -16 28 -67l457 12h76q102 -4 102 -45q0 -12 -37 -63q-20 -4 -100 -5h-526q-16 -16 -17 -41q0 -27 19 -63l434 14h76q43 -2 72.5 -13t29.5 -24q0 -8 -16 -24q-27 -23 -29 -31q-20 -8 -141 -18q-96 -8 -137 -8l-285 2q2 -14 -3 -34t-5 -24q20 -68 49 -200q18 -131 215 -277 q6 2 20 2q8 0 47 -7t60 -7q51 0 119 24q182 74 217 222q25 39 22 57q20 20 25 72q2 27 2 79q4 53 41 68q27 -68 26 -139q0 -121 -77 -240q-57 -88 -144 -151q-6 -6 -76 -23q-55 -23 -151 -49q-90 2 -145 10q-82 12 -146 45q-121 57 -225 180q-125 137 -131 261 q-33 53 -31 122l-59 9q-74 8 -74 63z" />
<glyph unicode="&#x2122;" horiz-adv-x="2054" d="M2 1327q0 18 4 146q4 135 4 147q45 18 125 16q10 4 53 -6q37 -4 97 -4q92 0 258 8q174 6 227 6l31 -28q0 -2 6 -72q6 -68 6 -113q0 -104 -33 -104q-12 0 -22 8l-92 168q-14 12 -39 51l-78 21q-23 0 -25 -21l-18 -39q-10 -57 -6 -350q2 -301 20 -321q119 -2 119 -43 q0 -27 -74 -25q-70 4 -162 -2q-106 -8 -161 -8q-35 0 -92 4q-2 86 61 86q6 0 28.5 -3t30.5 -3q29 0 37 20q4 16 4 58l4 182q2 125 -2 268q-4 141 -18 156q-2 18 -49 14q-72 -4 -60 -6q-76 -106 -75 -125q-16 -16 -29 -51q-6 -14 -11 -28.5t-10 -22.5l-2 -6zM840 784 q6 61 51 68q33 4 90 8q10 61 10 205l-12 487h-45q-18 -12 -37 -12q-57 0 -57 53q0 57 102 47l80 -8q20 4 29 4q16 0 39 -8q16 -6 34 -2q20 4 29 4q39 0 53 -33q10 -16 25 -73q31 -102 129 -420l33 2q0 6 82 291q59 213 96 254q31 -8 78 -9q31 -4 80 0q39 2 79 3q12 6 25 6 q35 0 35 -41q0 -55 -45 -56q-6 0 -19 5l-49 -3q-6 -18 -4 -342q4 -319 6 -358q6 0 12 2q29 6 47.5 -4t18.5 -31q0 -29 -47 -51q-39 0 -102 -2q-88 -2 -138 0q-76 4 -88 8q-6 16 -6 29q0 53 57 53q18 0 33 -8q18 6 17 74q-8 190 12 524q-39 -164 -107 -365 q-102 -299 -157 -299q-33 84 -101 224q-16 31 -34 120q-14 76 -46 121q-25 84 -63 170q-2 -37 0 -290.5t6 -272.5q6 -2 24.5 -4t29 -3t22.5 -5t17 -10.5t5 -14.5q0 -16 -24 -47q-4 0 -15.5 -1t-35 -2t-47.5 -1q-76 -2 -119 0q-70 4 -88 14z" />
<glyph unicode="&#x25fc;" horiz-adv-x="1054" d="M0 0v1055h1055v-1055h-1055z" />
</font>
</defs>
</svg>
